<svg width="219" height="219" viewBox="0 0 219 219" fill="none" xmlns="http://www.w3.org/2000/svg">
<path fill-rule="evenodd" clip-rule="evenodd" d="M62.9187 51.0055V51.7829C62.9187 52.0008 63.0052 52.2096 63.1592 52.3637C63.3132 52.5177 63.5221 52.6042 63.7399 52.6042C63.9577 52.6042 64.1666 52.5177 64.3206 52.3637C64.4747 52.2096 64.5612 52.0008 64.5612 51.7829V50.9617C64.5499 50.7458 64.4562 50.5424 64.2993 50.3936C64.1423 50.2448 63.9343 50.1621 63.718 50.1623C63.6097 50.1637 63.5028 50.1868 63.4036 50.2302C63.3043 50.2736 63.2148 50.3365 63.1403 50.4151C63.0658 50.4937 63.0077 50.5864 62.9697 50.6878C62.9316 50.7893 62.9143 50.8973 62.9187 51.0055ZM62.6011 48.7169C63.8056 48.4322 64.7911 47.6219 63.0391 47.7314C62.6052 47.792 62.1767 47.8872 61.758 48.0161C60.1155 48.695 61.539 48.9688 62.6011 48.7169ZM163.067 56.3381C162.563 57.3968 161.719 58.2564 160.669 58.78C160.629 58.7945 160.594 58.8227 160.572 58.8598C160.55 58.8969 160.541 58.9405 160.548 58.9832C160.554 59.026 160.575 59.0651 160.608 59.094C160.64 59.1228 160.681 59.1396 160.724 59.1413C161.078 59.2037 161.443 59.1779 161.785 59.066C162.127 58.9541 162.436 58.7596 162.685 58.4998C162.934 58.24 163.115 57.9228 163.212 57.5763C163.31 57.2299 163.32 56.8648 163.243 56.5133C163.243 56.4669 163.224 56.4223 163.191 56.3895C163.158 56.3566 163.114 56.3381 163.067 56.3381ZM158.709 47.6548C158.499 47.6009 158.276 47.6314 158.087 47.7399C157.899 47.8483 157.761 48.0261 157.702 48.2351C157.603 48.5916 157.584 48.9656 157.647 49.3301C157.647 49.548 157.734 49.7568 157.888 49.9109C158.042 50.0649 158.251 50.1514 158.468 50.1514C158.686 50.1514 158.895 50.0649 159.049 49.9109C159.203 49.7568 159.29 49.548 159.29 49.3301C159.29 48.5417 159.465 47.8628 158.709 47.6548ZM121.052 155.239C120.165 154.79 103.204 155.896 102.777 157.801C102.689 158.217 102.963 159.816 103.445 160.078C104.397 160.582 120.713 159.662 121.611 157.888C121.866 157.457 121.95 156.945 121.847 156.455C121.743 155.964 121.46 155.53 121.052 155.239ZM103.653 159.619C103.315 159.088 103.133 158.473 103.127 157.845C103.346 156.859 112.38 156.323 113.376 156.257C113.353 157.142 113.58 158.015 114.033 158.775C112.785 158.972 104.244 159.936 103.653 159.651V159.619ZM120.811 157.429C119.946 158.042 115.555 158.6 114.504 158.732C114.596 157.865 114.412 156.991 113.979 156.235C115.282 156.147 119.454 155.917 120.691 156.027C121.019 156.268 121.03 157.012 120.811 157.45V157.429ZM92.2756 157.834C92.2461 157.815 92.2119 157.805 92.1771 157.805C92.1422 157.805 92.1081 157.815 92.0785 157.834C92.0785 157.724 71.164 169.506 70.5289 170.755C70.5007 170.815 70.486 170.88 70.486 170.946C70.486 171.013 70.5007 171.078 70.5289 171.138C71.1969 173.054 93.0202 192.786 93.9291 193.235C94.1919 193.366 94.5204 193.137 95.5497 192.589C97.7397 191.417 116.431 181.431 118.359 179.821C118.895 179.274 119.224 174.346 118.928 173.788C118.632 173.229 92.2756 157.943 92.2756 157.834ZM94.17 192.326C91.8376 190.476 73.365 173.832 71.3173 171.007C73.2226 169.211 91.6515 158.534 92.2099 158.206C95.035 159.925 115.369 172.299 117.975 174.051C116.598 174.449 115.288 175.05 114.088 175.835C113.464 176.438 115.019 177.555 117.176 179.646C113.88 181.77 97.5316 190.53 94.17 192.326ZM117.8 179.022C117.691 178.912 115.052 176.339 114.931 176.241C115.995 175.577 117.091 174.966 118.216 174.412C118.22 175.959 118.073 177.503 117.778 179.022H117.8Z" fill="#4B0082"/>
<path fill-rule="evenodd" clip-rule="evenodd" d="M108.701 177.007C107.934 177.335 98.5828 180.434 95.9439 181.507C95.1683 181.894 94.3231 182.121 93.4582 182.175C93.3049 182.175 94.1919 180.467 100.904 175.233C101.605 174.686 102.952 173.645 103.094 172.791C103.74 169.966 96.0862 174.193 89.2425 176.865C88.5347 177.245 87.7624 177.49 86.9649 177.587C86.8882 177.138 88.4322 175.726 88.5307 175.616C92.6151 171.105 97.7944 169.243 97.444 167.579C96.9075 164.973 87.4029 170.043 85.399 170.864C83.7127 171.576 81.019 172.43 81.1833 172.43C80.8219 172.572 81.1833 172.824 81.249 172.791C81.3147 172.758 84.7858 171.696 85.629 171.324C86.8882 170.842 95.3088 166.78 96.7104 167.732C97.2688 168.127 91.312 171.335 87.9504 175.047C87.3591 175.682 85.7604 176.974 86.2531 178.025C86.3435 178.188 86.4805 178.319 86.6464 178.403C86.8123 178.487 86.9995 178.52 87.1839 178.496C88.8154 178.496 99.9406 172.923 102.229 172.747C101.704 173.441 101.076 174.05 100.368 174.554C98.7361 175.846 94.0057 179.701 92.9107 181.475C92.3413 182.394 92.8122 182.942 93.5568 182.953C94.5423 182.953 95.7468 182.285 98.7142 181.168C108.777 177.292 109.095 177.467 108.931 177.106C108.922 177.084 108.909 177.064 108.893 177.047C108.877 177.031 108.858 177.017 108.836 177.008C108.815 176.999 108.792 176.994 108.769 176.994C108.745 176.994 108.722 176.998 108.701 177.007Z" fill="#4B0082"/>
<path fill-rule="evenodd" clip-rule="evenodd" d="M213.525 135.255C213.383 123.801 212.353 100.423 210.087 89.0894C208.893 83.0779 206.309 74.8544 201.502 70.8796C199.465 69.2042 196.465 67.5945 191.023 64.5833C191.089 64.4409 182.427 60.9369 182.022 62.0976C181.686 60.1005 181.214 58.1286 180.609 56.1956C181.42 55.9328 181.058 53.5676 181.398 52.2317C181.737 50.8958 183.018 49.9432 183.675 48.8482C185.154 46.4063 185.406 42.1468 185.132 39.3107C184.869 36.6718 181.015 30.7807 178.474 29.817C175.934 28.8534 173.328 28.8863 170.645 28.3497C168.455 27.9008 166.834 26.6854 164.382 26.3788C161.929 26.0722 160.461 27.4738 158.359 27.4738C156.257 27.4738 153.891 25.8422 151.69 25.7108C150.495 25.6922 149.333 26.1082 148.421 26.8816C147.508 27.6549 146.908 28.7329 146.73 29.9156C146.464 31.6784 146.673 33.4801 147.336 35.1353C147.998 36.7905 149.089 38.2393 150.497 39.3326C152.211 40.4172 154.138 41.1228 156.147 41.4022C156.016 46.9976 156.607 45.4975 155.95 45.9902C155.293 46.483 155.501 49.9322 155.731 50.8849C155.83 51.2681 155.928 51.4105 156.399 51.5638C156.136 52.6588 154.286 55.0239 155.95 55.6043C156.169 55.681 157.045 55.8343 157.133 55.8671C157.357 56.9055 157.687 57.9182 158.118 58.8893C158.543 59.8656 159.163 60.7444 159.941 61.4714C160.719 62.1984 161.638 62.7581 162.64 63.116C164.217 63.7292 165.466 63.8934 166.385 64.211C166.512 64.6638 166.578 65.1314 166.582 65.6017C162.672 66.6294 158.988 68.3786 155.72 70.7591C149.796 75.5662 141.376 95.5061 139.175 97.6961C138.32 98.5393 118.205 102.437 115.238 104.452C114.658 104.846 114.636 105.186 114.712 105.887C113.99 106.018 110.945 106.588 110.606 107.234C110.506 107.703 110.532 108.19 110.683 108.646C107.973 108.14 105.239 107.775 102.492 107.551C101.989 107.563 101.495 107.68 101.04 107.895C100.585 108.11 100.181 108.418 99.8531 108.799C98.9333 109.894 99.6779 109.708 98.7034 109.555C96.6338 109.259 89.2207 111.745 88.2899 112.183C88.2899 111.789 88.2899 111.515 87.8738 111.296C86.6517 110.942 85.3748 110.816 84.107 110.924C83.3405 111.438 86.297 111.263 87.5234 111.898C87.5234 112.741 87.6329 121.392 87.5234 123.089C87.5234 123.396 87.5234 123.352 87.2935 123.385C86.1985 123.538 84.6217 123.385 84.1399 123.735C84.3151 119.925 84.1399 110.595 83.6143 110.048C83.2967 109.719 77.4494 109.018 71.0875 108.252C71.1101 103.649 70.8541 99.0488 70.321 94.4768C69.1493 84.3152 66.6965 72.3359 59.0315 66.2586C59.4757 66.44 59.9645 66.482 60.4331 66.3791C61.0589 66.1308 61.7325 66.026 62.4041 66.0725C63.4991 66.3681 63.6415 67.1675 66.379 65.3279C66.5542 65.2075 67.0141 65.2403 67.3754 64.8789C68.6128 63.6416 67.9886 61.9663 67.9886 60.718C68.17 59.8693 68.229 58.9991 68.1638 58.1338C68.1303 58.0047 68.0673 57.8852 67.98 57.7846C67.8926 57.6839 67.7831 57.6048 67.6601 57.5534C67.6601 57.1921 68.0434 56.546 67.4959 55.8452C68.2843 55.4291 69.1384 54.9473 68.7004 54.0932C67.8637 52.755 67.1735 51.3306 66.6418 49.8446C66.3023 48.5744 66.7622 46.9538 66.7403 45.5851C66.7403 44.6434 66.8389 43.5155 66.7403 42.4862C67.5849 41.8965 68.2303 41.064 68.5909 40.0991C68.6708 39.7091 68.6536 39.3054 68.541 38.9235C68.4283 38.5417 68.2236 38.1933 67.9448 37.9091C67.5835 37.6791 67.5068 37.9091 67.5178 37.2302C67.5574 36.992 67.5467 36.7481 67.4863 36.5142C67.426 36.2804 67.3173 36.0617 67.1674 35.8724C66.7075 35.4234 65.6563 34.9307 65.3278 34.4708C64.7693 33.6496 64.4408 32.8283 63.3896 32.4998C62.645 32.2589 61.9442 32.7298 61.4405 32.5655C60.7507 32.3465 60.0389 31.6019 59.2505 32.3903C59.0745 32.4857 58.8814 32.5455 58.6822 32.5662C58.483 32.5868 58.2817 32.568 58.0898 32.5108C57.4328 31.9523 57.2686 30.9887 56.1517 30.7807C55.5166 30.6712 54.2683 30.9778 53.7865 30.7807C52.9972 30.1997 52.1264 29.7384 51.2023 29.4119C50.1692 29.3135 49.1268 29.4025 48.1253 29.6747C47.4245 29.8171 46.5266 29.7404 45.793 29.8499C44.2709 30.0908 43.8329 31.4048 42.8255 32.0399C41.8181 32.675 40.1209 32.686 39.1573 34.1095C38.347 35.314 38.5222 36.617 38.2046 37.8215C38.0732 38.3362 37.3724 38.9165 37.1096 39.4421C36.4964 40.6576 36.9673 41.8839 36.9563 42.9352C36.9454 43.9864 36.2117 44.9499 36.4198 46.2201C36.5888 46.8545 36.8667 47.4547 37.241 47.9941C37.2456 48.1716 37.2234 48.3487 37.1753 48.5197C36.8413 49.3814 36.7726 50.3233 36.9782 51.2243C37.1575 52.0881 37.5747 52.8846 38.1827 53.5238C38.9492 54.1918 39.3434 54.0166 39.9019 54.9692C40.1368 55.4729 40.4899 55.9125 40.9312 56.2504C41.7415 56.7979 42.7379 56.327 43.2197 56.5679C43.5195 56.7262 43.8464 56.8265 44.1833 56.8636C43.9138 56.9998 43.6809 57.1988 43.5044 57.4439C37.5476 58.1995 29.6855 62.5466 24.8894 68.4925C22.9951 70.9343 19.8086 74.4602 18.6151 77.2853C12.1984 91.7831 15.3301 114.515 12.7459 121.534L6.35109 138.211C6.04449 139.01 5.25609 142.985 5.54079 144.354C6.00069 146.391 8.13594 143.839 9.43899 142.394C8.62869 145.274 8.63964 146.029 8.21259 157.363C8.08119 160.91 7.96074 164.776 7.90599 168.028C7.90285 168.051 7.90476 168.075 7.9116 168.098C7.91844 168.12 7.93004 168.141 7.94561 168.159C7.96119 168.176 7.98038 168.19 8.00188 168.2C8.02339 168.209 8.0467 168.214 8.07024 168.214C8.37684 168.214 8.17974 168.565 8.62869 159.52C8.94624 153.158 9.30759 147.223 9.34044 146.741C9.50253 144.87 9.91501 143.028 10.5668 141.266C13.6248 138.982 17.066 137.261 20.7284 136.185C24.8046 135.095 29.1089 135.205 33.1238 136.503C34.2188 136.864 37.1644 137.598 38.2156 137.105C40.4056 136.01 46.0448 132.386 46.9756 130.185C47.4355 129.09 47.8078 128.203 48.1691 127.382C49.8445 127.535 51.9031 127.962 53.7317 127.984C55.7794 127.984 57.0934 127.655 59.36 125.651C67.693 125.838 76.88 125.586 81.26 125.422C84.1837 126.517 93.1627 129.725 95.3417 131.882C96.1958 132.714 96.6995 135.036 97.0061 137.62C97.4099 140.709 97.5162 143.829 97.3237 146.938C91.3231 148.088 83.68 149.906 77.767 151.373C77.4359 151.281 77.0898 151.255 76.7486 151.296C75.1828 151.461 75.9164 152.096 75.4018 150.508C75.4264 150.514 75.4521 150.513 75.4766 150.507C75.501 150.5 75.5235 150.488 75.5419 150.47C75.5604 150.453 75.5742 150.431 75.5822 150.407C75.5903 150.383 75.5922 150.358 75.5879 150.333C75.5718 148.228 75.3258 146.132 74.8543 144.08C74.7776 143.774 74.2411 143.62 73.9126 143.522C70.3648 142.493 56.6663 141.113 53.6551 141.89C51.695 142.405 38.128 149.413 37.5148 150.902C36.9016 152.391 35.2372 161.348 34.9306 163.002C27.835 165.071 22.2395 166.78 19.502 167.71C19.4794 167.718 19.4584 167.73 19.4405 167.745C19.4225 167.761 19.408 167.78 19.3977 167.802C19.3875 167.823 19.3817 167.847 19.3809 167.871C19.38 167.894 19.3839 167.918 19.3925 167.94C19.5239 168.345 23.1155 166.484 59.9075 156.815C60.2773 157.759 60.751 158.659 61.3201 159.498C60.2251 159.761 58.9877 160.242 58.6264 161.25C58.5622 161.463 58.5515 161.688 58.5955 161.906C58.6394 162.124 58.7366 162.327 58.8782 162.498C59.7766 163.504 60.9741 164.195 62.2946 164.469C64.61 165.05 67.0159 165.176 69.3793 164.841C71.6487 164.644 73.8849 164.165 76.0369 163.418C78.3802 162.433 78.2269 160.965 77.329 160.297C76.4037 159.753 75.387 159.382 74.3287 159.202C75.3251 157.396 74.3944 158.195 75.8836 157.834C76.7263 157.632 77.4961 157.2 78.1064 156.585C79.07 155.6 79.7161 153.169 78.7963 151.997C83.4172 150.902 101.999 146.303 106.544 146.643C114.789 147.245 174.74 171.893 188.931 176.646C188.954 176.653 188.977 176.656 189.001 176.654C189.024 176.652 189.047 176.645 189.067 176.635C189.088 176.624 189.107 176.609 189.122 176.591C189.137 176.574 189.149 176.553 189.156 176.531C189.163 176.508 189.166 176.485 189.164 176.462C189.162 176.438 189.156 176.415 189.145 176.395C189.134 176.374 189.12 176.355 189.102 176.34C189.084 176.325 189.063 176.313 189.041 176.306C185.329 175.014 177.051 171.718 167.141 167.754C167.623 166.593 168.893 162.849 169.878 161.557C170.284 161.031 170.262 160.987 173.875 161.195C183.347 161.743 191.691 161.491 200.779 158.589C206.331 156.804 209.058 152.687 210.634 147.179C210.952 147.278 211.817 147.562 212.124 147.628C212.211 147.649 212.302 147.649 212.39 147.628C212.477 147.608 212.559 147.566 212.627 147.508C213.711 146.402 213.525 137.412 213.525 135.255ZM63.751 59.9624C63.4546 60.0704 63.1347 60.0968 62.8246 60.0391C62.5145 59.9813 62.2256 59.8414 61.988 59.6339C61.7517 59.4447 61.5666 59.1992 61.4499 58.9198C61.3332 58.6405 61.2886 58.3363 61.3201 58.0352C61.3056 57.9902 61.3095 57.9413 61.3311 57.8992C61.3527 57.8571 61.3901 57.8252 61.4351 57.8107C61.4801 57.7962 61.529 57.8002 61.5711 57.8217C61.6132 57.8433 61.645 57.8807 61.6595 57.9257C62.2002 58.7033 62.9637 59.2989 63.8495 59.6339C63.8777 59.6572 63.8984 59.6883 63.9091 59.7234C63.9197 59.7584 63.9197 59.7958 63.9092 59.8308C63.8987 59.8659 63.8781 59.8971 63.8499 59.9205C63.8218 59.9439 63.7874 59.9584 63.751 59.9624ZM53.4689 50.3702C53.5064 50.0485 53.6356 49.7444 53.8412 49.4942C54.0821 49.2533 54.8158 49.4066 55.3304 49.0562C55.7153 48.752 56.0074 48.3461 56.1736 47.8846C56.7868 46.6691 57.7613 47.6108 59.1191 45.607C59.4657 45.0434 59.7346 44.4357 59.9185 43.8002C60.685 43.4389 61.6814 43.9645 62.645 42.3767C62.9626 41.8402 63.1706 41.2817 63.74 41.1284C64.1671 41.5883 64.5941 43.3184 66.3242 42.6505C66.3242 43.2418 66.1928 46.2311 66.16 46.472C66.0181 47.1937 65.9411 47.9266 65.93 48.662C65.93 50.852 66.9374 52.0565 68.0543 54.3451C68.2295 54.7064 67.3097 55.0568 66.8498 55.3086C66.201 55.0697 65.5297 54.8972 64.846 54.794C62.7217 54.2794 61.0244 55.3853 59.1958 55.889C58.8858 55.8909 58.5768 55.8541 58.276 55.7795C57.5861 55.7138 56.8634 56.4146 55.8889 56.546C55.6348 56.5959 55.3716 56.5683 55.1334 56.4667C54.8952 56.3652 54.693 56.1944 54.553 55.9766C54.4349 55.5756 54.3507 55.1653 54.3011 54.7502C54.2026 54.356 54.0821 53.9618 53.9945 53.5786C53.8193 52.7902 54.334 52.4836 53.7317 51.3886C53.3156 50.644 53.3266 50.9725 53.4689 50.3702ZM53.885 72.7082C54.6224 71.309 55.2237 69.8423 55.6808 68.3282C56.294 72.1388 56.6225 74.066 56.7758 75.0296C55.9765 74.3616 55.8998 74.1098 53.885 72.6644V72.7082ZM57.17 77.1649C57.7066 80.4499 57.5861 79.7053 57.6847 80.3842C57.4231 79.8914 57.1033 79.4319 56.732 79.0154C56.8546 78.2921 56.9096 77.5589 56.8963 76.8254L57.17 77.1649ZM53.2061 79.1358C52.5522 78.456 51.9553 77.7235 51.4213 76.9458C51.9627 75.6796 52.5732 74.4441 53.2499 73.2448C55.5494 75.0077 55.3742 74.9858 55.9436 75.6975C56.0272 76.6301 56.0272 77.5682 55.9436 78.5008L53.2061 79.1358ZM53.3485 79.8476C54.6515 82.7493 55.1771 87.5126 55.4509 90.6881C54.084 86.6884 52.246 82.8656 49.9759 79.3001C50.4198 78.6934 50.8153 78.0527 51.1585 77.3838C51.6095 78.2238 52.1491 79.013 52.7681 79.7381C52.8472 79.7878 52.9363 79.8195 53.0291 79.8309C53.1218 79.8422 53.2159 79.833 53.3047 79.8038L53.3485 79.8476ZM46.8442 56.4146C46.9333 56.4423 47.025 56.4606 47.1179 56.4694C47.3729 56.4579 47.6173 56.3642 47.8147 56.2024C48.012 56.0406 48.1518 55.8192 48.2129 55.5715C48.3881 55.462 48.5195 55.3415 48.5086 55.1334C48.4976 54.9254 46.1434 51.7061 49.1437 50.0527C49.4083 50.024 49.6743 50.0926 49.8919 50.2458C50.1096 50.3989 50.264 50.6261 50.3263 50.8849C50.468 51.4689 50.7672 52.003 51.1913 52.4288C51.2245 53.1287 51.3161 53.8246 51.4651 54.5093C51.5527 54.9144 51.2461 55.4401 51.1804 55.9985C51.0271 57.0935 52.0892 58.298 52.4725 59.2835C52.9871 60.6085 52.6367 62.032 53.8631 63.2036C55.0895 64.3753 54.8596 63.4117 55.2866 66.0396C54.7758 68.105 54.0719 70.1177 53.1842 72.0512C51.9469 70.2992 45.6835 60.0719 44.4242 57.7396C44.8951 57.4549 46.3624 56.6227 46.8004 56.3708L46.8442 56.4146ZM43.5592 57.8709C44.3585 59.7324 52.3192 72.3468 52.3192 72.4563C51.9359 73.6718 49.735 78.7088 48.6947 79.2563C46.4062 77.6247 40.1318 60.4661 39.6829 58.9112C40.9183 58.382 42.2178 58.0175 43.5482 57.8272L43.5592 57.8709ZM54.8596 106.215C53.6551 105.832 49.7678 92.6372 46.2967 85.3335C44.2162 80.9535 40.1318 73.7156 35.6752 71.7884C30.8572 69.7188 21.9001 74.6792 20.9474 81.1178C20.3657 85.3641 20.7094 89.686 21.9548 93.7869C27.1232 109.413 34.1203 121.874 49.067 125.443C49.4174 124.743 48.1801 125.323 58.0132 125.586C57.5313 125.961 57.0184 126.294 56.4802 126.582C54.6406 127.579 51.1475 126.779 48.5633 126.495L48.8918 125.783C33.4961 122.345 26.291 109.358 21.1336 94.0279C19.8311 89.8033 19.4575 85.347 20.0386 80.9645C21.0241 74.0003 30.2987 69.0071 35.4343 70.7372C36.7437 71.2251 37.9425 71.9696 38.9602 72.9272C38.4718 68.5394 38.351 64.1185 38.5988 59.7106C38.8001 59.5318 39.0162 59.3706 39.2449 59.2288C40.1866 62.5138 45.5521 78.216 48.2786 79.9571C48.4516 80.0593 48.654 80.0998 48.853 80.072C49.0519 80.0441 49.2355 79.9496 49.3736 79.8038C51.8374 84.0415 54.1369 88.3776 55.0567 92.9438C55.577 95.4639 55.71 98.0486 55.4509 100.609C53.896 94.1702 49.5926 84.8627 44.698 80.4061C49.7021 89.0456 53.3485 102.865 54.98 105.591C55.6327 105.771 56.2994 105.895 56.9729 105.963C56.6882 99.3933 56.4692 85.6949 53.6879 79.7491C54.0274 79.7491 56.4254 79.2344 56.4254 79.2344C56.8579 79.7537 57.2256 80.3236 57.5204 80.9317C57.9694 81.7967 57.8161 81.1397 58.495 85.7387C61.78 106.971 61.5938 106.861 62.0209 107.091C59.8747 106.817 56.0969 106.588 54.8596 106.215ZM62.1304 101.835C57.8599 77.5919 57.8161 76.913 56.0203 66.7952C56.1626 66.3134 56.2721 65.9192 56.3488 65.6345C57.0277 66.4995 60.7288 71.2409 61.1339 72.2812C60.5317 72.8177 58.3636 73.7375 59.0206 74.4712C59.3162 74.8106 61.7581 76.9239 62.5246 77.6904C62.9407 79.4534 62.2837 98.7692 62.1304 101.835ZM35.3686 162.86C35.6752 161.469 37.679 152.424 38.2375 151.154C38.6426 150.212 51.8483 143.204 53.9288 142.679C56.9291 141.89 73.2665 143.511 74.4053 144.245C74.9195 146.155 75.2206 148.116 75.3032 150.092C73.4636 147.902 59.2286 148.482 59.0753 151.57C59.0723 151.671 59.0936 151.772 59.1374 151.864C59.1812 151.955 59.2463 152.035 59.3272 152.096C59.32 153.419 59.4707 154.739 59.7761 156.027C51.3665 158.293 42.9569 160.659 35.3686 162.86ZM77.1209 161.151C77.6794 162.958 71.1203 163.736 69.226 163.955C66.9766 164.275 64.6866 164.16 62.4808 163.615C61.5172 163.352 59.7323 162.652 59.3929 161.776C59.2286 161.359 59.7652 160.965 60.1594 160.757C60.6588 160.496 61.1884 160.298 61.7362 160.166C62.3327 160.988 63.1327 161.641 64.0576 162.06C65.1526 162.542 69.8282 162.203 71.4488 161.852C72.1606 161.699 72.9161 161.491 73.9892 159.772C74.6462 159.87 76.9348 160.549 77.1209 161.151ZM71.8868 160.768C71.0656 161.261 65.2621 161.655 64.3751 161.294C61.4405 160.122 59.8418 155.545 59.7214 152.315C62.107 152.84 64.5554 153.02 66.9922 152.851C68.8208 152.61 73.1461 151.866 74.7338 151.066C75.6865 154.658 73.6717 159.728 71.8868 160.768ZM78.0079 155.118C77.7115 155.704 77.2951 156.222 76.7858 156.637C76.2764 157.052 75.6855 157.355 75.0514 157.527C75.6243 155.991 75.8957 154.359 75.8507 152.72C75.9372 152.539 76.0627 152.379 76.2182 152.252C76.3737 152.126 76.5553 152.035 76.7501 151.987C76.9448 151.939 77.1478 151.934 77.3445 151.974C77.5412 152.014 77.7266 152.096 77.8874 152.216C78.7087 152.753 78.3473 154.187 78.0079 155.118ZM190.793 64.9008C198.195 68.9852 201.48 70.6934 203.845 74.2741C202.357 72.9947 200.464 72.2846 198.502 72.2702C191.483 72.0293 188.034 82.4209 186.238 89.1442C183.259 100.357 185.088 114.548 184.924 116.629C183.029 118.392 173.328 123.429 168.991 125.783C169.594 123.242 171.74 113.442 173.141 109.577C175.025 104.387 180.445 92.2978 180.807 89.6698C180.905 88.8923 180.752 88.7938 178.452 87.3046C179.339 87.3046 181.737 87.0636 182.482 86.9213C182.799 86.9213 182.964 86.7789 183.084 86.111C183.489 83.7896 184.278 64.66 184.343 62.6232C184.267 62.5794 189.851 64.3643 190.826 64.9008H190.793ZM182.35 62.2838C182.849 62.2479 183.35 62.3035 183.829 62.448C183.281 70.3868 182.734 84.3481 182.219 86.1329C181.639 86.2424 179.58 86.3848 178.781 86.4395C177.073 86.5381 177.029 86.4395 176.854 86.6804C176.678 86.9213 176.919 87.2498 177.237 87.4688C177.795 87.863 179.657 89.0346 179.92 89.3412C179.667 90.645 179.278 91.9185 178.759 93.1409C172.572 109.566 172.944 104.518 168.783 122.531C169.061 113.902 169.859 105.298 171.171 96.7654C172.047 92.0678 173.109 87.655 176.646 77.6029C178.036 73.7156 180.916 66.2696 181.026 66.3134C181.575 65.0047 182.029 63.658 182.383 62.2838H182.35ZM163.33 129.484C163.538 130.294 163.538 130.185 163.473 130.196L163.133 130.13C163.133 130.021 162.542 119.027 162.827 114.482C163.341 106.434 163.998 97.7071 164.611 89.2975C164.907 85.2241 166.024 76.475 165.991 76.8035L167.086 75.9932C167.541 76.8997 168.056 77.7741 168.63 78.6103C168.849 78.9059 169.145 79.2782 169.495 79.3111C169.254 81.293 165.608 105.744 164.535 121.37C163.943 129.878 164.535 128.071 163.67 128.849C163.567 128.918 163.485 129.013 163.431 129.125C163.377 129.237 163.354 129.36 163.363 129.484H163.33ZM169.835 79.322C170.667 79.322 171.565 77.57 172.66 76.8254C173.087 77.2744 174.379 79.4206 175.233 79.7052C171.609 89.6479 167.732 103.511 167.743 126.396C166.812 126.9 165.553 127.622 164.622 128.159C165.17 118.841 169.134 88.2572 169.867 79.322H169.835ZM181.332 64.6052C180.982 65.7002 175.78 78.2598 175.419 78.8402C174.854 78.2866 174.352 77.6735 173.919 77.0116C172.999 75.7742 172.682 75.3691 171.116 77.132C173.437 72.752 177.97 68.3063 179.876 66.0944C181.693 64.0139 181.453 64.1891 181.332 64.6052ZM156.804 41.6102C157.621 41.8618 158.495 41.8618 159.312 41.6102C159.937 41.3324 160.627 41.2339 161.305 41.3255C162.262 41.7666 163.245 42.147 164.25 42.4643C165.493 42.4534 166.733 42.3546 167.962 42.1686C168.525 42.4318 169.002 42.8492 169.337 43.3726C169.673 43.8959 169.853 44.5036 169.856 45.1252C167.816 45.4215 165.846 46.0856 164.042 47.0852C163.931 46.7257 163.712 46.4094 163.414 46.1799C163.116 45.9504 162.754 45.8191 162.378 45.8041C160.582 45.588 158.769 45.566 156.968 45.7384C156.809 44.3392 156.754 42.93 156.804 41.5226V41.6102ZM156.377 50.9506C156.103 50.4688 155.567 46.7348 156.114 46.3297C156.202 46.4392 155.819 46.0997 157.899 46.1216C159.366 46.1679 160.828 46.2995 162.279 46.5158C163.265 46.691 163.429 47.1399 163.374 48.0926C163.374 49.8556 163.429 49.6803 163.374 50.2278C163.374 50.3811 163.308 50.7863 163.188 50.8739C160.936 51.2815 158.628 51.2778 156.377 50.863V50.9506ZM166.44 63.2912C163.44 62.4371 160.691 62.3276 158.841 58.517C157.647 56.0642 158.304 55.3525 157.22 55.0349C156.818 54.987 156.422 54.8989 156.038 54.7721C156.038 54.0385 156.957 52.5055 157.133 51.728C158.951 51.9454 160.789 51.9454 162.608 51.728C163.703 51.5638 164.283 51.3776 164.108 49.1548V47.4575C165.827 46.9319 169.473 46.0668 169.911 45.9464C169.914 46.5421 169.995 47.1348 170.152 47.7094C170.323 48.0706 170.619 48.3583 170.984 48.5197C171.043 48.5457 171.107 48.5578 171.17 48.5552C171.234 48.5525 171.297 48.5352 171.353 48.5044C171.409 48.4737 171.458 48.4305 171.494 48.378C171.531 48.3256 171.555 48.2654 171.565 48.2021C171.817 47.1838 172.014 46.2749 172.09 45.8369C172.09 46.0778 172.189 45.0704 172.912 44.6762C174.007 44.1068 175.704 45.377 175.824 47.1728C175.89 48.0488 175.014 49.6366 174.357 51.4652C173.963 52.5602 176.35 53.0311 177.182 53.4362C177.489 54.148 177.302 54.9473 177.719 55.3744C178.343 55.7593 179.028 56.0369 179.744 56.1956C180.5 58.616 181.049 61.0958 181.387 63.6087C178.606 66.5324 177.981 67.2332 177.237 67.9888C174.328 70.7528 171.861 73.9473 169.922 77.4605C169.145 72.8943 167.667 68.8647 167.502 67.5398C167.371 66.5105 167.59 64.6928 167.108 63.7182C167.035 63.6023 166.937 63.5039 166.822 63.43C166.706 63.3562 166.576 63.3088 166.44 63.2912ZM166.758 67.0033C167.283 68.9524 168.685 75.2814 169.09 77.8218C168.422 76.8144 167.601 75.15 167.601 75.15C167.572 75.0907 167.531 75.0384 167.479 74.9973C167.428 74.9562 167.368 74.9271 167.304 74.9124C167.24 74.8977 167.173 74.8976 167.109 74.9122C167.044 74.9268 166.984 74.9557 166.933 74.9967L166.133 75.61C166.44 72.763 166.747 69.8612 166.791 67.0033H166.758ZM166.44 66.0287C166.342 74.0879 164.732 81.2711 164.075 89.2975C161.885 116.278 161.885 114.953 162.104 124.502C160.921 115.873 159.268 99.0867 158.359 89.9873C159.005 89.4945 162.126 87.1184 162.476 86.3957C162.64 86.0453 162.476 85.6839 161.688 85.6839C160.317 85.7873 158.941 85.7873 157.571 85.6839C158.403 82.2894 163.166 69.905 164.436 66.62C165.082 66.4338 165.619 66.2477 166.44 66.0287ZM115.534 105.274C117.231 103.489 138.529 99.3277 139.689 98.1998C141.321 96.5573 145.81 86.3629 150.387 78.6321C154.275 72.0621 156.388 69.6313 163.954 66.839C162.137 71.3395 158.589 80.1433 156.99 85.2679C156.892 85.5854 156.749 85.9358 156.99 86.1438C157.592 86.7351 160.111 86.3848 161.556 86.4067C160.538 87.425 157.735 89.4946 157.735 89.4946C157.681 89.5344 157.638 89.5878 157.611 89.6493C157.584 89.7108 157.574 89.7782 157.582 89.845C158.041 94.9258 160.867 125.246 162.093 129.648L160.122 129.145C158.848 128.519 157.464 128.147 156.049 128.05C158.545 115.632 157.647 112.161 157.954 105.394C157.954 104.693 154.997 90.6115 154.975 90.502C154.975 90.4555 154.957 90.4109 154.924 90.3781C154.891 90.3452 154.847 90.3268 154.8 90.3268C154.754 90.3268 154.709 90.3452 154.676 90.3781C154.644 90.4109 154.625 90.4555 154.625 90.502C154.811 95.298 156.169 99.8642 157.1 105.098C153.596 108.383 149.927 112.928 143.96 114.406C140.27 115.337 122.99 119.103 120.691 119.268C118.808 117.165 115.238 106.675 115.534 105.274ZM113.453 106.73C113.453 106.73 114.767 106.412 114.745 106.204C115.768 110.052 117.056 113.824 118.6 117.494C117.604 117.802 116.586 118.032 115.555 118.184C114.931 118.184 115.369 118.731 113.847 115.118C112.909 112.871 112.105 110.571 111.438 108.23C111.252 107.474 110.935 107.551 113.453 106.73ZM100.631 109.04C101.496 108.088 102.12 107.945 110.77 109.04C111.54 111.651 112.472 114.211 113.563 116.705C111.782 118.093 109.742 119.11 107.562 119.695C107.496 119.224 107.343 119.366 107.715 119.399C108.03 119.408 108.342 119.346 108.63 119.218C108.917 119.09 109.172 118.899 109.376 118.66C109.58 118.42 109.727 118.138 109.807 117.834C109.888 117.53 109.899 117.211 109.84 116.902C109.752 115.807 106.62 113.53 105.733 112.906C106.26 113.014 106.806 112.972 107.31 112.785C107.355 112.771 107.393 112.739 107.414 112.697C107.436 112.655 107.44 112.606 107.425 112.561C107.411 112.516 107.379 112.478 107.337 112.457C107.295 112.435 107.246 112.431 107.201 112.446C105.361 112.928 103.499 110.738 103.259 110.672C102.415 110.464 102.941 112.424 101.069 113.596C100.795 113.771 99.7436 113.377 99.6779 112.84C99.5401 112.176 99.5542 111.489 99.7192 110.831C99.8841 110.173 100.196 109.561 100.631 109.04ZM88.3885 112.49C89.7901 111.986 96.9295 109.774 98.9881 110.3C98.7564 111.174 98.7042 112.087 98.8348 112.982C98.9044 113.267 99.0344 113.533 99.2162 113.762C99.3979 113.992 99.627 114.18 99.8879 114.313C100.149 114.446 100.435 114.521 100.728 114.533C101.02 114.546 101.312 114.495 101.583 114.384C102.346 113.875 102.92 113.128 103.215 112.26C104.189 112.851 109.029 116.059 108.964 117.198C108.964 117.965 108.558 118.611 107.792 118.545C107.145 118.313 106.533 117.992 105.974 117.592C105.412 117.143 104.819 116.733 104.2 116.366C104.102 116.315 103.988 116.302 103.881 116.33C103.773 116.358 103.68 116.424 103.619 116.517C103.558 116.609 103.533 116.721 103.549 116.83C103.566 116.94 103.622 117.04 103.708 117.11C103.708 117.11 104.529 117.724 105.438 118.315C106.806 119.41 107.277 120.417 105.58 120.932C105.314 121.011 105.035 121.034 104.76 121C104.485 120.966 104.22 120.876 103.981 120.735C103.702 120.184 103.332 119.684 102.886 119.257C102.687 118.745 102.331 118.31 101.868 118.015C101.405 117.72 100.861 117.579 100.313 117.614C99.7436 117.68 99.6998 117.965 99.7546 117.702C100.017 116.399 98.353 115.61 97.1923 115.829C95.3198 116.202 94.2796 118.676 93.6664 120.483C93.2941 121.271 94.7614 120.395 88.3556 122.673C88.5361 119.493 88.5361 116.305 88.3556 113.125C88.3009 112.369 88.279 112.544 88.3885 112.49ZM93.973 120.604C94.5752 119.311 95.9002 116.891 97.3127 116.672C97.8602 116.574 98.9662 116.946 98.8457 117.505C98.6086 118.987 97.9249 120.363 96.8857 121.447C97.0171 121.666 93.5897 121.731 93.973 120.604ZM100.171 118.512C100.433 118.249 101.966 118.786 102.01 119.607C102.087 120.976 100.784 122.607 99.656 123.363C99.2947 123.615 97.8712 122.454 97.5427 121.983C98.3248 120.758 99.2036 119.597 100.171 118.512ZM102.021 122.158C102.098 122.049 103.193 119.618 103.379 121.633C103.456 122.421 102.284 122.837 101.518 122.728C101.696 122.547 101.864 122.357 102.021 122.158ZM126.374 136.393C121.764 139.974 121.107 144.683 121.863 150.3C114.46 147.672 108.81 145.92 106.609 145.734C103.63 145.795 100.666 146.162 97.7617 146.829C98.0573 143.883 97.9259 133.546 95.8345 131.422C93.743 129.298 86.1547 126.396 83.2967 125.301H83.9428C84.1946 125.17 83.7785 124.02 84.7312 123.954C85.8809 123.889 87.4906 124.327 88.0162 123.867C88.1731 123.628 88.2638 123.352 88.279 123.067C89.4835 122.684 92.3195 121.819 93.754 121.447C94.2362 121.829 94.8008 122.095 95.4032 122.222C96.0055 122.35 96.6293 122.335 97.2251 122.18C97.5536 122.914 99.0866 124.524 100.039 123.998C100.304 123.845 100.556 123.673 100.795 123.483C101.487 123.675 102.223 123.645 102.897 123.396C103.254 123.299 103.572 123.094 103.809 122.81C104.046 122.526 104.19 122.176 104.222 121.808C104.796 121.973 105.407 121.946 105.964 121.733C106.521 121.52 106.993 121.131 107.31 120.625C109.711 120.086 111.958 119.008 113.88 117.472C114.088 117.921 114.285 118.304 114.449 118.567C114.504 118.659 114.58 118.737 114.672 118.792C114.764 118.847 114.868 118.879 114.975 118.884C116.07 118.994 118.654 117.789 118.764 117.789C119.139 118.572 119.606 119.307 120.154 119.979C120.352 120.176 120.68 120.122 120.987 120.089C124.162 119.706 139.93 116.311 144.146 115.26C149.621 113.891 153.191 110.048 156.946 106.39C156.738 112.676 157.56 115.742 155.074 128.082C149.905 128.725 144.784 129.705 139.744 131.017C135.331 132.276 130.075 133.525 126.374 136.404V136.393ZM142.35 157.998L141.967 157.844C141.879 152.282 143.259 147.157 147.332 143.358C147.693 143.449 148.058 143.519 148.427 143.566C144.234 147.157 142.58 152.391 142.35 157.998ZM159.64 139.744C156.355 141.671 157.319 142.712 154.307 143.029C151.895 143.195 149.471 143.007 147.113 142.471C145.208 141.857 146.215 141.124 148.208 140.905C148.548 140.96 151.22 140.981 152.479 140.905C152.582 140.888 152.675 140.836 152.743 140.757C152.811 140.677 152.848 140.576 152.848 140.472C152.848 140.368 152.811 140.267 152.743 140.188C152.675 140.109 152.582 140.056 152.479 140.04C151.059 139.918 149.632 139.896 148.208 139.974C147.302 139.961 146.399 139.855 145.515 139.657C145.427 139.513 145.375 139.35 145.366 139.182C145.356 139.013 145.389 138.846 145.46 138.693C146.61 138.003 152.03 138.266 152.928 138.233C153.033 138.216 153.13 138.163 153.199 138.081C153.269 138 153.307 137.896 153.307 137.79C153.307 137.683 153.269 137.579 153.199 137.498C153.13 137.417 153.033 137.363 152.928 137.346C151.131 137.384 149.334 137.289 147.551 137.061C146.785 136.93 145 136.547 145.131 135.769C145.372 134.368 148.252 135.572 150.278 135.43C151.707 135.408 153.122 135.142 154.461 134.641C154.561 134.611 154.645 134.542 154.694 134.449C154.744 134.357 154.754 134.249 154.724 134.149C154.693 134.048 154.624 133.964 154.532 133.915C154.439 133.866 154.331 133.855 154.231 133.886C152.861 134.215 151.471 134.457 150.07 134.609C149.981 134.59 149.902 134.54 149.847 134.467C149.793 134.395 149.767 134.305 149.774 134.214C149.79 134.01 149.842 133.81 149.928 133.623C150.492 132.887 151.25 132.322 152.117 131.992C155.227 130.699 157.592 131.992 161.151 132.221C161.598 134.246 162.165 136.243 162.848 138.2C161.757 138.636 160.699 139.152 159.684 139.744H159.64ZM163.823 138.408C163.44 137.116 162.016 132.43 161.874 131.335C162.439 131.058 163.034 130.849 163.648 130.71C164.152 132.583 165.082 135.835 165.685 137.653C165.097 137.947 164.49 138.199 163.867 138.408H163.823ZM166.922 138.408C166.342 137.094 164.622 130.973 164.228 129.44C166.112 127.896 183.018 119.585 185.537 117.056C186.325 116.267 183.664 101.43 186.785 89.2208C188.45 82.6508 191.713 72.325 198.447 72.5549C203.068 72.7082 205.707 76.2341 207.207 80.636C209.955 88.739 208.86 99.9846 208.86 99.8752C208.86 109.062 205.575 122.87 199.005 129.44C194.045 134.411 170.01 138.967 166.966 138.441L166.922 138.408ZM212.069 146.73C210.788 146.391 204.907 144.223 202.422 144.015C189.512 142.92 190.311 140.467 182.329 136.963C186.709 135.868 196.443 133.327 199.673 130.13C206.495 123.363 209.649 109.413 209.616 99.9737C209.869 96.668 209.869 93.3477 209.616 90.0421C212.036 103.773 213.525 142.569 212.069 146.73Z" fill="#4B0082"/>
<path fill-rule="evenodd" clip-rule="evenodd" d="M42.7598 72.7083L39.1682 73.1244C40.2631 74.1541 41.2602 75.2831 42.1466 76.497L43.1431 73.212C43.1735 73.1531 43.1865 73.0868 43.1808 73.0208C43.175 72.9548 43.1507 72.8918 43.1106 72.839C43.0705 72.7863 43.0162 72.746 42.9541 72.7229C42.892 72.6997 42.8247 72.6947 42.7598 72.7083ZM146.632 172.638C145.728 172.066 144.731 171.658 143.686 171.433C146.172 167.393 145.723 162.673 145.066 162.257C144.447 161.627 143.624 161.239 142.744 161.162C139.459 160.473 131.499 160.418 129.396 162.17C128.936 162.553 128.663 163.177 129.112 163.593C128.898 166.189 129.442 168.791 130.677 171.083C129.582 171.291 128.312 171.707 127.896 172.693C127.824 172.905 127.805 173.131 127.839 173.352C127.873 173.573 127.961 173.783 128.093 173.963C128.934 175.005 130.084 175.753 131.378 176.098C133.664 176.794 136.061 177.043 138.441 176.832C140.714 176.739 142.968 176.372 145.153 175.737C147.573 174.839 147.551 173.361 146.632 172.638ZM129.495 163.79C131.849 164.433 134.282 164.736 136.722 164.688C139.382 164.506 142.008 163.991 144.54 163.155C144.759 164.662 144.679 166.197 144.303 167.672C143.927 169.147 143.263 170.533 142.35 171.751C142.129 172.138 141.811 172.46 141.426 172.685C141.042 172.909 140.605 173.029 140.16 173.032C138.627 173.229 134.444 173.339 133.59 172.956C130.82 171.674 129.451 167.021 129.495 163.79ZM138.397 175.835C136.137 176.049 133.856 175.819 131.685 175.156C130.701 174.889 129.797 174.389 129.046 173.7C128.871 173.514 128.586 173.142 128.674 172.912C128.958 172.189 130.349 171.817 131.115 171.685C131.664 172.522 132.418 173.205 133.305 173.667C134.4 174.226 140.467 174.16 141.595 173.58C142.298 173.151 142.893 172.566 143.336 171.871C143.982 172.058 146.237 172.824 146.391 173.437C146.883 175.321 140.368 175.77 138.397 175.89V175.835Z" fill="#4B0082"/>
<rect x="178" y="97" width="6" height="4" rx="0.1" fill="#4B0082"/>
<path d="M179.254 100V98.56H179.81C179.89 98.56 179.961 98.5767 180.021 98.61C180.081 98.6433 180.127 98.6883 180.161 98.745C180.194 98.801 180.211 98.863 180.211 98.931C180.211 99.0083 180.19 99.0773 180.149 99.138C180.107 99.198 180.052 99.2397 179.983 99.263L179.981 99.214C180.074 99.2407 180.147 99.2873 180.201 99.354C180.254 99.4207 180.281 99.5013 180.281 99.596C180.281 99.6793 180.263 99.7513 180.228 99.812C180.192 99.872 180.143 99.9183 180.079 99.951C180.015 99.9837 179.94 100 179.856 100H179.254ZM179.402 99.859H179.82C179.878 99.859 179.931 99.8487 179.978 99.828C180.024 99.8067 180.061 99.7767 180.088 99.738C180.115 99.6993 180.129 99.6527 180.129 99.598C180.129 99.5447 180.116 99.4967 180.092 99.454C180.067 99.4113 180.033 99.3773 179.991 99.352C179.949 99.326 179.901 99.313 179.847 99.313H179.402V99.859ZM179.402 99.174H179.809C179.855 99.174 179.897 99.1637 179.935 99.143C179.973 99.1217 180.003 99.0927 180.025 99.056C180.047 99.0193 180.059 98.977 180.059 98.929C180.059 98.861 180.035 98.8057 179.988 98.763C179.941 98.7203 179.881 98.699 179.809 98.699H179.402V99.174ZM180.729 100L180.313 98.56H180.466L180.803 99.749L181.138 98.561L181.292 98.56L181.629 99.749L181.964 98.56H182.118L181.703 100H181.555L181.215 98.819L180.877 100H180.729ZM182.311 100V98.56H182.458V99.859H183.142V100H182.311Z" fill="white"/>
</svg>
