<svg width="63" height="63" viewBox="0 0 63 63" fill="none" xmlns="http://www.w3.org/2000/svg">
<rect width="63" height="63" rx="10" fill="#EBEEFC"/>
<path d="M32.8802 30.997C32.9012 29.8862 32.9155 28.0195 33.52 27.64C34.1177 27.2605 35.2982 27.6122 35.9027 27.5627C36.5005 27.5132 36.5215 27.0775 36.5425 26.635M42.0325 31.2385C42.0325 31.2385 42.001 27.9415 41.428 27.5132C40.8445 27.0782 39.6775 27.5342 39.0805 27.5132C38.4752 27.4922 38.4407 27.0002 38.4055 26.5007M33.6182 23.08L32.1775 26.1287M40.432 23.2682L41.9342 25.96M37.0487 17.8975C38.9957 17.8975 40.57 19.7815 40.57 22.1012C40.57 24.421 38.995 26.2975 37.0487 26.2975C35.0942 26.2975 33.52 24.421 33.52 22.1012C33.52 19.7815 35.095 17.8975 37.0487 17.8975ZM23.9462 32.005C25.8932 32.005 27.475 33.9662 27.475 36.3775C27.475 38.7887 25.8932 40.7425 23.9462 40.7425C21.9992 40.7425 20.4175 38.788 20.4175 36.3775C20.4175 33.967 21.9992 32.005 23.9462 32.005Z" stroke="#4B0082" stroke-linecap="round" stroke-linejoin="round"/>
<path d="M20.5652 35.386C21.7952 35.5547 23.0252 35.731 23.7775 35.365C24.5297 35.0065 24.811 34.114 25.12 34.0225C25.429 33.931 25.7665 34.648 26.125 35.0275C26.491 35.4145 26.8705 35.4632 27.2575 35.5195M33.6182 21.2575C34.4762 21.3842 35.3402 21.5177 35.8682 21.2575C36.4022 21.0047 36.5987 20.3575 36.88 20.2525C37.1537 20.1475 37.5055 20.575 38.1025 20.836C38.6995 21.097 39.5372 21.1802 40.3735 21.271M25.57 40.342C25.7387 40.8272 25.915 41.3117 26.4625 41.41C27.0175 41.5157 27.9385 41.2412 28.48 42.085C29.0215 42.9287 29.1692 44.8967 29.3162 46.8647M23.1025 40.7425C22.9622 41.1925 22.8145 41.635 22.435 41.7475C22.048 41.86 21.43 41.635 21.0925 41.7475C20.7475 41.8675 20.6845 42.3242 20.6215 42.7877M33.5552 36.328H40.9502V40.4192H33.5552V36.328Z" stroke="#4B0082" stroke-linecap="round" stroke-linejoin="round"/>
<path d="M25.4575 24.1818C26.3311 24.1818 27.0392 23.4736 27.0392 22.6001C27.0392 21.7265 26.3311 21.0183 25.4575 21.0183C24.5839 21.0183 23.8757 21.7265 23.8757 22.6001C23.8757 23.4736 24.5839 24.1818 25.4575 24.1818Z" stroke="#4B0082" stroke-linecap="round" stroke-linejoin="round"/>
<path d="M25.12 20.92L23.7775 19.5775L19.4125 23.9425V28.9825H26.8M30.4975 14.875L31.165 47.125M14.8795 30.652L47.1205 31.348M37.252 36.3738L37.189 33.5372H38.539" stroke="#4B0082" stroke-linecap="round" stroke-linejoin="round"/>
<path d="M47.125 31C47.125 39.9055 39.9055 47.125 31 47.125C22.0945 47.125 14.875 39.9055 14.875 31M47.125 31C47.125 22.0945 39.9055 14.875 31 14.875C22.0945 14.875 14.875 22.0945 14.875 31" stroke="#4B0082" stroke-linecap="round" stroke-linejoin="round"/>
</svg>
