<svg width="63" height="63" viewBox="0 0 63 63" fill="none" xmlns="http://www.w3.org/2000/svg">
<rect width="63" height="63" rx="10" fill="#EBEEFC"/>
<path d="M41.15 39.625H22.85C19.37 39.625 17.375 37.63 17.375 34.15V16C17.375 15.385 17.885 14.875 18.5 14.875H45.5C46.115 14.875 46.625 15.385 46.625 16V34.15C46.625 37.63 44.63 39.625 41.15 39.625ZM19.625 17.125V34.15C19.625 36.385 20.615 37.375 22.85 37.375H41.135C43.37 37.375 44.36 36.385 44.36 34.15V17.125H19.625Z" fill="#4B0082"/>
<path d="M47 17.125H17C16.385 17.125 15.875 16.615 15.875 16C15.875 15.385 16.385 14.875 17 14.875H47C47.615 14.875 48.125 15.385 48.125 16C48.125 16.615 47.615 17.125 47 17.125Z" fill="#4B0082"/>
<path d="M26.0004 47.125C25.5804 47.125 25.1904 46.9 24.9954 46.51C24.7104 45.955 24.9354 45.28 25.5054 44.995L30.8754 42.31V38.5C30.8754 37.885 31.3854 37.375 32.0004 37.375C32.6154 37.375 33.1254 37.885 33.1254 38.5V43C33.1254 43.42 32.8854 43.81 32.4954 44.005L26.4954 47.005C26.3454 47.08 26.1654 47.125 26.0004 47.125Z" fill="#4B0082"/>
<path d="M37.9999 47.1249C37.8349 47.1249 37.6549 47.0799 37.5049 47.0049L31.5049 44.0049C30.9499 43.7199 30.7249 43.0449 30.9949 42.4899C31.2799 41.9349 31.9549 41.7099 32.5099 41.9799L38.5099 44.9799C39.0649 45.2649 39.2899 45.9399 39.0199 46.4949C38.8099 46.8999 38.4049 47.1249 37.9999 47.1249Z" fill="#4B0082"/>
<path d="M25.2499 30.6249C24.9349 30.6249 24.6049 30.4899 24.3799 30.2199C23.9749 29.7399 24.0499 29.0349 24.5299 28.6299L29.2549 24.6849C29.6899 24.3249 30.2449 24.1749 30.7699 24.2649C31.3099 24.3549 31.7749 24.6849 32.0599 25.1649L33.6349 27.7899L38.0299 24.1299C38.5099 23.7399 39.2149 23.7999 39.6199 24.2799C40.0249 24.7599 39.9499 25.4649 39.4699 25.8699L34.7449 29.8149C34.3099 30.1749 33.7549 30.3249 33.2299 30.2349C32.6899 30.1449 32.2249 29.8149 31.9399 29.3349L30.3649 26.7099L25.9699 30.3699C25.7599 30.5349 25.5049 30.6249 25.2499 30.6249Z" fill="#4B0082"/>
</svg>
