<svg width="63" height="63" viewBox="0 0 63 63" fill="none" xmlns="http://www.w3.org/2000/svg">
<rect width="63" height="63" rx="10" fill="#EEF0FC"/>
<path d="M39.1097 43.385H24.9047C23.7197 43.385 22.8647 43.34 22.1297 43.235C16.9247 42.665 15.8896 39.545 15.8896 34.37V24.89C15.8896 19.715 16.9097 16.595 22.1597 16.025C22.8797 15.92 23.7347 15.875 24.9047 15.875H39.1097C40.2797 15.875 41.1347 15.92 41.8847 16.025C47.1047 16.595 48.1247 19.715 48.1247 24.89V34.37C48.1247 39.545 47.1047 42.665 41.8547 43.235C41.1497 43.34 40.2947 43.385 39.1097 43.385ZM24.8896 18.125C23.8246 18.125 23.0596 18.17 22.4296 18.26C19.1896 18.62 18.1247 19.625 18.1247 24.905V34.385C18.1247 39.65 19.1897 40.67 22.3997 41.015C23.0597 41.105 23.8247 41.15 24.9047 41.15H39.1097C40.1897 41.15 40.9397 41.105 41.5697 41.015C44.8097 40.655 45.8747 39.65 45.8747 34.37V24.89C45.8747 19.625 44.8096 18.605 41.5996 18.26C40.9246 18.17 40.1747 18.125 39.0947 18.125H24.8896Z" fill="#4B0082"/>
<path d="M39.8901 27.6052H34.3701C33.7551 27.6052 33.2451 27.0952 33.2451 26.4802C33.2451 25.8652 33.7551 25.3552 34.3701 25.3552H39.8901C40.5051 25.3552 41.0151 25.8652 41.0151 26.4802C41.0151 27.0952 40.5201 27.6052 39.8901 27.6052Z" fill="#4B0082"/>
<path d="M29 27.9802C28.175 27.9802 27.5 27.3052 27.5 26.4802C27.5 25.6552 28.16 24.9802 29 24.9802C29.825 24.9802 30.5 25.6552 30.5 26.4802C30.5 27.3052 29.84 27.9802 29 27.9802Z" fill="#4B0082"/>
<path d="M24.2751 27.9802C23.4501 27.9802 22.7751 27.3052 22.7751 26.4802C22.7751 25.6552 23.4351 24.9802 24.2751 24.9802H24.2901C25.1151 24.9802 25.7901 25.6552 25.7901 26.4802C25.7901 27.3052 25.1001 27.9802 24.2751 27.9802Z" fill="#4B0082"/>
<path d="M39.8903 36.2899H24.1253C23.5103 36.2899 22.9854 35.7799 22.9854 35.1649C22.9854 34.5499 23.4803 34.0399 24.0953 34.0399H39.8903C40.5053 34.0399 41.0153 34.5499 41.0153 35.1649C41.0153 35.7799 40.5203 36.2899 39.8903 36.2899Z" fill="#4B0082"/>
<path d="M39.5 48.125H24.5C23.885 48.125 23.375 47.615 23.375 47C23.375 46.385 23.885 45.875 24.5 45.875H39.5C40.115 45.875 40.625 46.385 40.625 47C40.625 47.615 40.115 48.125 39.5 48.125Z" fill="#4B0082"/>
</svg>
