<svg width="211" height="211" viewBox="0 0 211 211" fill="none" xmlns="http://www.w3.org/2000/svg">
<path d="M136.348 53.8687C166.553 51.4 157.322 19.4441 130.599 20.1087C100.573 20.9422 91.553 57.5401 136.348 53.8687ZM111.313 28.4854C119.859 20.0454 136.897 18.062 147.183 25.9534C158.714 34.7521 157.427 51.7798 136.274 53.4995C124.785 54.4279 116.915 52.5183 112.115 49.3428C104.213 44.11 104.688 35.0581 111.313 28.4854Z" fill="#4B0082"/>
<path d="M138.707 41.9187C140.502 41.9187 140.872 39.671 139.763 38.468C139.552 38.2694 139.303 38.1163 139.03 38.0183C138.757 37.9202 138.467 37.8793 138.178 37.8981C137.889 37.9169 137.606 37.9951 137.349 38.1276C137.091 38.2601 136.863 38.4443 136.68 38.6685C135.402 40.1881 136.268 42.4252 138.707 41.9187ZM139.256 39.2173C139.869 39.9981 139.827 41.3277 138.665 41.5704C137.736 41.5704 136.923 41.2433 136.923 40.3042C136.933 39.0062 138.443 38.1726 139.256 39.2173ZM102.961 114.509C103.584 114.182 104.947 112.768 104.735 112.103C105.137 111.048 111.357 91.1984 113.067 84.7931C113.326 84.1204 113.448 83.403 113.426 82.6826C113.31 82.4505 113.12 82.4294 112.888 82.4188L92.7604 82.7354C92.433 67.5505 90.944 24.8976 89.2544 10.8735C89.5501 10.8735 89.8775 10.8735 89.9725 10.5147C90.3316 9.2062 90.6378 6.87412 89.624 5.98771C87.153 3.82447 7.78347 5.77667 6.7697 6.146C5.75594 6.51534 5.7137 9.48056 5.90378 10.7469C5.90378 11.0529 6.42122 11.1689 6.7169 11.2428C4.81609 23.3675 6.62186 107.481 8.29035 114.741C8.37484 115.1 8.491 115.448 8.79724 115.522C9.49168 115.688 10.1977 115.8 10.9093 115.859C12.0497 124.734 19.8431 126.412 28.798 124.987C37.2046 123.565 45.1985 120.323 52.2203 115.49C58.8414 115.258 51.9034 115.553 64.2482 115.606C67.9548 115.585 101.187 115.469 102.961 114.509ZM53.1495 108.737C55.2616 108.737 57.9438 109.011 59.4856 110.583C59.7813 110.889 60.5416 111.807 60.172 111.997C59.2005 112.514 54.3323 112.335 53.0123 112.356L53.1495 108.737ZM52.9489 112.704L54.4695 112.863C54.4863 113.441 54.6537 114.004 54.9553 114.498L52.8433 114.572L52.9489 112.704ZM112.518 83.3263C111.8 86.6187 104.999 108.737 104.07 111.617C95.9495 111.28 83.8054 111.744 67.3845 112.198C68.1132 109.739 74.9983 86.2388 75.8326 83.9489C75.8854 83.8434 112.413 83.3263 112.518 83.3263ZM6.31562 10.6624C6.05162 8.90018 6.47402 6.64196 6.89642 6.44147C7.49835 6.21987 85.305 5.02745 89.0538 6.65252C89.3148 7.01364 89.4452 7.45275 89.4234 7.8977C89.4522 8.60885 89.3739 9.3203 89.1911 10.0082C89.096 10.0082 29.6956 11.4539 22.6626 11.4433C20.8674 11.4433 7.62507 11.4855 6.31562 10.6624ZM10.9832 36.1043C10.9198 35.545 10.8565 33.8355 10.8037 31.5668C13.0318 32.3371 25.1653 32.3582 27.5308 32.3582C29.2521 32.3582 59.3905 31.6828 64.2904 31.4823C66.0117 31.419 83.2985 30.5537 85.0621 30.3427C85.0951 31.8001 85.0528 33.2583 84.9354 34.7114C84.872 34.7114 38.904 36.4947 32.9798 36.6108C30.8572 36.6425 12.8417 37.054 10.9832 36.1043ZM84.967 24.7921C33.624 25.9529 12.5989 26.6599 10.7297 25.8474V20.1702C14.9538 21.2254 53.1707 20.3179 56.4971 20.2335C60.0875 20.1279 82.5065 19.1782 84.7981 19.0199C84.8509 20.9088 84.9248 22.9243 84.967 24.7921ZM10.7297 26.2695C14.2779 27.4408 54.2372 26.4383 56.6344 26.3644C60.2459 26.2695 83.0345 25.2564 84.9776 25.1614C84.9776 26.8815 85.0515 28.5277 85.0621 29.9839C50.9214 30.8492 13.5598 32.4215 10.7931 31.1869C10.7931 29.7095 10.7931 28.0317 10.7297 26.2695ZM84.7136 18.7034C47.9223 19.537 12.9051 20.5817 10.6664 19.843V15.0417C14.7531 16.1602 53.5825 15.2 56.476 15.1156C59.9291 15.0206 80.7641 14.0603 84.4179 13.9231C84.5974 15.2738 84.7136 16.92 84.7136 18.7034ZM84.439 13.5538C40.2346 14.609 12.6939 15.411 10.7192 14.6829C10.7192 13.8493 10.7192 12.5724 10.8459 11.7177C25.8729 12.6357 59.2216 11.6227 84.2278 11.0423C84.3546 11.7388 84.4285 12.8257 84.4813 13.5432L84.439 13.5538ZM9.15628 114.73C7.55115 109.686 5.28073 23.6947 7.04427 11.3167C8.18822 11.4989 9.34079 11.6221 10.4974 11.686C10.1384 15.7698 10.1384 34.532 10.3812 36.2626C10.3998 36.3436 10.4359 36.4196 10.487 36.4852C10.5381 36.5509 10.6029 36.6045 10.6769 36.6425C11.5951 36.9447 12.5515 37.1152 13.5176 37.149C13.2764 40.8227 13.379 44.511 13.8238 48.1657C10.434 48.5667 10.1172 53.7901 14.6898 52.9776C17.9739 52.8404 17.2559 48.1974 14.2251 48.1446C14.4627 44.4873 14.346 40.8155 13.8766 37.1806C17.7522 37.4656 24.7957 37.5078 33.0009 37.4022C38.9251 37.3178 84.0378 35.6716 84.8192 35.6083C85.231 35.6083 85.6323 35.6083 85.7379 35.2285C86.4032 32.7803 85.4739 13.7226 85.1466 11.0107L88.473 10.9262C90.1203 24.9293 91.5248 66.4636 91.8733 82.7671C88.5469 82.8198 76.2761 82.9887 75.5158 83.1892C75.3046 83.2525 75.2307 83.4108 75.125 83.6851C74.7554 84.6665 73.9423 87.484 73.6466 88.497C68.7239 84.537 63.1149 81.5145 57.099 79.5802C57.2049 78.979 57.3424 78.3837 57.5108 77.7969C58.7687 77.751 59.9926 77.376 61.06 76.7094C62.1274 76.0427 63.001 75.1078 63.5935 73.998C64.8712 71.8875 65.7055 68.5635 65.621 63.3401C65.7083 63.3661 65.8009 63.3691 65.8897 63.3487C65.9785 63.3284 66.0606 63.2854 66.1279 63.224C66.539 62.8952 66.8954 62.5035 67.1839 62.0632C67.7013 60.1143 67.5488 58.0481 66.7509 56.1961C65.9272 53.769 65.5576 52.1018 63.5829 49.9702C62.0485 48.2761 60.0011 47.1308 57.7537 46.7095C55.7686 46.5337 53.768 46.6798 51.8295 47.1421C50.9585 47.4012 50.145 47.8238 49.4324 48.3873C49.0001 48.7522 48.6416 49.1963 48.3764 49.6958C47.8589 50.4134 46.6445 50.4661 45.7047 50.9199C43.7923 52.1572 42.3728 54.0235 41.6919 56.1961C41.2176 57.5536 40.9679 58.9793 40.9527 60.4171C40.1712 59.5518 38.9357 58.5387 37.8902 59.0452C36.8448 59.5518 35.8627 63.0235 35.8733 64.7119C35.8838 66.4003 36.528 66.3897 38.0698 66.3897C37.3672 66.9777 36.7831 67.694 36.3485 68.5002C35.6304 69.6293 35.6621 69.7032 34.4793 70.1886C33.8774 70.4419 33.3283 70.5474 33.3283 71.0011C33.3265 71.0926 33.3531 71.1823 33.4044 71.258C33.4557 71.3338 33.5292 71.3918 33.6148 71.4242C33.7004 71.4565 33.7939 71.4616 33.8825 71.4388C33.9711 71.416 34.0505 71.3663 34.1097 71.2966L34.8173 71.0117C35.3251 70.863 35.7933 70.6031 36.1879 70.2508C36.5825 69.8985 36.8935 69.4626 37.0982 68.9751C37.9853 67.5821 38.5978 66.7274 40.2663 66.3792C39.381 66.9861 38.6525 67.7942 38.1403 68.737C37.6281 69.6799 37.347 70.7307 37.32 71.8031C35.7571 72.9217 33.4444 74.8528 32.6313 76.5833C31.8182 78.3139 31.3007 80.9098 32.758 81.7857C25.335 85.3563 19.398 91.4122 15.9781 98.9017C13.0846 103.545 10.4235 109.56 10.8142 115.057C10.2557 114.981 9.70207 114.872 9.15628 114.73ZM14.1195 48.9888C14.5831 48.9792 15.0348 49.1357 15.3931 49.4298C15.7514 49.724 15.9926 50.1365 16.0731 50.5928C16.4005 52.0279 15.1544 53.1042 13.2113 52.4394C11.2683 51.7746 12.1342 49.0943 14.1195 49.0205V48.9888ZM40.8471 61.8733C41.0619 62.9166 41.5297 63.8913 42.2093 64.7119C42.2192 64.8172 42.2192 64.9232 42.2093 65.0285C40.4798 65.4291 38.6978 65.5537 36.9293 65.3978C36.7794 65.0003 36.7464 64.5682 36.8342 64.1526C36.9409 62.6449 37.3771 61.1789 38.112 59.8578C38.8829 59.4673 40.3613 61.1241 40.8471 61.8733ZM42.8112 79.9074C46.1165 80.034 46.2221 75.9924 46.8874 75.6864C47.6543 75.2136 48.2572 74.5165 48.6142 73.6897C48.9712 72.8629 49.0652 71.9464 48.8833 71.0644C48.8833 70.8745 47.6372 68.2892 47.4893 67.8354C47.0353 66.4847 45.7469 65.1656 46.9825 63.9205C47.7533 63.0235 48.4714 64.0787 48.9783 65.134C49.0069 65.2085 49.0538 65.2747 49.1147 65.3263C49.1756 65.378 49.2485 65.4134 49.3268 65.4295C50.0343 65.5561 50.9425 63.9627 51.6606 63.6144C52.9301 63.1194 54.1025 62.405 55.1243 61.504C55.8952 60.7442 56.4232 59.193 57.2996 58.7603C58.9265 58.1149 60.5997 57.5928 62.3051 57.1986C62.6747 58.3804 62.0622 58.5176 64.7656 62.1582C64.924 62.3693 65.0402 62.6858 65.188 62.9391C65.1928 63.027 65.1928 63.115 65.188 63.2029C65.3464 68.3947 64.3432 71.6448 63.076 73.7553C62.4993 74.7849 61.6531 75.6382 60.6281 76.2238C59.603 76.8094 58.4378 77.1051 57.2574 77.0793C57.1789 77.0733 57.1007 77.094 57.0355 77.1381C56.9703 77.1822 56.922 77.247 56.8984 77.322C56.8984 77.322 56.5288 78.5989 56.3915 79.3375C56.2225 80.2345 56.3915 80.1712 57.2785 80.4983C59.4855 81.2311 61.6322 82.1343 63.6991 83.1997C62.6168 86.3453 61.0336 89.2957 59.0104 91.9371C58.5669 92.4753 57.3208 94.6596 56.476 94.3853C54.4801 93.7099 43.4554 83.6429 40.6359 80.4139L40.3613 80.1079C41.1733 79.9936 41.9914 79.9266 42.8112 79.9074ZM18.9666 95.1134C18.9357 95.1231 18.9025 95.1231 18.8715 95.1134C18.8976 95.1377 18.9311 95.1526 18.9666 95.1556V95.1134ZM28.6502 124.08C23.2434 124.924 16.1576 124.903 13.2641 120.27C8.9134 113.348 13.4225 103.07 18.1007 96.3691C18.3013 96.0737 18.8187 95.3139 19.0511 95.0817C23.7415 87.7782 31.0092 82.5046 39.4109 80.3083C40.8999 82.4188 53.7515 94.3958 56.2331 95.2295C57.7643 95.736 58.947 93.4567 59.7179 92.4858C61.7987 89.7659 63.415 86.7209 64.5016 83.4741C67.681 85.0565 70.6798 86.9776 73.446 89.204C72.2378 93.3726 71.0655 97.5515 69.9295 101.74C69.6866 100.075 69.1917 98.4558 68.4616 96.9389C68.4431 96.8984 68.4101 96.8663 68.3692 96.8487C68.3282 96.8311 68.2822 96.8294 68.24 96.8439C68.1979 96.8584 68.1626 96.888 68.1411 96.927C68.1196 96.9661 68.1134 97.0117 68.1237 97.055C68.2367 98.3652 68.488 99.6598 68.8735 100.917C69.06 101.564 69.3038 102.192 69.6021 102.796C68.2821 107.523 67.1733 111.512 66.9727 112.219C60.1509 112.419 60.8267 112.44 60.8901 112.335C61.323 111.617 60.5733 110.636 59.9925 110.045C59.3029 109.423 58.4949 108.946 57.6167 108.643C56.7385 108.341 55.8081 108.218 54.8814 108.283C54.3095 108.284 53.7383 108.319 53.1707 108.388L53.234 107.143C53.2391 107.054 53.215 106.966 53.1655 106.892C53.116 106.817 53.0437 106.761 52.9595 106.732C47.9434 104.969 40.0867 103.376 34.0252 103.745C34.9753 100.901 35.5538 97.947 35.7465 94.9551C35.7502 94.9116 35.7378 94.8682 35.7118 94.8331C35.6857 94.798 35.6477 94.7737 35.6049 94.7646C35.5621 94.7555 35.5175 94.7624 35.4794 94.7838C35.4413 94.8053 35.4124 94.84 35.3981 94.8812C34.4659 97.7642 33.8741 100.746 33.6345 103.766C30.5074 103.871 27.4747 104.863 24.8908 106.626C24.8745 106.642 24.8615 106.661 24.8527 106.682C24.8439 106.702 24.8393 106.725 24.8393 106.747C24.8393 106.77 24.8439 106.792 24.8527 106.813C24.8615 106.834 24.8745 106.853 24.8908 106.869C25.3132 107.439 27.0028 104.115 35.9472 104.262C41.5437 104.531 47.0732 105.597 52.3681 107.428L51.9774 114.551C45.0026 119.42 37.0368 122.689 28.6502 124.122V124.08Z" fill="#4B0082"/>
<path d="M88.198 100.911C90.4352 101.075 92.6813 101.075 94.9184 100.911C94.979 100.907 95.0379 100.889 95.0909 100.86C95.1439 100.83 95.1897 100.789 95.225 100.74C95.2603 100.69 95.2842 100.634 95.2951 100.574C95.3059 100.514 95.3034 100.453 95.2876 100.394C95.2032 99.4236 93.2409 96.554 92.5235 95.805C92.1648 95.4252 92.0594 95.4357 91.6901 95.805C90.3346 97.1329 89.1412 98.6167 88.1347 100.225C88.0081 100.5 87.9659 100.763 88.198 100.911ZM92.0804 95.805C92.5684 96.3503 92.9833 96.9567 93.3148 97.609C93.8262 98.474 94.2706 99.3769 94.6441 100.31C93.6946 100.31 89.8333 100.426 88.7677 100.31C89.7716 98.7369 90.8782 97.232 92.0804 95.805ZM100.225 58.6162C101.921 58.4744 103.537 57.8318 104.867 56.77C106.227 55.8305 107.419 54.6676 108.391 53.3307C108.623 52.972 108.106 52.8876 108.095 53.1619C106.412 54.6052 104.628 55.9273 102.757 57.1181C101.958 57.6303 101.092 58.028 100.183 58.2997C100.156 58.3185 100.134 58.3444 100.121 58.3746C100.108 58.4048 100.103 58.4381 100.107 58.4709C100.112 58.5036 100.125 58.5345 100.146 58.5601C100.166 58.5858 100.194 58.6052 100.225 58.6162ZM108.085 53.183C108.094 53.2408 108.124 53.2932 108.169 53.3307C108.141 53.3182 108.116 53.2975 108.099 53.2712C108.082 53.2449 108.074 53.2142 108.074 53.183H108.085ZM58.3732 71.3712C58.3599 71.4159 58.3646 71.4641 58.3862 71.5055C58.4079 71.5469 58.4449 71.5782 58.4892 71.5927C58.7424 71.7193 59.1117 71.9303 59.5442 72.0886C60.3355 72.4051 61.1267 72.3945 61.3799 71.5822C61.5121 70.754 61.5121 69.91 61.3799 69.0818C61.2875 68.2871 61.107 67.5051 60.8419 66.7503C60.8335 66.7027 60.8066 66.6604 60.767 66.6327C60.7274 66.605 60.6785 66.5942 60.6309 66.6026C60.5833 66.611 60.541 66.6379 60.5133 66.6775C60.4856 66.7171 60.4748 66.766 60.4832 66.8136V68.4594C60.5696 69.421 60.5696 70.3884 60.4832 71.3501C60.4832 71.445 60.3777 71.4661 60.2933 71.4767C59.3649 71.5716 58.4787 71.0441 58.3732 71.3712ZM57.7718 67.0879C57.7765 66.8918 57.8049 66.6969 57.8562 66.5076C57.8846 66.4564 57.9027 66.4 57.9093 66.3418C57.9159 66.2835 57.911 66.2246 57.8948 66.1683C57.8787 66.1119 57.8516 66.0593 57.8151 66.0135C57.7786 65.9676 57.7334 65.9294 57.6822 65.901C57.6309 65.8726 57.5746 65.8546 57.5163 65.8479C57.4581 65.8413 57.3991 65.8462 57.3428 65.8624C57.2865 65.8786 57.2339 65.9057 57.188 65.9422C57.1422 65.9786 57.1039 66.0238 57.0755 66.0751C56.9377 66.4094 56.8695 66.7684 56.8751 67.1301C56.8959 67.237 56.9545 67.3329 57.0402 67.4001C57.1259 67.4674 57.2329 67.5016 57.3417 67.4965C57.4505 67.4914 57.5539 67.4473 57.6328 67.3723C57.7118 67.2972 57.7612 67.1963 57.7718 67.0879ZM63.6376 67.0773C63.6483 66.9974 63.6364 66.9161 63.6032 66.8425C63.5701 66.769 63.5171 66.7062 63.4502 66.6612C63.3832 66.6162 63.3051 66.5909 63.2245 66.588C63.1439 66.585 63.0641 66.6047 62.9941 66.6448C62.6037 66.8452 62.7725 67.3833 62.7725 67.6998C62.7725 67.8173 62.8192 67.93 62.9023 68.0131C62.9854 68.0962 63.0981 68.1429 63.2156 68.1429C63.3332 68.1429 63.4459 68.0962 63.529 68.0131C63.6121 67.93 63.6587 67.8173 63.6587 67.6998C63.6412 67.4928 63.6342 67.285 63.6376 67.0773ZM56.432 63.7435C56.894 63.6877 57.3623 63.7163 57.814 63.8279C58.869 64.0284 58.869 64.1972 58.964 64.0284C59.0589 63.8596 58.4048 63.2266 58.0778 63.0683C57.5174 62.8365 56.9022 62.7706 56.3054 62.8784C55.6724 62.9945 54.7545 63.5747 54.8811 63.8174C55.0077 64.06 55.0077 63.8596 56.432 63.7435ZM63.2367 64.693L63.5743 64.8091C63.6798 64.8091 64.3445 64.9779 64.4183 64.8829C64.4922 64.788 64.144 64.1655 63.8592 63.9967C62.9624 63.4692 62.0973 64.0917 62.2345 64.3765C62.5623 64.5009 62.8969 64.6066 63.2367 64.693ZM58.7108 74.3146C58.4466 74.2693 58.1928 74.1763 57.9617 74.0403C57.6769 73.8996 57.414 73.7184 57.181 73.5023C56.7696 73.1541 56.3476 72.8271 56.2632 72.7321C56.2382 72.6978 56.2019 72.6734 56.1606 72.6633C56.1194 72.6532 56.0759 72.6581 56.0379 72.6771C55.9999 72.6961 55.9699 72.728 55.9532 72.767C55.9365 72.8061 55.9342 72.8498 55.9467 72.8904C56.1788 74.2935 57.6663 75.2747 58.7952 74.6628C59.08 74.6206 58.9429 74.2619 58.7108 74.3146ZM201.716 100.225C202.001 100.225 202.339 100.225 202.433 99.8667C202.792 98.5691 203.098 96.227 202.085 95.3408C199.585 93.1675 120.312 95.1192 119.31 95.4885C118.308 95.8577 118.255 98.8117 118.445 100.078C118.445 100.384 118.962 100.51 119.257 100.584C117.717 110.427 118.761 159.189 119.057 169.877C116.43 168.072 108.982 163.251 105.848 162.745C105.268 162.66 105.848 160.35 104.34 159.58C104.123 159.47 103.873 159.448 103.641 159.519C103.409 159.59 103.213 159.748 103.095 159.96C102.758 160.518 102.486 161.112 102.282 161.732C102.04 161.943 101.153 161.869 100.837 161.837C98.5371 161.595 96.0789 160.782 95.4248 161.996C95.3067 162.249 95.2687 162.532 95.3158 162.807C95.363 163.082 95.493 163.337 95.6885 163.536C96.8174 164.591 101.386 165.878 102.588 166.384C103.643 168.421 109.604 184.246 119.816 191.082C119.88 192.485 120.365 203.837 121.072 204.67C122.011 205.725 137.308 205.441 138.595 205.557C147.035 206.263 183.043 203.985 204.069 203.447C204.269 203.447 204.554 203.288 204.723 202.824C207.002 196.325 203.425 114.489 201.716 100.225ZM118.846 99.9933C118.593 98.2315 119.004 95.9738 119.426 95.7733C119.848 95.5729 197.496 94.3385 201.505 95.9843C201.768 96.3442 201.899 96.7841 201.874 97.2292C201.902 97.9396 201.828 98.6502 201.653 99.3392C201.558 99.3392 142.214 100.785 135.188 100.774C133.595 100.816 120.101 100.858 118.846 100.036V99.9933ZM192.126 176.892C194.236 180.669 197.042 189.552 198.266 193.72C194.595 194.047 180.584 195.418 178.295 195.914C178.19 195.914 178.295 196.093 177.873 193.804C177.641 192.527 176.628 188.392 176.575 188.181C176.058 186.187 175.826 185.596 175.52 184.478C175.506 184.436 175.477 184.402 175.439 184.38C175.401 184.359 175.356 184.352 175.314 184.361C175.271 184.37 175.233 184.395 175.207 184.43C175.181 184.465 175.169 184.508 175.172 184.552C175.299 185.607 175.436 186.83 175.647 187.906C175.647 188.012 179.181 203.436 179.213 203.542C175.879 203.7 140.916 205.472 137.825 204.702C138.131 201.294 138.532 198.288 138.944 195.756C138.944 195.65 142.921 175.194 142.974 174.951C142.984 174.908 142.978 174.862 142.956 174.823C142.935 174.784 142.9 174.754 142.857 174.74C142.815 174.726 142.769 174.727 142.728 174.745C142.687 174.762 142.655 174.795 142.636 174.835C141.267 178.396 140.483 182.154 140.315 185.965C138.912 184.414 127.349 171.607 126.6 170.246C130.577 166.78 135.032 163.905 139.83 161.711C144.313 159.614 149.11 158.267 154.03 157.723C153.449 158.101 152.964 158.611 152.616 159.21C152.226 160.086 153.186 161.415 154.114 161.753C160.286 164.011 165.329 162.47 168.125 159.316C168.737 158.63 168.705 158.483 168.726 158.082C178.96 160.92 186.524 166.69 192.126 176.934V176.892ZM179.983 203.183C179.456 201.073 179.266 199.596 178.706 196.779C179.044 196.726 196.42 194.669 198.456 194.426C199.299 197.072 199.927 199.782 200.334 202.529C197.58 202.666 182.705 203.552 179.983 203.183ZM154.136 145.865C155.054 142.62 156.478 139.54 158.356 136.739C160.138 137.245 162.027 137.245 163.81 136.739C163.662 137.435 164.39 137.794 165.076 138.026C164.92 138.273 164.814 138.548 164.765 138.836C164.716 139.124 164.725 139.419 164.791 139.704C164.836 139.97 164.943 140.222 165.102 140.439C165.261 140.657 165.469 140.835 165.709 140.959C166.06 141.132 166.438 141.242 166.827 141.286C166.628 141.648 166.523 142.054 166.523 142.468C166.523 142.881 166.628 143.287 166.827 143.649C167.018 143.949 167.274 144.201 167.576 144.388C167.396 144.555 167.24 144.747 167.112 144.957C166.458 146.245 166.11 148.418 167.492 148.893C167.725 148.962 167.977 148.937 168.192 148.822C168.407 148.708 168.569 148.513 168.642 148.281C169.074 147.363 169.844 147.046 170.235 147.943C170.741 149.093 168.716 150.201 168.178 151.108C167.924 151.52 167.429 152.026 167.724 152.627C167.84 152.87 167.798 152.627 167.808 153.176C167.914 158.588 168.083 158.071 167.481 158.746C164.907 161.616 160.212 163.051 154.41 160.92C154.149 160.803 153.919 160.628 153.736 160.408C153.553 160.189 153.423 159.931 153.355 159.654C153.355 159.569 153.408 159.495 153.481 159.4C154.148 158.689 154.907 158.072 155.739 157.565C156.066 157.322 156.14 157.164 156.319 156.51C156.499 155.856 156.562 155.244 156.689 154.864C157.279 153.102 152.395 153.165 154.136 145.865ZM164.506 125.334C163.997 125.046 163.418 124.904 162.833 124.924C162.249 124.945 161.681 125.127 161.193 125.45C158.102 125.567 126.231 126.875 123.519 125.45C123.446 124.891 123.382 123.193 123.34 120.914C125.566 121.695 137.688 121.705 140.051 121.716C141.76 121.716 171.87 121.041 176.776 120.84C178.96 120.745 197.042 119.785 197.528 119.69C197.559 121.147 197.513 122.605 197.391 124.058C197.391 124.058 179.403 124.786 164.506 125.334ZM197.433 114.173C146.993 115.312 125.144 116.029 123.256 115.228V109.552C127.476 110.607 165.656 109.71 168.99 109.615C172.577 109.509 194.964 108.56 197.253 108.412C197.285 110.29 197.38 112.263 197.433 114.173ZM123.266 115.65C126.8 116.81 166.701 115.808 169.117 115.744C172.735 115.639 195.492 114.626 197.443 114.531C197.443 116.251 197.517 117.907 197.528 119.353C166.69 120.175 126.115 121.832 123.33 120.555C123.298 119.089 123.277 117.401 123.266 115.65ZM197.222 108.064C156.763 108.982 125.482 109.942 123.235 109.214V104.414C127.307 105.532 166.099 104.561 169 104.477C171.733 104.403 194.32 103.496 196.916 103.306C197.053 104.667 197.148 106.302 197.222 108.064ZM196.947 102.916C156.224 103.844 125.355 104.804 123.298 104.045C123.298 103.211 123.298 101.935 123.424 101.08C138.427 101.998 171.849 100.985 196.726 100.405C196.81 101.133 196.895 102.198 196.947 102.916ZM119.605 100.7C120.748 100.879 121.9 100.999 123.055 101.059C122.665 105.163 122.675 123.889 122.918 125.63C122.931 125.713 122.965 125.792 123.017 125.858C123.068 125.924 123.136 125.977 123.213 126.01C124.126 126.316 125.079 126.49 126.041 126.527C125.785 130.196 125.891 133.882 126.357 137.53C122.971 137.942 122.644 143.153 127.212 142.352C130.482 142.204 129.807 137.562 126.748 137.509C126.991 133.853 126.875 130.181 126.4 126.548C133.985 127.107 148.206 126.716 155.813 126.474C155.307 126.786 154.858 127.182 154.484 127.645C152.732 129.67 154.273 133.31 156.056 135.273C156.52 135.78 157.079 136.193 157.701 136.486C154.536 141.138 150.707 149.082 154.536 153.229C155.026 153.638 155.478 154.09 155.887 154.579C155.718 155.128 155.549 156.288 155.338 156.795C155.053 156.995 155.127 156.963 154.98 156.974C149.622 157.472 144.396 158.918 139.545 161.247C134.677 163.507 130.175 166.484 126.189 170.077C126.051 170.214 126.083 170.351 127.634 172.187L124.596 174.202C123.118 172.784 121.515 171.502 119.806 170.372C119.447 159.516 118.16 110.68 119.605 100.7ZM126.653 138.395C127.107 138.385 127.551 138.536 127.904 138.822C128.258 139.108 128.499 139.51 128.583 139.957C128.921 141.392 127.676 142.478 125.735 141.803C123.794 141.128 124.669 138.459 126.653 138.395ZM109.625 178.422C107.26 174.493 105.193 170.391 103.443 166.152C103.274 165.804 103.253 165.73 102.567 165.477C100.5 164.864 98.485 164.084 96.5431 163.146C96.4264 163.072 96.32 162.983 96.2266 162.882C96.0789 162.439 96.2266 162.375 96.5325 162.312C97.9146 162.07 100.753 163.019 102.187 162.713C102.412 162.699 102.626 162.614 102.799 162.47C102.972 162.326 103.094 162.13 103.147 161.911C103.221 161.721 103.707 160.244 103.97 160.371C105.099 160.941 104.224 163.357 105.732 163.589C109.33 164.106 122.327 172.303 124.374 174.687C124.413 174.726 124.466 174.748 124.522 174.748C124.577 174.748 124.63 174.726 124.669 174.687L127.834 172.482C130.736 176.006 137.256 183.412 140.22 186.757C139.988 187.558 134.333 192.97 131.495 193.403C122.116 194.848 114.626 186.546 109.625 178.422ZM121.694 204.122C121.188 202.571 120.713 193.298 120.639 191.652C123.881 193.764 127.789 194.602 131.611 194.004C134.101 193.582 138.279 189.784 139.967 187.78C138.596 193.328 137.637 198.97 137.097 204.66C129.607 204.797 124.089 204.67 121.694 204.122ZM203.858 202.634L201.231 202.708C201.41 199.933 195.808 181.819 192.896 176.512C187.178 166.121 179.466 160.16 168.726 157.28C168.726 156.446 168.726 155.581 168.589 153.25C168.777 153.251 168.964 153.21 169.135 153.132C169.306 153.054 169.458 152.939 169.581 152.796C169.935 153.072 170.352 153.256 170.794 153.334C172.429 153.619 175.077 152.005 174.877 150.612C175.723 150.635 176.556 150.396 177.261 149.926C178.474 149.167 179.888 147.542 179.709 146.202C179.529 144.862 179.107 145.643 180.141 144.979C181.153 144.272 181.867 143.216 182.146 142.014C182.272 141.237 182.244 140.443 182.063 139.678C181.882 138.912 181.552 138.189 181.091 137.551C180.928 137.327 180.708 137.15 180.454 137.039C180.2 136.928 179.921 136.886 179.645 136.918C179.54 136.918 179.561 136.992 179.899 136.338C180.004 136.162 180.079 135.969 180.12 135.768C180.17 135.06 180.062 134.349 179.805 133.687C179.548 133.025 179.147 132.428 178.633 131.939C178.321 131.614 177.92 131.39 177.48 131.294C177.041 131.198 176.582 131.235 176.164 131.401C176.164 131.401 175.7 131.601 175.552 131.643C175.552 131.264 175.605 130.736 175.552 130.588C175.477 130.021 175.271 129.479 174.951 129.005C174.63 128.53 174.204 128.137 173.706 127.856C172.506 127.403 171.182 127.403 169.982 127.856C169.67 127.064 169.087 126.41 168.336 126.01C169.022 126.01 197.032 124.955 197.728 124.955C197.822 124.95 197.912 124.915 197.986 124.857C198.06 124.798 198.113 124.718 198.14 124.628C198.762 122.37 197.971 103.886 197.559 100.363L200.883 100.278C202.855 116.662 205.862 196.452 203.858 202.634Z" fill="#4B0082"/>
<path d="M157.301 141.972L157.786 141.286C157.853 141.19 157.879 141.07 157.858 140.955C157.838 140.839 157.772 140.736 157.675 140.669C157.579 140.602 157.459 140.576 157.344 140.596C157.228 140.617 157.125 140.683 157.058 140.78L156.562 141.465C156.495 141.563 156.469 141.684 156.491 141.801C156.513 141.917 156.58 142.021 156.678 142.088C156.776 142.155 156.897 142.181 157.013 142.159C157.13 142.137 157.233 142.07 157.301 141.972ZM157.944 146.793C158.134 146.93 158.334 146.635 158.134 146.498C157.49 145.918 157.163 145.622 157.016 145.443C156.868 145.263 156.952 145.306 157.016 145.19C157.216 144.715 158.071 143.681 159.368 141.708C159.399 141.672 159.414 141.625 159.41 141.577C159.406 141.53 159.384 141.486 159.347 141.455C159.311 141.424 159.264 141.409 159.216 141.413C159.169 141.417 159.125 141.44 159.094 141.476C158.365 142.054 157.703 142.712 157.121 143.438C155.423 145.59 155.971 145.865 157.944 146.793ZM161.035 144.177C161.13 143.945 161.32 143.639 161.436 143.386C161.46 143.332 161.474 143.275 161.476 143.216C161.478 143.157 161.468 143.099 161.448 143.044C161.427 142.989 161.396 142.939 161.356 142.896C161.316 142.853 161.268 142.819 161.215 142.795C161.161 142.77 161.104 142.757 161.045 142.755C160.987 142.753 160.928 142.763 160.873 142.783C160.818 142.804 160.768 142.835 160.725 142.875C160.683 142.915 160.648 142.963 160.624 143.016C160.518 143.248 160.339 143.533 160.212 143.839C160.19 143.893 160.179 143.951 160.179 144.009C160.179 144.068 160.191 144.126 160.214 144.18C160.236 144.233 160.269 144.282 160.31 144.323C160.352 144.365 160.401 144.397 160.455 144.419C160.509 144.442 160.567 144.453 160.625 144.453C160.684 144.452 160.742 144.441 160.795 144.418C160.849 144.396 160.898 144.363 160.939 144.321C160.981 144.28 161.013 144.231 161.035 144.177ZM157.49 150.465C157.817 150.517 158.152 150.492 158.467 150.391C158.782 150.29 159.069 150.117 159.305 149.884C159.519 149.639 159.661 149.34 159.717 149.019C159.735 148.999 159.748 148.975 159.755 148.949C159.763 148.923 159.764 148.896 159.76 148.869C159.755 148.843 159.745 148.818 159.729 148.796C159.714 148.774 159.693 148.755 159.67 148.742C159.646 148.729 159.62 148.722 159.593 148.72C159.566 148.719 159.539 148.723 159.514 148.734C159.489 148.744 159.467 148.76 159.449 148.78C159.431 148.8 159.418 148.824 159.411 148.85C159.044 149.143 158.635 149.378 158.197 149.547C157.739 149.665 157.267 149.719 156.794 149.705C156.772 149.692 156.747 149.683 156.722 149.68C156.696 149.677 156.67 149.68 156.646 149.687C156.621 149.695 156.598 149.709 156.579 149.726C156.56 149.744 156.545 149.765 156.535 149.789C156.525 149.813 156.521 149.838 156.522 149.864C156.522 149.89 156.529 149.915 156.54 149.938C156.552 149.961 156.568 149.982 156.588 149.998C156.609 150.014 156.632 150.026 156.657 150.032C156.895 150.243 157.181 150.392 157.49 150.465ZM163.272 178.39C160.961 176.597 158.429 177.283 156.446 179.445C154.832 176.112 151.846 175.088 148.228 177.895C142.773 182.115 152.237 193.931 153.503 194.342C153.611 194.384 153.732 194.384 153.84 194.342C154.294 194.099 164.939 188.381 165.445 182.8C165.51 181.938 165.342 181.075 164.96 180.299C164.578 179.524 163.995 178.865 163.272 178.39Z" fill="#4B0082"/>
<path d="M114.404 29.5C114.433 29.5053 114.499 29.608 114.6 29.808C114.701 30.0053 114.825 30.2613 114.972 30.576L115.1 30.844C115.156 30.7827 115.208 30.712 115.256 30.632C115.304 30.5493 115.364 30.4387 115.436 30.3C115.519 30.1427 115.576 30.0413 115.608 29.996C115.736 29.8013 115.875 29.5947 116.024 29.376C116.043 29.3467 116.076 29.3267 116.124 29.316C116.132 29.3133 116.145 29.312 116.164 29.312C116.228 29.312 116.299 29.3387 116.376 29.392C116.456 29.4453 116.508 29.5 116.532 29.556C116.537 29.5667 116.54 29.5867 116.54 29.616C116.54 29.6427 116.539 29.6627 116.536 29.676C116.531 29.7 116.524 29.7307 116.516 29.768C116.511 29.8027 116.505 29.844 116.5 29.892C116.415 30.5427 116.353 31.0307 116.316 31.356C116.305 31.4307 116.3 31.5147 116.3 31.608L116.292 31.736C116.289 31.7627 116.288 31.7933 116.288 31.828C116.288 31.8627 116.284 31.8867 116.276 31.9C116.268 31.9133 116.253 31.92 116.232 31.92C116.216 31.92 116.192 31.916 116.16 31.908C116.075 31.8893 116.009 31.856 115.964 31.808C115.919 31.7573 115.893 31.688 115.888 31.6C115.885 31.5547 115.884 31.484 115.884 31.388C115.884 31.2893 115.887 31.1387 115.892 30.936L115.896 30.716L115.904 30.4C115.88 30.4213 115.819 30.5053 115.72 30.652C115.624 30.796 115.529 30.9467 115.436 31.104C115.343 31.2613 115.281 31.3827 115.252 31.468C115.225 31.5347 115.199 31.584 115.172 31.616C115.148 31.648 115.119 31.664 115.084 31.664C115.052 31.664 115.011 31.6493 114.96 31.62C114.816 31.532 114.728 31.4107 114.696 31.256C114.645 31.0187 114.583 30.772 114.508 30.516C114.495 30.468 114.468 30.4027 114.428 30.32C114.391 30.2373 114.367 30.1853 114.356 30.164L114.304 30.06C113.915 30.5773 113.651 31.052 113.512 31.484C113.485 31.5747 113.46 31.64 113.436 31.68C113.412 31.7173 113.384 31.736 113.352 31.736C113.301 31.736 113.229 31.6907 113.136 31.6C113.064 31.536 113.028 31.464 113.028 31.384C113.028 31.3413 113.036 31.2987 113.052 31.256C113.164 30.9253 113.331 30.612 113.552 30.316L113.676 30.152C113.844 29.9307 113.971 29.7573 114.056 29.632C114.12 29.5387 114.205 29.492 114.312 29.492C114.331 29.492 114.361 29.4947 114.404 29.5ZM118.037 31.796C118.013 31.7853 117.989 31.78 117.965 31.78C117.941 31.78 117.92 31.7867 117.901 31.8C117.885 31.8107 117.867 31.828 117.845 31.852C117.813 31.884 117.78 31.9107 117.745 31.932C117.713 31.9507 117.655 31.968 117.569 31.984C117.532 31.9893 117.501 31.992 117.477 31.992C117.365 31.992 117.248 31.968 117.125 31.92C117.005 31.8693 116.92 31.8093 116.869 31.74C116.816 31.6653 116.791 31.5853 116.793 31.5C116.796 31.372 116.849 31.244 116.953 31.116C117.055 30.9933 117.147 30.9067 117.229 30.856C117.315 30.8053 117.431 30.7733 117.577 30.76C117.609 30.76 117.655 30.7547 117.713 30.744C117.775 30.7333 117.805 30.7187 117.805 30.7C117.805 30.6627 117.788 30.6293 117.753 30.6C117.721 30.568 117.655 30.552 117.553 30.552C117.516 30.552 117.46 30.5547 117.385 30.56C117.311 30.5653 117.259 30.568 117.229 30.568C117.139 30.568 117.073 30.5533 117.033 30.524C117.023 30.5187 117.017 30.4933 117.017 30.448C117.017 30.368 117.045 30.3173 117.101 30.296C117.216 30.2533 117.335 30.2307 117.457 30.228C117.612 30.228 117.755 30.2627 117.885 30.332C118.019 30.3987 118.116 30.4827 118.177 30.584C118.239 30.6853 118.279 30.8253 118.297 31.004C118.319 31.204 118.329 31.4587 118.329 31.768C118.329 31.8533 118.317 31.9027 118.293 31.916C118.272 31.9293 118.252 31.936 118.233 31.936C118.209 31.936 118.187 31.9293 118.165 31.916C118.147 31.9 118.125 31.8787 118.101 31.852C118.077 31.8227 118.056 31.804 118.037 31.796ZM117.405 31.748C117.531 31.7107 117.653 31.6507 117.773 31.568C117.8 31.5493 117.824 31.5253 117.845 31.496C117.867 31.4667 117.88 31.448 117.885 31.44C117.891 31.432 117.895 31.4093 117.897 31.372C117.903 31.332 117.904 31.3 117.901 31.276C117.899 31.268 117.893 31.2467 117.885 31.212C117.88 31.1773 117.871 31.1467 117.857 31.12C117.844 31.0987 117.823 31.0787 117.793 31.06C117.764 31.0413 117.737 31.0333 117.713 31.036C117.663 31.0387 117.608 31.0573 117.549 31.092C117.491 31.1267 117.436 31.1733 117.385 31.232C117.335 31.2933 117.295 31.356 117.265 31.42C117.239 31.4813 117.225 31.5387 117.225 31.592C117.231 31.664 117.251 31.712 117.285 31.736C117.304 31.7493 117.327 31.756 117.353 31.756C117.375 31.756 117.392 31.7533 117.405 31.748ZM120.259 31.48C120.269 31.4853 120.315 31.512 120.395 31.56C120.312 31.616 120.228 31.644 120.143 31.644C120.095 31.644 120.048 31.6373 120.003 31.624C119.957 31.608 119.912 31.5907 119.867 31.572C119.821 31.5533 119.787 31.5387 119.763 31.528C119.685 31.496 119.565 31.4293 119.403 31.328C119.36 31.296 119.317 31.2693 119.275 31.248L119.163 31.192C119.157 31.208 119.147 31.2307 119.131 31.26C119.117 31.2893 119.111 31.3147 119.111 31.336V31.58C119.111 31.796 119.115 31.9587 119.123 32.068C119.128 32.1213 119.131 32.1573 119.131 32.176C119.131 32.208 119.124 32.2333 119.111 32.252C119.1 32.2733 119.079 32.2893 119.047 32.3C119.017 32.3107 118.981 32.3053 118.939 32.284C118.896 32.2627 118.857 32.2333 118.823 32.196C118.791 32.1587 118.775 32.124 118.775 32.092C118.761 31.8253 118.755 31.5853 118.755 31.372C118.76 30.6333 118.768 29.896 118.779 29.16C118.779 29.096 118.801 29.0427 118.847 29C118.895 28.9547 118.952 28.932 119.019 28.932C119.088 28.932 119.148 28.9587 119.199 29.012C119.249 29.0627 119.272 29.1213 119.267 29.188C119.251 29.3507 119.224 29.5213 119.187 29.7C119.181 29.7187 119.179 29.744 119.179 29.776C119.179 29.824 119.199 29.848 119.239 29.848C119.255 29.848 119.283 29.8413 119.323 29.828C119.379 29.8093 119.428 29.8 119.471 29.8C119.593 29.7947 119.688 29.8187 119.755 29.872C119.824 29.9253 119.859 30 119.859 30.096C119.859 30.1813 119.832 30.272 119.779 30.368C119.709 30.496 119.611 30.6373 119.483 30.792C119.443 30.84 119.423 30.8827 119.423 30.92C119.423 30.9573 119.451 31.0027 119.507 31.056C119.608 31.144 119.717 31.22 119.835 31.284C119.955 31.348 120.096 31.4133 120.259 31.48ZM121.13 30.44C121.154 30.4373 121.174 30.4373 121.19 30.44C121.206 30.44 121.22 30.44 121.234 30.44C121.252 30.4373 121.28 30.436 121.318 30.436C121.499 30.436 121.678 30.488 121.854 30.592C121.931 30.64 121.97 30.6907 121.97 30.744C121.97 30.8027 121.93 30.8547 121.85 30.9C121.783 30.94 121.714 30.9867 121.642 31.04C121.514 31.1253 121.404 31.192 121.314 31.24C121.226 31.288 121.128 31.3213 121.022 31.34C121.006 31.3453 120.988 31.36 120.97 31.384C120.954 31.4053 120.947 31.4213 120.95 31.432C120.955 31.448 120.964 31.4813 120.978 31.532C120.991 31.58 121.006 31.6213 121.022 31.656C121.04 31.688 121.062 31.7147 121.086 31.736C121.112 31.7573 121.152 31.768 121.206 31.768C121.259 31.768 121.308 31.76 121.354 31.744C121.514 31.6693 121.666 31.576 121.81 31.464C121.852 31.4347 121.89 31.42 121.922 31.42C121.962 31.42 122.004 31.4413 122.05 31.484C122.082 31.5133 122.098 31.544 122.098 31.576C122.098 31.6107 122.072 31.6533 122.022 31.704C121.795 31.9253 121.554 32.036 121.298 32.036C121.228 32.036 121.143 32.0227 121.042 31.996C120.871 31.9533 120.74 31.8587 120.65 31.712C120.559 31.5653 120.514 31.3973 120.514 31.208C120.514 31.1493 120.518 31.0933 120.526 31.04C120.528 31.0213 120.534 30.9827 120.542 30.924C120.552 30.8627 120.568 30.812 120.59 30.772C120.691 30.572 120.871 30.4613 121.13 30.44ZM121.362 30.728C121.314 30.712 121.271 30.704 121.234 30.704C121.172 30.704 121.124 30.7227 121.09 30.76C121.055 30.7973 121.027 30.8533 121.006 30.928C121.07 30.936 121.138 30.92 121.21 30.88C121.284 30.8373 121.335 30.7867 121.362 30.728ZM125.06 30.14C125.046 30.1667 125.004 30.24 124.932 30.36C124.998 30.4 125.045 30.4253 125.072 30.436C125.213 30.4893 125.318 30.5707 125.388 30.68C125.46 30.7867 125.496 30.9053 125.496 31.036C125.496 31.164 125.462 31.2907 125.396 31.416C125.23 31.7227 124.964 31.968 124.596 32.152C124.505 32.1973 124.416 32.22 124.328 32.22C124.2 32.22 124.081 32.1747 123.972 32.084C123.929 32.0493 123.878 32.0107 123.82 31.968C123.814 31.984 123.808 32.0027 123.8 32.024C123.794 32.048 123.788 32.0653 123.78 32.076C123.748 32.124 123.708 32.148 123.66 32.148C123.617 32.148 123.578 32.1307 123.544 32.096C123.448 32.008 123.4 31.908 123.4 31.796C123.4 31.7107 123.398 31.636 123.396 31.572C123.393 31.508 123.39 31.4547 123.388 31.412C123.385 31.3587 123.382 31.292 123.38 31.212C123.377 31.132 123.376 31.0387 123.376 30.932C123.376 30.7293 123.386 30.548 123.408 30.388C123.437 30.1533 123.493 29.9333 123.576 29.728C123.64 29.5733 123.734 29.452 123.86 29.364C123.988 29.276 124.138 29.224 124.312 29.208C124.392 29.2027 124.453 29.2 124.496 29.2C124.693 29.2 124.858 29.2427 124.992 29.328C125.061 29.3707 125.114 29.4267 125.152 29.496C125.192 29.5653 125.212 29.64 125.212 29.72C125.212 29.7867 125.197 29.8533 125.168 29.92L125.128 30C125.109 30.0427 125.086 30.0893 125.06 30.14ZM124.744 29.808C124.757 29.7733 124.769 29.716 124.78 29.636L124.792 29.548C124.712 29.5133 124.636 29.496 124.564 29.496C124.502 29.496 124.445 29.5053 124.392 29.524C124.277 29.5613 124.181 29.6187 124.104 29.696C124.029 29.7707 123.969 29.8533 123.924 29.944C123.881 30.0347 123.838 30.1467 123.796 30.28C123.764 30.384 123.748 30.5 123.748 30.628C123.748 30.6973 123.753 30.7987 123.764 30.932C123.769 30.972 123.774 31.0373 123.78 31.128C123.782 31.2 123.797 31.348 123.824 31.572L123.84 31.704C123.856 31.7093 123.882 31.7147 123.92 31.72C123.97 31.7253 124.009 31.736 124.036 31.752C124.06 31.7653 124.084 31.788 124.108 31.82C124.132 31.8493 124.15 31.872 124.164 31.888C124.324 31.856 124.46 31.7907 124.572 31.692C124.686 31.5933 124.798 31.4653 124.908 31.308C124.99 31.18 125.042 31.0653 125.064 30.964C125.072 30.924 125.076 30.888 125.076 30.856C125.076 30.784 125.056 30.7293 125.016 30.692C124.978 30.6547 124.926 30.636 124.86 30.636C124.82 30.636 124.782 30.6413 124.748 30.652C124.628 30.6867 124.505 30.7627 124.38 30.88C124.316 30.936 124.252 30.964 124.188 30.964C124.148 30.964 124.106 30.952 124.064 30.928C124.013 30.8987 123.97 30.8667 123.936 30.832C123.901 30.7973 123.872 30.752 123.848 30.696L123.94 30.632C124.036 30.5627 124.109 30.5133 124.16 30.484C124.418 30.3453 124.613 30.12 124.744 29.808ZM127.675 31.592C127.673 31.5707 127.661 31.5213 127.639 31.444L127.603 31.324L127.351 31.608L127.255 31.712C127.125 31.8533 127.027 31.9573 126.963 32.024C126.937 32.048 126.906 32.068 126.871 32.084C126.837 32.1 126.806 32.1067 126.779 32.104C126.723 32.0933 126.674 32.068 126.631 32.028C126.589 31.9907 126.561 31.9427 126.547 31.884C126.435 31.388 126.329 30.908 126.227 30.444C126.214 30.3773 126.195 30.3227 126.171 30.28C126.147 30.2373 126.11 30.2013 126.059 30.172C126.003 30.14 125.975 30.084 125.975 30.004C125.975 29.9693 125.977 29.9427 125.979 29.924C125.99 29.844 126.041 29.7893 126.131 29.76C126.147 29.752 126.167 29.748 126.191 29.748C126.218 29.748 126.241 29.7547 126.259 29.768C126.345 29.8293 126.414 29.8893 126.467 29.948C126.521 30.0067 126.554 30.0827 126.567 30.176C126.594 30.3573 126.645 30.6293 126.719 30.992L126.771 31.24C126.774 31.2507 126.779 31.264 126.787 31.28C126.798 31.2933 126.807 31.3067 126.815 31.32C126.962 31.232 127.087 31.128 127.191 31.008C127.298 30.8853 127.419 30.724 127.555 30.524C127.659 30.3693 127.745 30.2493 127.811 30.164L128.027 30.472C128.019 30.5067 128.005 30.556 127.983 30.62C127.949 30.7453 127.921 30.8533 127.899 30.944C127.881 31.032 127.877 31.1093 127.887 31.176C127.898 31.2427 127.925 31.3067 127.967 31.368C128.005 31.36 128.033 31.3467 128.051 31.328C128.07 31.3067 128.083 31.2867 128.091 31.268C128.102 31.2467 128.11 31.232 128.115 31.224C128.153 31.1547 128.201 31.0453 128.259 30.896C128.465 30.36 128.761 29.8187 129.147 29.272C129.179 29.2267 129.222 29.2027 129.275 29.2C129.329 29.1947 129.351 29.22 129.343 29.276C129.338 29.332 129.315 29.4093 129.275 29.508C129.238 29.6067 129.215 29.6747 129.207 29.712C129.199 29.7493 129.19 29.78 129.179 29.804C129.147 29.876 129.131 29.908 129.131 29.9C129.134 29.8893 129.126 29.9027 129.107 29.94C129.001 30.1533 128.914 30.3427 128.847 30.508C128.773 30.684 128.675 30.956 128.555 31.324L128.507 31.472C128.483 31.5493 128.449 31.6227 128.403 31.692C128.361 31.7613 128.305 31.8387 128.235 31.924C128.203 31.972 128.162 31.996 128.111 31.996C128.087 31.996 128.059 31.9893 128.027 31.976C127.923 31.9333 127.842 31.884 127.783 31.828C127.725 31.772 127.689 31.6933 127.675 31.592ZM130.572 31.792C130.644 31.7787 130.794 31.748 131.02 31.7L131.328 31.636C131.363 31.6707 131.392 31.7013 131.416 31.728C131.44 31.7547 131.452 31.7773 131.452 31.796C131.452 31.8173 131.442 31.8387 131.42 31.86C131.399 31.8813 131.356 31.916 131.292 31.964C131.284 31.9693 131.275 31.9787 131.264 31.992C131.256 32.0053 131.247 32.0133 131.236 32.016L131.128 32.044C131.038 32.0707 130.956 32.0907 130.884 32.104C130.815 32.12 130.744 32.128 130.672 32.128C130.416 32.128 130.207 32.052 130.044 31.9C129.983 31.844 129.935 31.788 129.9 31.732C129.868 31.6733 129.852 31.6107 129.852 31.544C129.852 31.5147 129.854 31.4933 129.856 31.48C129.899 31.216 129.947 30.992 130 30.808C130.056 30.6053 130.158 30.2613 130.304 29.776C130.336 29.6613 130.387 29.4893 130.456 29.26C130.475 29.1987 130.5 29.156 130.532 29.132C130.567 29.108 130.616 29.0987 130.68 29.104C130.694 29.104 130.706 29.1053 130.716 29.108C130.73 29.1107 130.743 29.112 130.756 29.112C130.922 29.1253 131.004 29.2053 131.004 29.352C131.004 29.3893 130.999 29.428 130.988 29.468C130.967 29.5533 130.927 29.668 130.868 29.812C130.652 30.3613 130.486 30.8907 130.368 31.4C130.352 31.464 130.344 31.5307 130.344 31.6C130.344 31.7307 130.402 31.796 130.516 31.796C130.54 31.796 130.559 31.7947 130.572 31.792ZM132.909 31.596C132.915 31.5587 132.917 31.504 132.917 31.432L132.913 31.196L132.865 30.5L132.861 30.44C132.861 30.2987 132.921 30.228 133.041 30.228C133.071 30.228 133.096 30.2387 133.117 30.26C133.141 30.2813 133.163 30.292 133.181 30.292C133.221 30.292 133.256 30.2747 133.285 30.24C133.317 30.2027 133.351 30.1653 133.385 30.128C133.441 30.0693 133.507 30.0227 133.581 29.988C133.659 29.9533 133.736 29.936 133.813 29.936C133.888 29.936 133.948 29.9453 133.993 29.964C134.007 29.9693 134.021 29.9813 134.037 30C134.056 30.016 134.065 30.0293 134.065 30.04C134.065 30.0507 134.057 30.0667 134.041 30.088C134.028 30.1067 134.016 30.1173 134.005 30.12C133.901 30.1413 133.811 30.1853 133.733 30.252C133.659 30.3187 133.609 30.38 133.585 30.436C133.564 30.4893 133.532 30.5893 133.489 30.736C133.465 30.8187 133.447 30.904 133.433 30.992C133.423 31.0773 133.419 31.1867 133.421 31.32C133.419 31.3333 133.417 31.352 133.417 31.376C133.417 31.4107 133.42 31.4573 133.425 31.516C133.431 31.58 133.433 31.6253 133.433 31.652C133.433 31.7853 133.419 31.8613 133.389 31.88C133.347 31.9013 133.291 31.912 133.221 31.912C133.165 31.912 133.12 31.9053 133.085 31.892C132.965 31.8467 132.905 31.764 132.905 31.644C132.905 31.6227 132.907 31.6067 132.909 31.596ZM134.501 30.32C134.568 30.3387 134.614 30.3613 134.641 30.388C134.67 30.4147 134.685 30.4507 134.685 30.496C134.685 30.5173 134.681 30.5453 134.673 30.58C134.644 30.7 134.628 30.82 134.625 30.94C134.622 31.076 134.644 31.2013 134.689 31.316C134.705 31.356 134.72 31.3853 134.733 31.404C134.749 31.42 134.768 31.428 134.789 31.428C134.816 31.428 134.85 31.404 134.893 31.356C134.992 31.2387 135.065 31.1213 135.113 31.004C135.161 30.8867 135.19 30.7653 135.201 30.64C135.209 30.5573 135.222 30.5053 135.241 30.484C135.252 30.4733 135.269 30.4667 135.293 30.464C135.317 30.4613 135.352 30.46 135.397 30.46C135.469 30.4653 135.518 30.472 135.545 30.48C135.574 30.488 135.594 30.5013 135.605 30.52C135.616 30.5387 135.621 30.5693 135.621 30.612L135.617 30.8C135.617 30.84 135.616 30.8987 135.613 30.976C135.605 31.216 135.598 31.3947 135.593 31.512C135.59 31.6053 135.562 31.7227 135.509 31.864C135.504 31.872 135.489 31.884 135.465 31.9C135.441 31.9133 135.42 31.9213 135.401 31.924C135.396 31.924 135.384 31.916 135.365 31.9C135.349 31.8813 135.337 31.8653 135.329 31.852C135.31 31.8093 135.289 31.752 135.265 31.68L135.233 31.604L135.225 31.58L135.213 31.592L135.149 31.632C135.117 31.6587 135.082 31.68 135.045 31.696C134.984 31.7333 134.91 31.752 134.825 31.752C134.718 31.752 134.617 31.7227 134.521 31.664C134.425 31.6027 134.349 31.52 134.293 31.416C134.202 31.256 134.157 31.0707 134.157 30.86C134.157 30.7533 134.172 30.6187 134.201 30.456C134.206 30.416 134.232 30.3813 134.277 30.352C134.317 30.3227 134.364 30.308 134.417 30.308C134.444 30.308 134.472 30.312 134.501 30.32ZM136.695 30.492C136.695 30.508 136.693 30.5293 136.687 30.556C136.682 30.58 136.681 30.596 136.683 30.604C136.867 30.564 137.023 30.544 137.151 30.544C137.351 30.544 137.502 30.64 137.603 30.832C137.686 30.9947 137.727 31.1747 137.727 31.372C137.727 31.4227 137.722 31.496 137.711 31.592C137.703 31.656 137.678 31.708 137.635 31.748C137.593 31.7853 137.542 31.804 137.483 31.804C137.422 31.804 137.378 31.7933 137.351 31.772C137.327 31.748 137.313 31.7213 137.307 31.692C137.305 31.6627 137.303 31.616 137.303 31.552L137.299 31.468C137.294 31.308 137.283 31.1693 137.267 31.052C137.259 31.004 137.241 30.9707 137.211 30.952C137.185 30.9307 137.149 30.92 137.103 30.92C137.061 30.92 137.01 30.9267 136.951 30.94C136.861 30.964 136.799 30.9827 136.767 30.996C136.738 31.0093 136.694 31.0373 136.635 31.08C136.617 31.0933 136.603 31.12 136.595 31.16C136.587 31.2 136.583 31.2227 136.583 31.228C136.549 31.3987 136.511 31.6027 136.471 31.84C136.469 31.8507 136.463 31.876 136.455 31.916C136.447 31.956 136.431 31.984 136.407 32C136.386 32.0187 136.354 32.0253 136.311 32.02C136.143 31.9987 136.058 31.928 136.055 31.808C136.053 31.6533 136.065 31.4707 136.091 31.26C136.11 31.108 136.127 30.9853 136.143 30.892C136.149 30.8493 136.155 30.7973 136.163 30.736C136.174 30.6747 136.183 30.604 136.191 30.524C136.199 30.4627 136.207 30.4173 136.215 30.388C136.223 30.3587 136.242 30.3347 136.271 30.316C136.301 30.2947 136.346 30.284 136.407 30.284C136.485 30.284 136.549 30.3013 136.599 30.336C136.65 30.3707 136.682 30.42 136.695 30.484V30.492ZM113.972 36.468C114.047 36.348 114.113 36.2493 114.172 36.172C114.231 36.092 114.307 36.052 114.4 36.052C114.413 36.052 114.441 36.0547 114.484 36.06C114.572 36.076 114.635 36.1107 114.672 36.164C114.712 36.2147 114.749 36.2907 114.784 36.392C114.816 36.4827 114.844 36.5493 114.868 36.592L114.984 36.184C115.032 36.0187 115.061 35.8 115.072 35.528C115.085 35.4853 115.108 35.4493 115.14 35.42C115.175 35.3907 115.22 35.376 115.276 35.376C115.3 35.376 115.321 35.38 115.34 35.388C115.388 35.4093 115.424 35.432 115.448 35.456C115.475 35.4773 115.488 35.5107 115.488 35.556C115.488 35.5773 115.487 35.5947 115.484 35.608C115.465 35.7013 115.428 35.8787 115.372 36.14L115.256 36.676C115.251 36.708 115.245 36.7347 115.24 36.756C115.232 36.8227 115.22 36.8773 115.204 36.92C115.191 36.96 115.164 36.9933 115.124 37.02C115.084 37.0493 115.045 37.0627 115.008 37.06C114.909 37.052 114.816 37.0213 114.728 36.968C114.643 36.912 114.576 36.836 114.528 36.74C114.504 36.692 114.481 36.652 114.46 36.62C114.441 36.5853 114.415 36.5507 114.38 36.516C114.372 36.5347 114.359 36.576 114.34 36.64C114.3 36.7547 114.271 36.8307 114.252 36.868C114.236 36.9 114.212 36.9307 114.18 36.96C114.151 36.9867 114.121 37.0013 114.092 37.004C114.044 37.0093 114.009 37.012 113.988 37.012C113.895 37.012 113.821 36.9893 113.768 36.944C113.717 36.896 113.671 36.8147 113.628 36.7L113.548 36.468C113.5 36.316 113.455 36.2027 113.412 36.128C113.369 36.0533 113.311 35.9533 113.236 35.828C113.225 35.8147 113.216 35.7947 113.208 35.768C113.2 35.7387 113.199 35.7213 113.204 35.716C113.215 35.708 113.233 35.6933 113.26 35.672C113.289 35.648 113.316 35.6307 113.34 35.62C113.367 35.6067 113.391 35.6 113.412 35.6C113.508 35.6 113.595 35.6773 113.672 35.832C113.749 35.984 113.813 36.104 113.864 36.192L113.972 36.468ZM116.384 35.44C116.408 35.4373 116.428 35.4373 116.444 35.44C116.46 35.44 116.474 35.44 116.488 35.44C116.506 35.4373 116.534 35.436 116.572 35.436C116.753 35.436 116.932 35.488 117.108 35.592C117.185 35.64 117.224 35.6907 117.224 35.744C117.224 35.8027 117.184 35.8547 117.104 35.9C117.037 35.94 116.968 35.9867 116.896 36.04C116.768 36.1253 116.658 36.192 116.568 36.24C116.48 36.288 116.382 36.3213 116.275 36.34C116.26 36.3453 116.242 36.36 116.224 36.384C116.208 36.4053 116.201 36.4213 116.204 36.432C116.209 36.448 116.218 36.4813 116.232 36.532C116.245 36.58 116.26 36.6213 116.275 36.656C116.294 36.688 116.316 36.7147 116.34 36.736C116.366 36.7573 116.406 36.768 116.46 36.768C116.513 36.768 116.562 36.76 116.608 36.744C116.768 36.6693 116.92 36.576 117.064 36.464C117.106 36.4347 117.144 36.42 117.176 36.42C117.216 36.42 117.258 36.4413 117.304 36.484C117.336 36.5133 117.352 36.544 117.352 36.576C117.352 36.6107 117.326 36.6533 117.276 36.704C117.049 36.9253 116.808 37.036 116.552 37.036C116.482 37.036 116.397 37.0227 116.296 36.996C116.125 36.9533 115.994 36.8587 115.904 36.712C115.813 36.5653 115.768 36.3973 115.768 36.208C115.768 36.1493 115.772 36.0933 115.78 36.04C115.782 36.0213 115.788 35.9827 115.796 35.924C115.806 35.8627 115.822 35.812 115.844 35.772C115.945 35.572 116.125 35.4613 116.384 35.44ZM116.616 35.728C116.568 35.712 116.525 35.704 116.488 35.704C116.426 35.704 116.378 35.7227 116.344 35.76C116.309 35.7973 116.281 35.8533 116.26 35.928C116.324 35.936 116.392 35.92 116.464 35.88C116.538 35.8373 116.589 35.7867 116.616 35.728ZM118.066 35.312C118.066 35.3627 118.059 35.432 118.046 35.52C118.035 35.6213 118.028 35.7027 118.026 35.764C118.058 35.7507 118.095 35.72 118.138 35.672C118.162 35.6453 118.186 35.6227 118.21 35.604C118.327 35.5213 118.439 35.48 118.546 35.48C118.658 35.48 118.776 35.5267 118.902 35.62C119.091 35.7587 119.186 35.9213 119.186 36.108C119.186 36.2547 119.124 36.4093 119.002 36.572C118.826 36.8093 118.578 36.952 118.258 37C118.242 37.0027 118.218 37.004 118.186 37.004C118.135 37.004 118.051 36.9933 117.934 36.972C117.934 36.9453 117.93 36.916 117.922 36.884C117.94 36.876 117.964 36.8653 117.994 36.852C118.026 36.836 118.054 36.8267 118.078 36.824C118.16 36.816 118.252 36.7733 118.354 36.696C118.458 36.616 118.548 36.524 118.626 36.42C118.703 36.316 118.747 36.2253 118.758 36.148C118.76 36.1373 118.763 36.1227 118.766 36.104C118.768 36.0853 118.77 36.0627 118.77 36.036C118.77 36.0093 118.766 35.9867 118.758 35.968C118.715 35.8693 118.666 35.804 118.61 35.772C118.594 35.764 118.566 35.7733 118.526 35.8C118.486 35.824 118.454 35.8507 118.43 35.88C118.254 36.072 118.15 36.292 118.118 36.54C118.107 36.636 118.052 36.6827 117.954 36.68C117.874 36.68 117.8 36.648 117.734 36.584C117.667 36.5173 117.634 36.444 117.634 36.364C117.631 35.9613 117.63 35.3587 117.63 34.556C117.63 34.4893 117.648 34.444 117.686 34.42C117.726 34.3933 117.783 34.372 117.858 34.356C117.89 34.348 117.926 34.3547 117.966 34.376C118.006 34.3973 118.04 34.4253 118.07 34.46C118.099 34.4947 118.114 34.5293 118.114 34.564C118.114 34.7213 118.102 34.9173 118.078 35.152L118.066 35.312ZM120.403 36.528C120.371 36.6587 120.317 36.76 120.243 36.832C120.168 36.904 120.08 36.94 119.979 36.94C119.848 36.94 119.717 36.884 119.587 36.772C119.688 36.7187 119.752 36.6867 119.779 36.676C119.848 36.644 119.903 36.6 119.943 36.544C119.985 36.488 120.007 36.4253 120.007 36.356C120.007 36.332 120.005 36.3133 120.003 36.3C119.995 36.2413 119.981 36.1787 119.963 36.112C119.944 36.0427 119.932 35.9973 119.927 35.976C119.913 35.9307 119.896 35.8627 119.875 35.772C119.859 35.7053 119.844 35.6373 119.831 35.568C119.817 35.4987 119.811 35.4373 119.811 35.384C119.811 35.296 119.829 35.216 119.867 35.144C119.907 35.0693 119.973 34.9987 120.067 34.932C120.107 34.9027 120.152 34.8773 120.203 34.856C120.256 34.8347 120.307 34.8227 120.355 34.82C120.389 34.8147 120.428 34.8213 120.471 34.84C120.516 34.8587 120.544 34.8813 120.555 34.908C120.565 34.932 120.561 34.9667 120.543 35.012C120.524 35.0547 120.501 35.0867 120.475 35.108C120.32 35.2227 120.248 35.3507 120.259 35.492C120.264 35.572 120.285 35.6893 120.323 35.844C120.349 35.9427 120.368 36.028 120.379 36.1C120.381 36.1213 120.388 36.164 120.399 36.228C120.412 36.292 120.419 36.3507 120.419 36.404C120.419 36.452 120.413 36.4933 120.403 36.528ZM121.334 35.136C121.328 35.152 121.308 35.1693 121.274 35.188C121.242 35.2067 121.215 35.224 121.194 35.24L121.082 35.18C120.972 35.1213 120.898 35.0747 120.858 35.04C120.836 35.024 120.826 35.004 120.826 34.98C120.826 34.964 120.831 34.9507 120.842 34.94C120.855 34.9267 120.874 34.92 120.898 34.92C121.002 34.92 121.128 34.9467 121.278 35C121.294 35.0027 121.308 35.0213 121.322 35.056C121.335 35.088 121.339 35.1147 121.334 35.136ZM120.974 35.88C120.982 35.8453 120.987 35.82 120.99 35.804C120.992 35.788 120.994 35.7707 120.994 35.752C120.994 35.7147 121.004 35.6853 121.026 35.664C121.05 35.6427 121.094 35.632 121.158 35.632C121.232 35.632 121.298 35.656 121.354 35.704C121.412 35.7493 121.448 35.8093 121.462 35.884C121.47 35.9213 121.475 35.9627 121.478 36.008C121.48 36.0533 121.482 36.0827 121.482 36.096L121.538 36.78C121.546 36.852 121.535 36.908 121.506 36.948C121.479 36.9853 121.427 37.004 121.35 37.004C121.283 37.004 121.226 36.9853 121.178 36.948C121.132 36.9107 121.104 36.8627 121.094 36.804L120.99 35.956L120.974 35.88ZM121.816 35.508C121.797 35.4867 121.784 35.464 121.776 35.44C121.77 35.416 121.765 35.3827 121.76 35.34C121.784 35.284 121.828 35.256 121.892 35.256C121.924 35.2613 121.946 35.264 121.96 35.264C122.013 35.264 122.046 35.248 122.06 35.216C122.073 35.184 122.08 35.1467 122.08 35.104C122.08 35.0613 122.08 35.028 122.08 35.004L122.092 34.764C122.094 34.7107 122.097 34.6453 122.1 34.568C122.105 34.488 122.11 34.396 122.116 34.292C122.118 34.236 122.132 34.1947 122.156 34.168C122.182 34.1413 122.218 34.128 122.264 34.128C122.296 34.128 122.321 34.1307 122.34 34.136C122.449 34.16 122.522 34.1947 122.56 34.24C122.597 34.2853 122.622 34.3533 122.636 34.444C122.638 34.4627 122.636 34.5013 122.628 34.56L122.556 35.184C122.553 35.2 122.549 35.22 122.544 35.244C122.538 35.2653 122.536 35.2813 122.536 35.292C122.536 35.316 122.549 35.332 122.576 35.34C122.602 35.348 122.652 35.3507 122.724 35.348C122.846 35.3213 122.94 35.304 123.004 35.296C123.017 35.2933 123.038 35.292 123.068 35.292C123.1 35.292 123.121 35.296 123.132 35.304C123.142 35.3093 123.15 35.3253 123.156 35.352C123.164 35.376 123.168 35.404 123.168 35.436C123.168 35.4653 123.164 35.492 123.156 35.516C123.15 35.54 123.142 35.5533 123.132 35.556C123.06 35.5773 122.974 35.5947 122.876 35.608C122.758 35.6293 122.672 35.648 122.616 35.664C122.586 35.672 122.557 35.692 122.528 35.724C122.498 35.756 122.482 35.7853 122.48 35.812C122.474 35.9427 122.47 36.076 122.468 36.212C122.465 36.316 122.469 36.42 122.48 36.524C122.488 36.612 122.505 36.676 122.532 36.716C122.558 36.7533 122.598 36.772 122.652 36.772C122.694 36.772 122.756 36.7573 122.836 36.728C122.878 36.7093 122.916 36.7 122.948 36.7C122.998 36.7 123.034 36.728 123.056 36.784C123.064 36.8027 123.068 36.8213 123.068 36.84C123.068 36.8747 123.054 36.9027 123.028 36.924C123.004 36.9453 122.97 36.964 122.928 36.98C122.848 37.0093 122.766 37.0253 122.684 37.028C122.572 37.028 122.466 37.0013 122.368 36.948C122.269 36.892 122.19 36.8147 122.132 36.716C122.076 36.6173 122.052 36.504 122.06 36.376C122.062 36.3253 122.064 36.2453 122.064 36.136C122.064 35.9627 122.057 35.7867 122.044 35.608C122.041 35.592 122.032 35.5813 122.016 35.576C122 35.568 121.973 35.56 121.936 35.552C121.874 35.5413 121.834 35.5267 121.816 35.508ZM123.977 35.44C124.001 35.4373 124.021 35.4373 124.037 35.44C124.053 35.44 124.068 35.44 124.081 35.44C124.1 35.4373 124.128 35.436 124.165 35.436C124.347 35.436 124.525 35.488 124.701 35.592C124.779 35.64 124.817 35.6907 124.817 35.744C124.817 35.8027 124.777 35.8547 124.697 35.9C124.631 35.94 124.561 35.9867 124.489 36.04C124.361 36.1253 124.252 36.192 124.161 36.24C124.073 36.288 123.976 36.3213 123.869 36.34C123.853 36.3453 123.836 36.36 123.817 36.384C123.801 36.4053 123.795 36.4213 123.797 36.432C123.803 36.448 123.812 36.4813 123.825 36.532C123.839 36.58 123.853 36.6213 123.869 36.656C123.888 36.688 123.909 36.7147 123.933 36.736C123.96 36.7573 124 36.768 124.053 36.768C124.107 36.768 124.156 36.76 124.201 36.744C124.361 36.6693 124.513 36.576 124.657 36.464C124.7 36.4347 124.737 36.42 124.769 36.42C124.809 36.42 124.852 36.4413 124.897 36.484C124.929 36.5133 124.945 36.544 124.945 36.576C124.945 36.6107 124.92 36.6533 124.869 36.704C124.643 36.9253 124.401 37.036 124.145 37.036C124.076 37.036 123.991 37.0227 123.889 36.996C123.719 36.9533 123.588 36.8587 123.497 36.712C123.407 36.5653 123.361 36.3973 123.361 36.208C123.361 36.1493 123.365 36.0933 123.373 36.04C123.376 36.0213 123.381 35.9827 123.389 35.924C123.4 35.8627 123.416 35.812 123.437 35.772C123.539 35.572 123.719 35.4613 123.977 35.44ZM124.209 35.728C124.161 35.712 124.119 35.704 124.081 35.704C124.02 35.704 123.972 35.7227 123.937 35.76C123.903 35.7973 123.875 35.8533 123.853 35.928C123.917 35.936 123.985 35.92 124.057 35.88C124.132 35.8373 124.183 35.7867 124.209 35.728ZM127.159 37.764C127.111 37.916 127.037 37.992 126.935 37.992C126.871 37.992 126.795 37.964 126.707 37.908C126.763 37.7747 126.791 37.6227 126.791 37.452C126.791 37.364 126.785 37.2747 126.771 37.184C126.758 37.096 126.738 36.988 126.711 36.86L126.695 36.768C126.677 36.6747 126.661 36.6133 126.647 36.584C126.634 36.5547 126.613 36.536 126.583 36.528C126.554 36.52 126.493 36.5147 126.399 36.512L126.351 36.508C126.295 36.5107 126.246 36.5013 126.203 36.48C126.163 36.456 126.143 36.4213 126.143 36.376C126.143 36.344 126.163 36.308 126.203 36.268C126.243 36.228 126.285 36.2 126.327 36.184C126.405 36.1573 126.461 36.1293 126.495 36.1C126.53 36.068 126.547 36.0267 126.547 35.976C126.547 35.9413 126.537 35.8947 126.515 35.836C126.478 35.6893 126.459 35.5587 126.459 35.444C126.47 35.2413 126.491 35.0613 126.523 34.904C126.534 34.8507 126.565 34.8053 126.615 34.768C126.669 34.728 126.722 34.708 126.775 34.708C126.786 34.708 126.802 34.7107 126.823 34.716C126.893 34.7347 126.934 34.7587 126.947 34.788C126.963 34.8173 126.982 34.8533 127.003 34.896C127.022 34.936 127.018 34.976 126.991 35.016C126.858 35.216 126.841 35.504 126.939 35.88C126.95 35.92 126.966 35.952 126.987 35.976C127.011 36 127.047 36.012 127.095 36.012C127.143 36.012 127.191 36.0027 127.239 35.984C127.314 35.9573 127.37 35.944 127.407 35.944C127.463 35.944 127.514 35.9667 127.559 36.012C127.575 36.0307 127.589 36.0533 127.599 36.08C127.613 36.104 127.618 36.1267 127.615 36.148C127.613 36.172 127.577 36.1973 127.507 36.224C127.387 36.264 127.267 36.3 127.147 36.332C127.107 36.3427 127.079 36.3573 127.063 36.376C127.047 36.3947 127.039 36.4213 127.039 36.456C127.039 36.4827 127.041 36.504 127.043 36.52C127.097 36.8373 127.145 37.1693 127.187 37.516C127.195 37.596 127.186 37.6787 127.159 37.764ZM128.892 36.732C128.81 36.7827 128.715 36.808 128.608 36.808C128.491 36.808 128.378 36.7787 128.268 36.72C128.162 36.6587 128.076 36.572 128.012 36.46C127.948 36.348 127.922 36.22 127.932 36.076L127.952 35.98C127.968 35.884 127.982 35.8133 127.992 35.768C128.016 35.6693 128.064 35.6 128.136 35.56C128.208 35.52 128.304 35.488 128.424 35.464C128.502 35.448 128.578 35.44 128.652 35.44C128.887 35.44 129.084 35.5187 129.244 35.676C129.33 35.7613 129.372 35.8653 129.372 35.988C129.372 36.108 129.328 36.2373 129.24 36.376C129.139 36.5333 129.023 36.652 128.892 36.732ZM128.556 35.644C128.514 35.748 128.468 35.8773 128.42 36.032L128.38 36.152L128.408 36.164C128.408 36.1827 128.408 36.212 128.408 36.252C128.411 36.2893 128.416 36.3213 128.424 36.348C128.454 36.4307 128.487 36.4813 128.524 36.5C128.54 36.508 128.563 36.504 128.592 36.488C128.624 36.472 128.652 36.4533 128.676 36.432C128.714 36.4 128.774 36.3333 128.856 36.232C128.918 36.1627 128.948 36.08 128.948 35.984C128.948 35.9013 128.924 35.8267 128.876 35.76C128.831 35.6933 128.767 35.648 128.684 35.624C128.676 35.6213 128.662 35.62 128.64 35.62C128.59 35.62 128.562 35.628 128.556 35.644ZM130.212 35.304C130.22 35.3307 130.222 35.372 130.216 35.428L130.168 35.9C130.182 35.8893 130.202 35.852 130.228 35.788C130.255 35.7213 130.28 35.668 130.304 35.628C130.328 35.5853 130.347 35.5573 130.36 35.544C130.486 35.424 130.627 35.352 130.784 35.328C130.942 35.304 131.115 35.2933 131.304 35.296C131.323 35.296 131.343 35.304 131.364 35.32C131.388 35.3333 131.4 35.3453 131.4 35.356C131.4 35.364 131.392 35.3787 131.376 35.4C131.36 35.4187 131.346 35.4307 131.332 35.436C131.172 35.4893 131.031 35.5507 130.908 35.62C130.788 35.6893 130.684 35.78 130.596 35.892C130.388 36.156 130.268 36.428 130.236 36.708C130.228 36.7827 130.206 36.8333 130.168 36.86C130.131 36.884 130.079 36.896 130.012 36.896C129.938 36.896 129.871 36.864 129.812 36.8C129.754 36.736 129.724 36.6653 129.724 36.588C129.727 36.3053 129.728 35.8813 129.728 35.316C129.728 35.2387 129.746 35.1853 129.78 35.156C129.815 35.124 129.878 35.108 129.968 35.108C130.035 35.108 130.091 35.1267 130.136 35.164C130.184 35.2013 130.21 35.248 130.212 35.304ZM133.643 36.14C133.635 36.1347 133.622 36.124 133.603 36.108C133.585 36.092 133.567 36.0813 133.551 36.076C133.253 35.9667 133.029 35.756 132.879 35.444C132.81 35.3 132.722 35.076 132.615 34.772L132.579 34.672C132.569 34.6347 132.563 34.6013 132.563 34.572C132.563 34.5293 132.571 34.5027 132.587 34.492C132.609 34.476 132.645 34.468 132.695 34.468C132.719 34.468 132.75 34.4707 132.787 34.476C132.811 34.4787 132.841 34.488 132.875 34.504C132.91 34.5173 132.937 34.528 132.955 34.536C132.993 34.5493 133.019 34.5693 133.035 34.596C133.054 34.62 133.067 34.6533 133.075 34.696C133.142 35.056 133.263 35.388 133.439 35.692C133.477 35.7507 133.53 35.808 133.599 35.864C133.655 35.9067 133.699 35.928 133.731 35.928C133.779 35.928 133.827 35.892 133.875 35.82L134.047 35.564C134.151 35.4013 134.266 35.2307 134.391 35.052C134.487 34.9133 134.599 34.844 134.727 34.844C134.81 34.844 134.895 34.872 134.983 34.928C135.031 34.9547 135.055 34.9933 135.055 35.044C135.055 35.0813 135.038 35.1133 135.003 35.14C134.843 35.268 134.702 35.412 134.579 35.572C134.457 35.7293 134.318 35.9307 134.163 36.176L134.099 36.276L133.971 36.476C133.707 36.8893 133.487 37.2307 133.311 37.5C133.303 37.5107 133.287 37.5333 133.263 37.568C133.242 37.6027 133.218 37.6293 133.191 37.648C133.165 37.6693 133.134 37.68 133.099 37.68C133.033 37.704 132.983 37.7173 132.951 37.72C132.919 37.7227 132.895 37.728 132.879 37.736L132.851 37.716L133.643 36.14ZM136.898 35.644C136.922 35.692 136.943 35.7467 136.962 35.808C136.983 35.8667 136.998 35.9053 137.006 35.924L137.042 36.028C137.01 36.18 136.978 36.3053 136.946 36.404C136.914 36.5 136.867 36.5907 136.806 36.676C136.745 36.7587 136.661 36.8267 136.554 36.88C136.455 36.9307 136.35 36.956 136.238 36.956C136.115 36.956 135.997 36.928 135.882 36.872C135.77 36.816 135.675 36.7387 135.598 36.64C135.521 36.5387 135.475 36.4253 135.462 36.3C135.457 36.236 135.454 36.1867 135.454 36.152C135.454 36.0587 135.467 35.9733 135.494 35.896C135.523 35.8187 135.574 35.748 135.646 35.684C135.667 35.6653 135.691 35.6293 135.718 35.576C135.742 35.528 135.765 35.492 135.786 35.468C135.898 35.348 136.031 35.288 136.186 35.288C136.263 35.288 136.354 35.3053 136.458 35.34C136.471 35.3453 136.515 35.3613 136.59 35.388C136.667 35.4147 136.731 35.4493 136.782 35.492C136.833 35.5347 136.871 35.5853 136.898 35.644ZM136.202 35.512C136.103 35.592 136.033 35.688 135.99 35.8C135.95 35.9093 135.914 36.0573 135.882 36.244C135.887 36.2653 135.899 36.3107 135.918 36.38C135.937 36.4493 135.959 36.5133 135.986 36.572C136.015 36.644 136.067 36.68 136.142 36.68C136.155 36.68 136.181 36.6773 136.218 36.672C136.301 36.656 136.373 36.6093 136.434 36.532C136.498 36.452 136.547 36.3587 136.582 36.252C136.617 36.1453 136.634 36.0467 136.634 35.956C136.634 35.7773 136.561 35.6267 136.414 35.504C136.377 35.4747 136.343 35.46 136.314 35.46C136.282 35.46 136.245 35.4773 136.202 35.512ZM137.786 35.32C137.853 35.3387 137.9 35.3613 137.926 35.388C137.956 35.4147 137.97 35.4507 137.97 35.496C137.97 35.5173 137.966 35.5453 137.958 35.58C137.929 35.7 137.913 35.82 137.91 35.94C137.908 36.076 137.929 36.2013 137.974 36.316C137.99 36.356 138.005 36.3853 138.018 36.404C138.034 36.42 138.053 36.428 138.074 36.428C138.101 36.428 138.136 36.404 138.178 36.356C138.277 36.2387 138.35 36.1213 138.398 36.004C138.446 35.8867 138.476 35.7653 138.486 35.64C138.494 35.5573 138.508 35.5053 138.526 35.484C138.537 35.4733 138.554 35.4667 138.578 35.464C138.602 35.4613 138.637 35.46 138.682 35.46C138.754 35.4653 138.804 35.472 138.83 35.48C138.86 35.488 138.88 35.5013 138.89 35.52C138.901 35.5387 138.906 35.5693 138.906 35.612L138.902 35.8C138.902 35.84 138.901 35.8987 138.898 35.976C138.89 36.216 138.884 36.3947 138.878 36.512C138.876 36.6053 138.848 36.7227 138.794 36.864C138.789 36.872 138.774 36.884 138.75 36.9C138.726 36.9133 138.705 36.9213 138.686 36.924C138.681 36.924 138.669 36.916 138.65 36.9C138.634 36.8813 138.622 36.8653 138.614 36.852C138.596 36.8093 138.574 36.752 138.55 36.68L138.518 36.604L138.51 36.58L138.498 36.592L138.434 36.632C138.402 36.6587 138.368 36.68 138.33 36.696C138.269 36.7333 138.196 36.752 138.11 36.752C138.004 36.752 137.902 36.7227 137.806 36.664C137.71 36.6027 137.634 36.52 137.578 36.416C137.488 36.256 137.442 36.0707 137.442 35.86C137.442 35.7533 137.457 35.6187 137.486 35.456C137.492 35.416 137.517 35.3813 137.562 35.352C137.602 35.3227 137.649 35.308 137.702 35.308C137.729 35.308 137.757 35.312 137.786 35.32ZM139.947 35.304C139.955 35.3307 139.956 35.372 139.951 35.428L139.903 35.9C139.916 35.8893 139.936 35.852 139.963 35.788C139.989 35.7213 140.015 35.668 140.039 35.628C140.063 35.5853 140.081 35.5573 140.095 35.544C140.22 35.424 140.361 35.352 140.519 35.328C140.676 35.304 140.849 35.2933 141.039 35.296C141.057 35.296 141.077 35.304 141.099 35.32C141.123 35.3333 141.135 35.3453 141.135 35.356C141.135 35.364 141.127 35.3787 141.111 35.4C141.095 35.4187 141.08 35.4307 141.067 35.436C140.907 35.4893 140.765 35.5507 140.643 35.62C140.523 35.6893 140.419 35.78 140.331 35.892C140.123 36.156 140.003 36.428 139.971 36.708C139.963 36.7827 139.94 36.8333 139.903 36.86C139.865 36.884 139.813 36.896 139.747 36.896C139.672 36.896 139.605 36.864 139.547 36.8C139.488 36.736 139.459 36.6653 139.459 36.588C139.461 36.3053 139.463 35.8813 139.463 35.316C139.463 35.2387 139.48 35.1853 139.515 35.156C139.549 35.124 139.612 35.108 139.703 35.108C139.769 35.108 139.825 35.1267 139.871 35.164C139.919 35.2013 139.944 35.248 139.947 35.304ZM113.676 40.472C113.679 40.52 113.687 40.5747 113.7 40.636L113.716 40.716L113.808 40.652C113.899 40.588 113.969 40.5427 114.02 40.516C114.143 40.4493 114.268 40.416 114.396 40.416C114.556 40.416 114.689 40.4707 114.796 40.58C114.905 40.6867 114.96 40.836 114.96 41.028C114.96 41.188 114.919 41.336 114.836 41.472C114.756 41.608 114.645 41.7267 114.504 41.828C114.349 41.9427 114.191 42 114.028 42C113.887 42 113.747 41.9547 113.608 41.864C113.573 41.848 113.541 41.8307 113.512 41.812C113.451 41.7747 113.4 41.7253 113.36 41.664C113.32 41.6 113.3 41.5173 113.3 41.416C113.3 41.3627 113.304 41.304 113.312 41.24C113.315 41.216 113.311 41.18 113.3 41.132C113.3 41.124 113.297 41.1107 113.292 41.092C113.289 41.0733 113.288 41.0573 113.288 41.044L113.256 40.128C113.248 40.0347 113.232 39.9427 113.208 39.852C113.203 39.836 113.2 39.8133 113.2 39.784C113.2 39.72 113.221 39.6667 113.264 39.624C113.307 39.5813 113.363 39.56 113.432 39.56C113.517 39.56 113.577 39.588 113.612 39.644C113.647 39.7 113.664 39.7707 113.664 39.856L113.668 40.06C113.668 40.1533 113.671 40.2907 113.676 40.472ZM114.308 40.748C113.913 40.9133 113.727 41.24 113.748 41.728C113.785 41.7547 113.821 41.768 113.856 41.768C113.88 41.768 113.905 41.7627 113.932 41.752C113.959 41.7387 113.981 41.7267 114 41.716C114.021 41.7027 114.04 41.692 114.056 41.684C114.181 41.6173 114.287 41.512 114.372 41.368C114.46 41.2213 114.504 41.0787 114.504 40.94C114.504 40.8893 114.499 40.8467 114.488 40.812C114.469 40.7427 114.44 40.708 114.4 40.708C114.381 40.716 114.351 40.7293 114.308 40.748ZM116.192 41.608C116.28 41.4587 116.324 41.2733 116.324 41.052C116.324 40.9853 116.319 40.884 116.308 40.748V40.48V40.336C116.308 40.2507 116.339 40.208 116.4 40.208C116.421 40.208 116.443 40.212 116.464 40.22C116.6 40.2787 116.677 40.3413 116.696 40.408C116.763 40.6267 116.796 40.8413 116.796 41.052C116.796 41.284 116.753 41.5067 116.668 41.72C116.623 41.832 116.552 41.916 116.456 41.972C116.363 42.028 116.259 42.056 116.144 42.056C116.003 42.056 115.879 42.0213 115.772 41.952C115.588 41.8347 115.48 41.6667 115.448 41.448C115.435 41.3387 115.423 41.2547 115.412 41.196C115.385 41.0387 115.368 40.916 115.36 40.828C115.357 40.7667 115.379 40.7173 115.424 40.68C115.469 40.64 115.524 40.62 115.588 40.62C115.612 40.62 115.636 40.624 115.66 40.632C115.759 40.6667 115.827 40.716 115.864 40.78C115.901 40.844 115.919 40.9307 115.916 41.04C115.911 41.1253 115.908 41.1893 115.908 41.232C115.908 41.384 115.939 41.5093 116 41.608C116.011 41.6293 116.025 41.6493 116.044 41.668C116.063 41.6867 116.075 41.6947 116.08 41.692C116.101 41.6893 116.121 41.68 116.14 41.664C116.161 41.648 116.179 41.6293 116.192 41.608ZM117.571 42.088C117.347 42.088 117.205 41.992 117.143 41.8C117.165 41.8 117.193 41.8013 117.227 41.804C117.265 41.804 117.295 41.8067 117.319 41.812C117.357 41.8173 117.383 41.82 117.399 41.82C117.519 41.82 117.619 41.7667 117.699 41.66C117.755 41.5827 117.783 41.504 117.783 41.424C117.783 41.3707 117.77 41.3187 117.743 41.268C117.685 41.164 117.613 41.0493 117.527 40.924C117.471 40.8413 117.421 40.7627 117.375 40.688C117.322 40.6027 117.295 40.508 117.295 40.404C117.295 40.308 117.322 40.224 117.375 40.152C117.431 40.0773 117.513 40.0307 117.619 40.012L117.747 39.988C117.886 39.9613 117.99 39.948 118.059 39.948C118.174 39.948 118.275 39.9747 118.363 40.028C118.382 40.0413 118.401 40.0653 118.419 40.1C118.441 40.132 118.457 40.1573 118.467 40.176C118.449 40.184 118.422 40.1973 118.387 40.216C118.355 40.232 118.327 40.2413 118.303 40.244C118.266 40.2493 118.21 40.252 118.135 40.252C118.063 40.252 118.009 40.2533 117.971 40.256C117.886 40.264 117.818 40.2933 117.767 40.344C117.719 40.392 117.695 40.4507 117.695 40.52C117.695 40.5733 117.711 40.628 117.743 40.684C117.815 40.804 117.915 40.9413 118.043 41.096C118.139 41.216 118.187 41.34 118.187 41.468C118.187 41.5373 118.171 41.6107 118.139 41.688C118.03 41.9547 117.841 42.088 117.571 42.088ZM119.088 40.136C119.082 40.152 119.062 40.1693 119.028 40.188C118.996 40.2067 118.969 40.224 118.948 40.24L118.836 40.18C118.726 40.1213 118.652 40.0747 118.612 40.04C118.59 40.024 118.58 40.004 118.58 39.98C118.58 39.964 118.585 39.9507 118.596 39.94C118.609 39.9267 118.628 39.92 118.652 39.92C118.756 39.92 118.882 39.9467 119.032 40C119.048 40.0027 119.062 40.0213 119.076 40.056C119.089 40.088 119.093 40.1147 119.088 40.136ZM118.728 40.88C118.736 40.8453 118.741 40.82 118.744 40.804C118.746 40.788 118.748 40.7707 118.748 40.752C118.748 40.7147 118.758 40.6853 118.78 40.664C118.804 40.6427 118.848 40.632 118.912 40.632C118.986 40.632 119.052 40.656 119.108 40.704C119.166 40.7493 119.202 40.8093 119.216 40.884C119.224 40.9213 119.229 40.9627 119.232 41.008C119.234 41.0533 119.236 41.0827 119.236 41.096L119.292 41.78C119.3 41.852 119.289 41.908 119.26 41.948C119.233 41.9853 119.181 42.004 119.104 42.004C119.037 42.004 118.98 41.9853 118.932 41.948C118.886 41.9107 118.858 41.8627 118.848 41.804L118.744 40.956L118.728 40.88ZM120.386 40.684C120.386 40.6893 120.388 40.6973 120.394 40.708C120.402 40.7187 120.408 40.728 120.414 40.736L120.542 40.552C120.59 40.4827 120.65 40.4413 120.722 40.428C120.796 40.412 120.859 40.424 120.91 40.464C121.035 40.5627 121.122 40.6733 121.17 40.796L121.246 40.988L121.382 41.7C121.395 41.7747 121.42 41.8573 121.458 41.948C121.479 42.0067 121.494 42.0507 121.502 42.08L121.538 42.216C121.468 42.2373 121.411 42.248 121.366 42.248C121.2 42.248 121.102 42.1733 121.07 42.024C121.04 41.8747 121.006 41.6973 120.966 41.492L120.926 41.284C120.862 41.0893 120.792 40.9933 120.718 40.996C120.643 40.996 120.588 41.0253 120.554 41.084C120.503 41.1667 120.474 41.256 120.466 41.352C120.46 41.4453 120.458 41.5693 120.458 41.724C120.444 41.7827 120.424 41.824 120.398 41.848C120.371 41.8693 120.33 41.88 120.274 41.88C120.146 41.88 120.078 41.8173 120.07 41.692C120.059 41.5427 120.054 41.3747 120.054 41.188C120.054 41.1347 120.048 41.088 120.038 41.048C120.027 41.008 120.003 40.988 119.966 40.988C119.95 40.988 119.928 40.9893 119.902 40.992C119.878 40.9947 119.859 40.9947 119.846 40.992C119.798 40.9813 119.756 40.972 119.722 40.964C119.687 40.956 119.655 40.944 119.626 40.928C119.599 40.9093 119.588 40.8787 119.594 40.836C119.602 40.7907 119.616 40.748 119.638 40.708C119.656 40.6813 119.676 40.656 119.698 40.632C119.722 40.6053 119.752 40.576 119.79 40.544C119.888 40.4587 119.995 40.4147 120.11 40.412C120.195 40.4093 120.256 40.436 120.294 40.492C120.334 40.548 120.364 40.612 120.386 40.684ZM122.395 40.44C122.419 40.4373 122.439 40.4373 122.455 40.44C122.471 40.44 122.486 40.44 122.499 40.44C122.518 40.4373 122.546 40.436 122.583 40.436C122.765 40.436 122.943 40.488 123.119 40.592C123.197 40.64 123.235 40.6907 123.235 40.744C123.235 40.8027 123.195 40.8547 123.115 40.9C123.049 40.94 122.979 40.9867 122.907 41.04C122.779 41.1253 122.67 41.192 122.579 41.24C122.491 41.288 122.394 41.3213 122.287 41.34C122.271 41.3453 122.254 41.36 122.235 41.384C122.219 41.4053 122.213 41.4213 122.215 41.432C122.221 41.448 122.23 41.4813 122.243 41.532C122.257 41.58 122.271 41.6213 122.287 41.656C122.306 41.688 122.327 41.7147 122.351 41.736C122.378 41.7573 122.418 41.768 122.471 41.768C122.525 41.768 122.574 41.76 122.619 41.744C122.779 41.6693 122.931 41.576 123.075 41.464C123.118 41.4347 123.155 41.42 123.187 41.42C123.227 41.42 123.27 41.4413 123.315 41.484C123.347 41.5133 123.363 41.544 123.363 41.576C123.363 41.6107 123.338 41.6533 123.287 41.704C123.061 41.9253 122.819 42.036 122.563 42.036C122.494 42.036 122.409 42.0227 122.307 41.996C122.137 41.9533 122.006 41.8587 121.915 41.712C121.825 41.5653 121.779 41.3973 121.779 41.208C121.779 41.1493 121.783 41.0933 121.791 41.04C121.794 41.0213 121.799 40.9827 121.807 40.924C121.818 40.8627 121.834 40.812 121.855 40.772C121.957 40.572 122.137 40.4613 122.395 40.44ZM122.627 40.728C122.579 40.712 122.537 40.704 122.499 40.704C122.438 40.704 122.39 40.7227 122.355 40.76C122.321 40.7973 122.293 40.8533 122.271 40.928C122.335 40.936 122.403 40.92 122.475 40.88C122.55 40.8373 122.601 40.7867 122.627 40.728ZM123.981 42.088C123.757 42.088 123.615 41.992 123.553 41.8C123.575 41.8 123.603 41.8013 123.637 41.804C123.675 41.804 123.705 41.8067 123.729 41.812C123.767 41.8173 123.793 41.82 123.809 41.82C123.929 41.82 124.029 41.7667 124.109 41.66C124.165 41.5827 124.193 41.504 124.193 41.424C124.193 41.3707 124.18 41.3187 124.153 41.268C124.095 41.164 124.023 41.0493 123.937 40.924C123.881 40.8413 123.831 40.7627 123.785 40.688C123.732 40.6027 123.705 40.508 123.705 40.404C123.705 40.308 123.732 40.224 123.785 40.152C123.841 40.0773 123.923 40.0307 124.029 40.012L124.157 39.988C124.296 39.9613 124.4 39.948 124.469 39.948C124.584 39.948 124.685 39.9747 124.773 40.028C124.792 40.0413 124.811 40.0653 124.829 40.1C124.851 40.132 124.867 40.1573 124.877 40.176C124.859 40.184 124.832 40.1973 124.797 40.216C124.765 40.232 124.737 40.2413 124.713 40.244C124.676 40.2493 124.62 40.252 124.545 40.252C124.473 40.252 124.419 40.2533 124.381 40.256C124.296 40.264 124.228 40.2933 124.177 40.344C124.129 40.392 124.105 40.4507 124.105 40.52C124.105 40.5733 124.121 40.628 124.153 40.684C124.225 40.804 124.325 40.9413 124.453 41.096C124.549 41.216 124.597 41.34 124.597 41.468C124.597 41.5373 124.581 41.6107 124.549 41.688C124.44 41.9547 124.251 42.088 123.981 42.088ZM125.817 41.528C125.785 41.6587 125.731 41.76 125.657 41.832C125.582 41.904 125.494 41.94 125.393 41.94C125.262 41.94 125.131 41.884 125.001 41.772C125.102 41.7187 125.166 41.6867 125.193 41.676C125.262 41.644 125.317 41.6 125.357 41.544C125.399 41.488 125.421 41.4253 125.421 41.356C125.421 41.332 125.419 41.3133 125.417 41.3C125.409 41.2413 125.395 41.1787 125.377 41.112C125.358 41.0427 125.346 40.9973 125.341 40.976C125.327 40.9307 125.31 40.8627 125.289 40.772C125.273 40.7053 125.258 40.6373 125.245 40.568C125.231 40.4987 125.225 40.4373 125.225 40.384C125.225 40.296 125.243 40.216 125.281 40.144C125.321 40.0693 125.387 39.9987 125.481 39.932C125.521 39.9027 125.566 39.8773 125.617 39.856C125.67 39.8347 125.721 39.8227 125.769 39.82C125.803 39.8147 125.842 39.8213 125.885 39.84C125.93 39.8587 125.958 39.8813 125.969 39.908C125.979 39.932 125.975 39.9667 125.957 40.012C125.938 40.0547 125.915 40.0867 125.889 40.108C125.734 40.2227 125.662 40.3507 125.673 40.492C125.678 40.572 125.699 40.6893 125.737 40.844C125.763 40.9427 125.782 41.028 125.793 41.1C125.795 41.1213 125.802 41.164 125.813 41.228C125.826 41.292 125.833 41.3507 125.833 41.404C125.833 41.452 125.827 41.4933 125.817 41.528ZM128.012 40.492C128.012 40.508 128.009 40.5293 128.004 40.556C127.999 40.58 127.997 40.596 128 40.604C128.184 40.564 128.34 40.544 128.468 40.544C128.668 40.544 128.819 40.64 128.92 40.832C129.003 40.9947 129.044 41.1747 129.044 41.372C129.044 41.4227 129.039 41.496 129.028 41.592C129.02 41.656 128.995 41.708 128.952 41.748C128.909 41.7853 128.859 41.804 128.8 41.804C128.739 41.804 128.695 41.7933 128.668 41.772C128.644 41.748 128.629 41.7213 128.624 41.692C128.621 41.6627 128.62 41.616 128.62 41.552L128.616 41.468C128.611 41.308 128.6 41.1693 128.584 41.052C128.576 41.004 128.557 40.9707 128.528 40.952C128.501 40.9307 128.465 40.92 128.42 40.92C128.377 40.92 128.327 40.9267 128.268 40.94C128.177 40.964 128.116 40.9827 128.084 40.996C128.055 41.0093 128.011 41.0373 127.952 41.08C127.933 41.0933 127.92 41.12 127.912 41.16C127.904 41.2 127.9 41.2227 127.9 41.228C127.865 41.3987 127.828 41.6027 127.788 41.84C127.785 41.8507 127.78 41.876 127.772 41.916C127.764 41.956 127.748 41.984 127.724 42C127.703 42.0187 127.671 42.0253 127.628 42.02C127.46 41.9987 127.375 41.928 127.372 41.808C127.369 41.6533 127.381 41.4707 127.408 41.26C127.427 41.108 127.444 40.9853 127.46 40.892C127.465 40.8493 127.472 40.7973 127.48 40.736C127.491 40.6747 127.5 40.604 127.508 40.524C127.516 40.4627 127.524 40.4173 127.532 40.388C127.54 40.3587 127.559 40.3347 127.588 40.316C127.617 40.2947 127.663 40.284 127.724 40.284C127.801 40.284 127.865 40.3013 127.916 40.336C127.967 40.3707 127.999 40.42 128.012 40.484V40.492ZM130.537 41.796C130.513 41.7853 130.489 41.78 130.465 41.78C130.441 41.78 130.42 41.7867 130.401 41.8C130.385 41.8107 130.367 41.828 130.345 41.852C130.313 41.884 130.28 41.9107 130.245 41.932C130.213 41.9507 130.155 41.968 130.069 41.984C130.032 41.9893 130.001 41.992 129.977 41.992C129.865 41.992 129.748 41.968 129.625 41.92C129.505 41.8693 129.42 41.8093 129.369 41.74C129.316 41.6653 129.291 41.5853 129.293 41.5C129.296 41.372 129.349 41.244 129.453 41.116C129.555 40.9933 129.647 40.9067 129.729 40.856C129.815 40.8053 129.931 40.7733 130.077 40.76C130.109 40.76 130.155 40.7547 130.213 40.744C130.275 40.7333 130.305 40.7187 130.305 40.7C130.305 40.6627 130.288 40.6293 130.253 40.6C130.221 40.568 130.155 40.552 130.053 40.552C130.016 40.552 129.96 40.5547 129.885 40.56C129.811 40.5653 129.759 40.568 129.729 40.568C129.639 40.568 129.573 40.5533 129.533 40.524C129.523 40.5187 129.517 40.4933 129.517 40.448C129.517 40.368 129.545 40.3173 129.601 40.296C129.716 40.2533 129.835 40.2307 129.957 40.228C130.112 40.228 130.255 40.2627 130.385 40.332C130.519 40.3987 130.616 40.4827 130.677 40.584C130.739 40.6853 130.779 40.8253 130.797 41.004C130.819 41.204 130.829 41.4587 130.829 41.768C130.829 41.8533 130.817 41.9027 130.793 41.916C130.772 41.9293 130.752 41.936 130.733 41.936C130.709 41.936 130.687 41.9293 130.665 41.916C130.647 41.9 130.625 41.8787 130.601 41.852C130.577 41.8227 130.556 41.804 130.537 41.796ZM129.905 41.748C130.031 41.7107 130.153 41.6507 130.273 41.568C130.3 41.5493 130.324 41.5253 130.345 41.496C130.367 41.4667 130.38 41.448 130.385 41.44C130.391 41.432 130.395 41.4093 130.397 41.372C130.403 41.332 130.404 41.3 130.401 41.276C130.399 41.268 130.393 41.2467 130.385 41.212C130.38 41.1773 130.371 41.1467 130.357 41.12C130.344 41.0987 130.323 41.0787 130.293 41.06C130.264 41.0413 130.237 41.0333 130.213 41.036C130.163 41.0387 130.108 41.0573 130.049 41.092C129.991 41.1267 129.936 41.1733 129.885 41.232C129.835 41.2933 129.795 41.356 129.765 41.42C129.739 41.4813 129.725 41.5387 129.725 41.592C129.731 41.664 129.751 41.712 129.785 41.736C129.804 41.7493 129.827 41.756 129.853 41.756C129.875 41.756 129.892 41.7533 129.905 41.748ZM131.507 38.928C131.685 38.744 131.908 38.6467 132.175 38.636C132.503 38.6733 132.743 38.8307 132.895 39.108C132.924 39.1587 132.939 39.216 132.939 39.28C132.939 39.3333 132.929 39.384 132.911 39.432C132.828 39.6533 132.685 39.8733 132.483 40.092C132.395 40.188 132.349 40.2373 132.347 40.24C132.224 40.3787 132.119 40.492 132.031 40.58C131.943 40.6653 131.847 40.7413 131.743 40.808C131.671 40.856 131.581 40.8933 131.475 40.92C131.456 40.9253 131.433 40.9227 131.407 40.912C131.383 40.9013 131.361 40.8867 131.343 40.868C131.321 40.8493 131.311 40.8267 131.311 40.8C131.311 40.7733 131.324 40.7427 131.351 40.708C131.537 40.484 131.676 40.316 131.767 40.204L131.947 39.992L132.287 39.576C132.348 39.496 132.401 39.3973 132.447 39.28C132.46 39.24 132.467 39.2027 132.467 39.168C132.467 39.1013 132.443 39.0533 132.395 39.024C132.368 39.008 132.332 39 132.287 39C132.247 39 132.209 39.0067 132.175 39.02C132.108 39.044 132.028 39.0973 131.935 39.18C131.879 39.2333 131.808 39.26 131.723 39.26C131.672 39.26 131.624 39.2493 131.579 39.228C131.536 39.204 131.501 39.1707 131.475 39.128C131.459 39.0987 131.451 39.072 131.451 39.048C131.451 39.0053 131.469 38.9653 131.507 38.928ZM131.787 41.988C131.736 41.956 131.7 41.9293 131.679 41.908C131.657 41.8867 131.647 41.8653 131.647 41.844C131.647 41.8227 131.659 41.7987 131.683 41.772C131.707 41.7427 131.745 41.7053 131.799 41.66L132.175 41.92L132.039 42.124C131.897 42.0493 131.813 42.004 131.787 41.988Z" fill="black"/>
<path d="M39.28 103V100.12H40.402C40.574 100.12 40.7207 100.155 40.842 100.226C40.9647 100.297 41.058 100.39 41.122 100.506C41.1873 100.621 41.22 100.745 41.22 100.878C41.22 101.034 41.18 101.171 41.1 101.288C41.02 101.405 40.912 101.486 40.776 101.53L40.772 101.432C40.9573 101.481 41.1013 101.572 41.204 101.704C41.3067 101.836 41.358 101.993 41.358 102.176C41.358 102.344 41.3233 102.489 41.254 102.612C41.186 102.735 41.0873 102.83 40.958 102.898C40.83 102.966 40.678 103 40.502 103H39.28ZM39.64 102.66H40.434C40.5407 102.66 40.636 102.641 40.72 102.602C40.804 102.562 40.87 102.506 40.918 102.434C40.9673 102.362 40.992 102.275 40.992 102.174C40.992 102.077 40.97 101.989 40.926 101.912C40.8833 101.835 40.8227 101.773 40.744 101.728C40.6667 101.681 40.5767 101.658 40.474 101.658H39.64V102.66ZM39.64 101.322H40.398C40.4833 101.322 40.56 101.304 40.628 101.268C40.6973 101.231 40.752 101.179 40.792 101.112C40.8333 101.045 40.854 100.967 40.854 100.878C40.854 100.754 40.812 100.653 40.728 100.574C40.644 100.495 40.534 100.456 40.398 100.456H39.64V101.322ZM42.2495 103L41.4155 100.12H41.7875L42.4275 102.398L43.0655 100.122L43.4395 100.12L44.0795 102.398L44.7175 100.12H45.0915L44.2575 103H43.9015L43.2535 100.742L42.6055 103H42.2495ZM45.4723 103V100.12H45.8283V102.662H47.1643V103H45.4723Z" fill="#4B0082"/>
</svg>
