<svg width="237" height="322" viewBox="0 0 237 322" fill="none" xmlns="http://www.w3.org/2000/svg">
<path fill-rule="evenodd" clip-rule="evenodd" d="M96.1748 136.394C95.9326 136.852 95.2233 141.479 98.0086 141.479C98.4952 141.48 98.9658 141.309 99.3344 140.998C99.7029 140.687 99.9447 140.256 100.015 139.784C100.604 134.598 97.1436 134.614 96.1748 136.394ZM121.26 136.326C121.415 138.123 121.623 139.716 123.457 139.716C123.943 139.717 124.414 139.547 124.783 139.235C125.151 138.924 125.393 138.493 125.464 138.021C125.501 136.931 125.379 135.841 125.1 134.784C124.097 132.97 121 133.411 121.26 136.326ZM109.15 152.7C109.686 152.7 114.34 152.48 115.43 151.649C115.758 151.412 115.724 150.954 115.724 150.531C115.62 145.722 115.146 140.929 114.305 136.191C114.305 135.937 114.08 135.886 113.942 135.92C113.803 135.954 113.734 136.191 113.752 136.598C113.752 137.988 113.63 138.462 114.132 146.242C114.461 151.327 114.322 149.903 114.426 150.751C112.804 151.333 111.138 151.792 109.444 152.124C108.319 152.361 109.115 152.7 109.15 152.7ZM114.617 164.43C113.333 165.104 111.918 165.502 110.465 165.599C110.391 165.599 110.321 165.628 110.269 165.679C110.217 165.729 110.188 165.798 110.188 165.87C110.188 165.942 110.217 166.011 110.269 166.062C110.321 166.113 110.391 166.141 110.465 166.141C111.277 166.428 112.146 166.531 113.005 166.443C113.864 166.355 114.692 166.079 115.426 165.634C116.161 165.189 116.784 164.588 117.249 163.875C117.714 163.161 118.009 162.354 118.111 161.514C118.12 161.48 118.122 161.444 118.117 161.408C118.112 161.373 118.1 161.339 118.082 161.309C118.063 161.278 118.039 161.251 118.01 161.23C117.981 161.208 117.947 161.193 117.912 161.184C117.877 161.175 117.84 161.173 117.804 161.178C117.768 161.183 117.734 161.195 117.702 161.213C117.671 161.231 117.644 161.255 117.622 161.283C117.6 161.312 117.584 161.344 117.575 161.379C116.874 162.629 115.855 163.68 114.617 164.43ZM37.078 33.7111C41.5241 48.2712 57.2498 47.5593 59.0836 48.6441C59.0836 48.8136 62.682 62.3905 64.1352 64.255C64.9483 65.289 66.9032 64.8822 68.2007 64.6449C71.2455 64.0516 74.7747 63.8652 77.3524 61.8481C78.0098 61.3227 77.6292 59.187 77.4562 58.4581C76.9055 55.4104 76.1425 52.4032 75.1726 49.4577C74.7911 48.569 74.4675 47.6575 74.2038 46.7287C75.3976 45.6926 76.696 44.7782 78.079 43.9998C80.3616 42.4762 82.3921 40.6183 84.0994 38.491C87.4027 33.7497 88.8959 28.0199 88.317 22.3073C87.738 16.5947 85.1239 11.2645 80.9335 7.25218C68.1142 -5.07047 44.9322 -1.05332 37.4067 14.4898C34.829 19.8799 35.3307 28.0498 37.078 33.7111ZM76.5566 61.0345C74.2557 62.8482 70.8649 63.0855 67.9066 63.6787C67.1108 63.8482 65.2251 64.3059 64.7234 63.6787C63.7445 62.2943 63.0402 60.7418 62.6474 59.1022C67.1286 58.4835 71.5117 57.3102 75.6916 55.6105C76.257 57.3655 76.5487 59.1942 76.5566 61.0345ZM75.5013 54.9156C71.0808 55.7228 66.7397 56.9023 62.5263 58.4412C62.0794 56.4739 61.5015 54.5375 60.7963 52.6443C65.2659 52.1856 69.6496 51.1247 73.8232 49.4916C74.5212 51.2833 75.0991 53.1179 75.5532 54.9834L75.5013 54.9156ZM38.4966 15.0153C45.7453 0.336583 67.9066 -3.37547 80.0166 8.23528C83.9526 12.0178 86.4149 17.0297 86.9773 22.4033C87.5396 27.7769 86.1666 33.1741 83.096 37.6605C80.1031 41.7963 74.0481 44.6439 73.1139 46.1355C72.7852 46.6609 73.3907 48 73.7713 48.9492C71.7991 49.3221 69.6366 49.7797 67.699 50.2035C67.18 47.8813 64.758 38.508 63.8584 36.3045C63.5124 35.4231 63.201 35.4909 62.2841 35.7451C57.2325 35.7451 51.6792 34.4908 49.8973 29.8296C49.682 29.2832 49.5311 28.7145 49.4475 28.1346C49.2053 25.6938 51.1775 22.8462 53.3573 23.0496C53.0459 24.9141 53.3573 28.4736 54.9835 29.5414C56.6097 30.6093 58.4435 28.9143 58.4435 27.3888C58.3512 26.2887 57.9862 25.2274 57.3803 24.2969C56.7743 23.3664 55.9456 22.595 54.9662 22.0495C55.2381 21.4444 55.6411 20.9045 56.1473 20.4672C56.6534 20.0299 57.2506 19.7057 57.8974 19.517C58.5442 19.3283 59.2251 19.2798 59.8929 19.3746C60.5608 19.4695 61.1996 19.7055 61.7651 20.0664C60.3984 22.6767 61.7651 28.66 64.1871 27.2532C66.6091 25.8463 65.8133 22.3885 64.3082 20.4732C63.5816 19.5409 63.4259 19.7952 63.7892 19.524C66.6091 17.5069 69.8096 19.846 71.159 22.914C73.0966 27.1345 68.9446 32.3382 66.315 33.9145C66.2507 33.9527 66.2046 34.0144 66.1868 34.0859C66.1689 34.1574 66.1808 34.233 66.2198 34.2959C66.2588 34.3588 66.3217 34.404 66.3947 34.4215C66.4677 34.439 66.5448 34.4273 66.6091 34.3891C69.8269 32.5416 73.8924 27.1006 72.0413 22.5241C70.1902 17.9476 65.5365 16.1848 62.5955 18.9138C61.8549 18.416 61.0098 18.0873 60.1224 17.9519C59.235 17.8166 58.328 17.878 57.468 18.1318C56.6081 18.3855 55.8172 18.8251 55.1537 19.418C54.4901 20.011 53.9708 20.7423 53.6341 21.558C50.4163 21.1512 47.7002 24.8293 48.0635 28.1685C48.2589 29.6443 48.8283 31.0488 49.7197 32.2538C50.6111 33.4587 51.7962 34.4259 53.167 35.0671C54.7932 35.8299 60.5714 37.2198 62.855 36.5757C63.6508 38.2707 66.5399 48.2203 67.0589 50.3052C59.3777 52.0002 60.9347 52.7968 60.5541 51.6951C60.1043 50.3221 59.8275 48.3051 59.4469 48.1695C49.8973 46.0507 41.2819 44.4913 38.0641 33.3891C36.4898 28.0159 36.0746 20.0494 38.4966 15.0153ZM54.551 23.3886C55.2065 23.8443 55.7543 24.4328 56.1573 25.1143C56.5603 25.7957 56.809 26.5541 56.8865 27.3379C56.8865 27.7956 55.8312 29.0329 55.1565 27.6769C54.6399 26.3078 54.4563 24.8394 54.6202 23.3886H54.551ZM62.7166 20.7952C64.1006 22.1173 64.9656 25.2022 63.4605 26.1006C62.9388 25.3273 62.601 24.4491 62.4723 23.5309C62.3435 22.6126 62.427 21.6777 62.7166 20.7952ZM10.8166 85.4934C17.8577 83.3407 26.3866 85.2052 29.6736 92.8327C35.3653 105.749 20.3143 112.325 20.47 113.003C20.816 114.698 21.4388 117.664 21.6983 119.376C21.7189 119.52 21.797 119.65 21.9155 119.738C22.0339 119.825 22.1829 119.863 22.3297 119.843C22.4765 119.822 22.6091 119.746 22.6984 119.63C22.7876 119.514 22.8261 119.368 22.8055 119.224C22.5979 117.529 22.373 115.088 22.1308 113.325C24.5768 112.364 26.8401 111.006 28.8259 109.308C41.0397 95.1888 27.4073 77.3743 9.98617 82.9509C7.22763 83.739 4.78784 85.3488 3.00533 87.5569C1.22282 89.765 0.185983 92.4619 0.0386658 95.2735C-0.514934 101.952 4.91726 107.715 13.6884 106.969C13.8206 106.946 13.9403 106.879 14.0267 106.778C14.113 106.677 14.1603 106.55 14.1603 106.418C14.1603 106.287 14.113 106.159 14.0267 106.059C13.9403 105.958 13.8206 105.89 13.6884 105.867C5.90337 106.257 1.73407 100.782 2.47797 95.5278C2.6503 93.2194 3.54269 91.0187 5.03423 89.2238C6.52577 87.429 8.54437 86.1267 10.8166 85.4934ZM140.03 41.2708C140.177 41.309 140.333 41.2885 140.465 41.2138C140.596 41.1391 140.692 41.0164 140.731 40.8725C140.77 40.7287 140.749 40.5755 140.673 40.4468C140.597 40.318 140.471 40.2242 140.324 40.186C132.833 38.1181 130.671 31.6263 133.093 26.8633C134.036 24.7361 135.624 22.9446 137.642 21.7317C139.66 20.5189 142.01 19.9434 144.373 20.0833C157.382 20.4054 163.091 32.1348 158.213 40.5081C154.977 46.2372 150.652 47.7796 145.116 48.4915C144.942 48.5156 144.78 48.5948 144.655 48.7171C144.53 48.8394 144.449 48.9982 144.424 49.1695C144.234 50.7289 143.819 53.7969 143.508 55.5766C143.478 55.7182 143.507 55.8657 143.588 55.9864C143.669 56.1072 143.796 56.1915 143.94 56.2207C144.085 56.25 144.235 56.2217 144.358 56.1423C144.482 56.0628 144.568 55.9386 144.597 55.797C144.995 53.9664 145.532 51.8137 145.895 50.0001C148.523 49.8616 151.108 49.2885 153.542 48.3051C159.406 44.9151 162.97 39.5589 162.503 32.7789C161.413 16.8628 137.712 11.1676 130.896 25.9989C128.249 32.0331 131.467 39.3724 140.03 41.2708ZM236.149 120.8C235.951 117.658 234.807 114.644 232.862 112.139C230.991 110.076 228.709 108.411 226.156 107.245C223.603 106.079 220.834 105.437 218.019 105.359C215.153 105.229 212.317 105.974 209.902 107.493C207.488 109.011 205.615 111.227 204.542 113.834C201.826 119.987 205.096 127.156 213.624 129.19C213.7 129.224 213.783 129.241 213.866 129.24C213.95 129.239 214.032 129.22 214.107 129.184C214.182 129.149 214.248 129.098 214.301 129.034C214.354 128.971 214.392 128.897 214.412 128.818C214.433 128.739 214.435 128.656 214.42 128.576C214.404 128.496 214.371 128.42 214.322 128.354C214.274 128.287 214.211 128.232 214.138 128.192C214.065 128.153 213.984 128.129 213.901 128.123C206.462 125.919 204.248 119.648 206.687 114.8C207.63 112.673 209.219 110.881 211.236 109.668C213.254 108.455 215.604 107.88 217.967 108.02C220.366 108.085 222.727 108.627 224.906 109.611C227.086 110.596 229.039 112.004 230.648 113.749C232.268 115.821 233.231 118.315 233.416 120.919C234.644 135.869 218.209 135.92 218.053 137.106C217.846 138.801 217.465 141.784 217.136 143.513C217.107 143.655 217.135 143.802 217.216 143.923C217.298 144.044 217.424 144.128 217.569 144.157C217.713 144.187 217.864 144.158 217.987 144.079C218.11 143.999 218.196 143.875 218.226 143.734C218.641 141.92 219.16 139.75 219.524 137.937C222.157 137.792 224.747 137.219 227.188 136.242C232.966 132.919 236.616 127.648 236.149 120.8ZM29.3968 132.225C30.1407 129.207 27.909 126.038 25.6946 126.292C24.2584 126.14 22.8122 126.1 21.3696 126.173C17.6155 127.055 15.8509 131.869 19.3801 134.225C23.4283 136.869 28.6702 135.038 29.3968 132.225ZM26.7153 131.886C26.1009 132.388 25.3484 132.7 24.5528 132.784C19.8472 133.428 18.8438 129.394 22.0097 128.072L25.7292 127.394C27.3381 127.529 27.7014 130.902 26.7153 131.801V131.886ZM142.072 62.0515C138.041 60.6108 133.681 65.0686 136.536 68.8315C139.39 72.5944 145.047 72.5944 146.673 70.0858C148.3 67.5772 147.314 63.7804 145.134 63.3058C144.943 63.2211 143.438 62.5431 142.072 62.0515ZM144.251 68.8315C143.478 69.0896 142.649 69.1471 141.845 68.9986C141.042 68.8501 140.292 68.5006 139.667 67.984C139.156 67.6244 138.736 67.1547 138.439 66.6111C137.937 65.2381 139.736 63.8313 141.051 63.7465L144.788 64.272C146.241 65.0347 145.514 68.3569 144.251 68.8824V68.8315ZM218.711 151.344C218.365 151.192 216.583 150.463 215.666 150.124C211.618 148.683 207.275 153.141 210.13 156.904C212.984 160.667 218.624 160.667 220.268 158.158C221.911 155.649 220.908 151.819 218.711 151.344ZM217.828 156.955C217.054 157.211 216.226 157.268 215.423 157.119C214.62 156.971 213.869 156.622 213.244 156.107C212.737 155.736 212.318 155.262 212.016 154.717C211.531 153.361 213.313 151.954 214.628 151.87L218.365 152.395C219.818 153.107 219.091 156.412 217.828 156.955Z" fill="#4B0082"/>
<path fill-rule="evenodd" clip-rule="evenodd" d="M204.577 244.84C201.117 228.162 187.657 202.465 171.499 195.906L168.247 189.244C168.223 189.196 168.19 189.153 168.148 189.119C168.107 189.084 168.058 189.059 168.005 189.044C167.953 189.03 167.898 189.027 167.844 189.035C167.79 189.043 167.739 189.063 167.693 189.092L164.233 191.278C163.134 184.084 159.779 177.402 154.632 172.159C158.23 166.718 163.991 165.057 169.942 164.803C174.873 164.599 178.506 164.311 181.36 160.175C187.017 152.005 185.685 144.039 179.042 136.445C168.921 124.885 164.942 128.343 160.012 121.953C150.635 109.952 148.507 92.2057 134.702 82.968C117.056 71.2555 107.541 80.6967 103.839 83.6121C98.4239 80.3916 86.3485 81.5103 81.1585 85.8665C76.747 89.5616 70.8996 94.3414 68.6333 99.6807C63.8066 110.952 64.3256 124.292 57.2672 134.513C55.5372 137.055 52.5789 138.767 50.4856 141.174C47.6124 144.704 45.1682 148.549 43.2023 152.632C40.6419 157.379 38.687 162.65 41.0225 167.565C44.1538 174.142 51.1603 180.414 58.6339 179.939C62.9589 179.651 68.6852 177.108 72.7507 178.786C75.1727 179.769 76.1069 182.058 77.9407 183.973C82.0927 188.499 91.7807 189.872 97.1437 186.736C91.2444 194.092 82.2484 193.838 66.5573 202.313C42.4757 215.297 33.6873 230.043 31.1096 245.146C30.1235 249.844 29.3959 254.591 28.9298 259.367C27.442 283.995 35.0713 315.217 59.8103 320.387C66.5919 321.81 74.3596 322.726 81.072 321.082C93.7875 317.98 108.96 309.59 120.101 302.776C125.291 299.606 144.494 286.91 153.421 285.249C153.958 289.773 155.122 294.204 156.881 298.419C164.025 312.81 175.461 321.319 191.481 317.624C201.861 315.234 204.819 304.403 205.096 294.029C210.303 283.08 206.168 252.807 204.577 244.84ZM144.719 165.481C147.798 166.04 149.909 168.871 152.192 171.176C158.23 177.091 162.382 183.431 163.628 191.516C158.628 194.635 155.375 196.601 155.306 196.702C155.237 196.804 152.832 190.804 151.379 190.075C149.205 189.017 147.233 187.601 145.549 185.888C144.252 184.482 142.66 182.007 142.868 180.142C143.787 179.663 144.791 179.358 145.826 179.244V178.193C140.48 178.346 138.646 183.126 138.162 184.193C137.816 184.956 137.332 185.719 136.224 185.6C135.117 185.482 134.719 184.227 135.134 183.109C135.55 181.99 136.553 177.074 143.629 176.007C143.717 175.994 143.803 175.965 143.88 175.921C143.957 175.876 144.024 175.817 144.078 175.747C144.132 175.677 144.171 175.597 144.193 175.512C144.216 175.427 144.221 175.339 144.208 175.252C144.196 175.165 144.166 175.082 144.121 175.006C144.075 174.931 144.015 174.865 143.943 174.812C143.872 174.759 143.791 174.721 143.704 174.699C143.617 174.677 143.527 174.672 143.438 174.684C141.958 174.869 140.522 175.311 139.2 175.99C138.011 176.558 136.956 177.363 136.102 178.352C135.247 179.341 134.611 180.493 134.235 181.736C133.404 184.058 130.498 183.024 131.19 181.024C131.886 179.078 132.923 177.266 134.252 175.668C135.729 174.288 137.502 173.252 139.442 172.633C140.965 172.023 142.262 172.311 142.608 171.82C142.954 171.328 142.141 169.684 141.726 169.193C139.494 166.582 133.076 168.837 130.619 165.921C129.045 164.006 132.349 163.938 133.681 163.769C137.418 163.362 140.965 164.786 144.719 165.481ZM151.068 207.483C146.122 209.062 141.077 210.325 135.965 211.263C137.695 201.618 138.871 193.346 138.698 190.346C142.729 191.109 147.348 191.651 152.4 192.465C153.767 194.685 154.51 196.55 154.839 197.075L151.483 199.16C151.31 199.381 151.345 198.465 151.068 207.483ZM132.28 256.451C133.046 259.706 133.589 263.007 133.906 266.333C126.813 265.892 121.398 265.977 118.734 265.875C118.838 261.113 118.89 259.638 118.976 258.638C123.342 257.554 127.792 256.822 132.28 256.451ZM105.067 214.703C114.881 214.772 124.683 213.989 134.356 212.364C131.277 228.636 126.588 248.197 124.374 252.112C119.288 238.518 119.807 238.467 105.067 214.703ZM125.827 251.892C128.63 245.739 132.885 227.382 135.723 212.093C140.887 211.145 145.979 209.854 150.964 208.228C150.428 226.534 150.272 249.383 151.396 267.74C148.109 267.452 143.335 267.045 138.698 266.689C138.404 263.943 137.245 254.383 136.259 251.875C135.999 251.197 135.688 250.926 134.529 250.892C131.636 251.016 128.756 251.35 125.914 251.892H125.827ZM132.003 187.227C130.251 186.224 128.851 184.722 127.99 182.922C128.79 183.253 129.626 183.498 130.481 183.651C130.805 184.009 131.223 184.272 131.69 184.413C132.157 184.553 132.654 184.565 133.128 184.448C133.906 184.21 133.404 184.109 133.82 185.176C133.979 185.607 134.248 185.99 134.6 186.29C134.953 186.591 135.377 186.798 135.834 186.893C136.291 186.988 136.765 186.967 137.212 186.833C137.659 186.699 138.063 186.455 138.387 186.126C139.062 185.532 139.113 184.821 139.927 183.295C140.722 183.142 141.501 182.939 142.262 182.719C144.321 188.007 150.774 190.567 151.223 190.956C143.629 189.855 136.899 189.16 132.09 187.227H132.003ZM98.8391 185.193C102.991 180.481 102.143 177.108 97.8703 173.769C89.2203 167.125 90.2929 168.905 86.6599 161.48C82.3868 149.429 86.0717 130.445 89.2376 118.088C90.1026 114.698 96.0019 111.071 100.292 111.613C106.243 112.359 103.752 115.427 108.838 117.173C109.721 117.426 110.635 117.563 111.555 117.58C111.609 117.597 111.666 117.603 111.723 117.598C111.78 117.593 111.836 117.577 111.886 117.551C111.937 117.525 111.982 117.489 112.018 117.446C112.055 117.403 112.082 117.354 112.1 117.3C112.117 117.247 112.123 117.191 112.118 117.135C112.112 117.079 112.096 117.025 112.07 116.975C112.043 116.926 112.007 116.882 111.963 116.846C111.919 116.81 111.869 116.783 111.814 116.766C109.116 115.181 106.629 113.273 104.41 111.088C105.465 106.868 108.146 104.562 113.181 104.528C116.641 104.528 119.374 107.105 121.831 109.308C124.806 111.969 128.007 119.156 127.765 123.106C127.217 127.682 128.312 132.302 130.861 136.174C132.591 139.123 135.844 141.683 137.781 144.174C138.854 145.564 138.231 151.768 137.608 154.497C136.795 156.887 135.065 161.446 134.667 162.48C127.436 162.735 127.747 166.531 131.207 168.159C127.972 171.955 120.066 176.176 125.723 181.498C126.934 183.99 128.872 187.397 131.467 188.431C133.308 189.162 135.213 189.729 137.159 190.126C137.539 192.753 136.294 201.448 134.391 211.568C124.462 213.186 114.405 213.929 104.34 213.788C98.0952 203.771 91.8845 194.279 90.3102 192.753C93.8055 191.012 96.7755 188.406 98.9256 185.193H98.8391ZM87.0405 194.126C90.5005 192.855 88.7705 193.075 89.6009 193.702C90.4313 194.329 96.1403 203.194 102.766 213.72C94.912 213.602 86.0717 213.025 82.7328 212.652C83.7362 211.873 81.1412 198.482 80.1378 196.787C82.6463 195.804 84.9645 194.94 87.127 194.126H87.0405ZM78.8576 197.313C80.2801 202.304 81.2469 207.409 81.7467 212.568C74.2818 211.519 66.9592 209.66 59.9141 207.025C65.9512 203.242 72.3196 199.991 78.9441 197.313H78.8576ZM80.4319 319.861C73.9444 321.454 66.3497 320.522 59.8103 319.149C49.586 316.997 42.5103 310.301 37.9085 301.725C30.5906 288.165 28.4108 268.011 30.6425 253.892C31.0923 251.061 31.6632 248.264 32.1476 245.417C34.8983 229.263 44.915 217.093 58.8934 207.889C72.6123 212.822 81.8332 214.551 103.389 214.669C118.319 238.399 118.648 240.772 122.921 252.383C121.606 252.621 115.516 253.824 114.478 254.655C114.063 254.977 114.063 255.621 114.478 265.808C98.7353 266.113 83.3383 268.52 68.8582 277.673C67.1282 265.452 69.1177 261.757 73.1486 254.756C79.4804 243.756 78.3386 241.722 74.3423 235.467C73.6835 234.623 73.2121 233.653 72.9583 232.62C72.9583 232.213 71.2283 231.653 73.6676 235.857C77.1276 242.027 78.0618 243.484 71.9376 254.078C67.4569 261.841 65.6231 265.825 68.3219 278.029C67.1109 278.825 65.7269 279.724 64.3948 280.774C62.3597 282.178 60.4498 283.749 58.6858 285.47C58.6514 285.535 58.6448 285.611 58.6675 285.681C58.6902 285.751 58.7404 285.809 58.8069 285.843C58.8734 285.876 58.9509 285.883 59.0223 285.86C59.0936 285.838 59.1531 285.789 59.1875 285.724C59.7238 284.792 68.6679 278.944 71.0726 277.74C84.4974 271.113 99.3408 265.384 123.647 266.96C123.341 277.037 124.406 287.109 126.813 296.911C114.323 304.64 96.5728 315.929 80.5184 319.861H80.4319ZM127.886 296.233C125.663 286.674 124.681 276.879 124.962 267.079C151.223 268.774 142.989 268.231 151.466 268.774C151.777 273.723 152.244 279.096 152.936 284.029C146.155 285.266 133.958 292.555 127.972 296.233H127.886ZM190.754 316.403C175.478 319.946 164.631 311.776 157.746 297.945C150.134 282.69 151.396 216.432 151.829 199.55L167.641 189.956C188.989 235.128 191.55 239.4 196.342 254.366C202.535 273.435 210.701 311.895 190.84 316.403H190.754ZM204.698 290.47C204.297 281.394 202.87 272.389 200.442 263.621C194.958 242.722 189.024 232.247 172.606 198.431L173.091 198.177C187.588 205.771 199.871 229.348 203.089 245.095C204.853 253.315 208.227 280.198 204.784 290.47H204.698Z" fill="#4B0082"/>
</svg>
