<svg width="63" height="63" viewBox="0 0 63 63" fill="none" xmlns="http://www.w3.org/2000/svg">
<rect width="63" height="63" rx="10" fill="#EBEEFC"/>
<path d="M21.6415 42.412C21.6415 42.412 20.6415 35.662 26.6415 35.662C28.2375 36.726 29.605 37.4615 31.1415 37.458H31.079C32.616 37.4615 33.433 36.376 35.029 35.312C42.814 35.312 40.779 42.412 40.779 42.412" fill="#4B0082"/>
<path d="M30.7685 40.749L29.149 38.783L27.5295 36.817H34.0075L32.388 38.783L30.7685 40.749Z" fill="white"/>
<path d="M26.265 35.46C26.265 35.46 23.315 37.473 25.185 39.1935H27.471L27.0545 41.0645L31 42.04L31.145 40.7875L26.965 35.6055" fill="#4B0082"/>
<path d="M46.5435 34.7111L43.0685 42.8866H30.5735L34.0485 34.7111H46.5435Z" fill="white"/>
<path d="M46.6515 34.7111L43.1765 42.8866H38.6815L42.1565 34.7111H46.5415H46.6515Z" fill="white"/>
<path d="M26 31.29C24 31.29 24 28.29 24 24.79C24 21.29 26 17.79 31 17.79C36 17.79 38 21.29 38 24.79C38 28.29 38 31.29 36 31.29" fill="#4B0082"/>
<path d="M25.4685 27.29C25.4685 31.79 27.9365 34.29 30.9685 34.29C33.9365 34.29 36.5 31.79 36.5 27.29C36.5128 26.4307 36.3424 25.5784 36 24.79C34.5 23.29 32.5 20.79 32.5 20.79C30.5 22.29 29 23.79 26 24.2905C26 24.2905 25.4685 24.7895 25.4685 27.29Z" fill="white"/>
<path d="M21.4585 42.4595C21.3394 42.4592 21.2242 42.4164 21.1338 42.3387C21.0434 42.2611 20.9838 42.1537 20.9655 42.036C20.945 41.901 20.479 38.7195 22.2555 36.6485C23.2175 35.528 24.6315 34.96 26.4595 34.96C26.5583 34.9599 26.6548 34.9892 26.737 35.044C28.3185 36.098 29.5745 36.753 30.9395 36.756H30.9595C31.0921 36.7558 31.2194 36.8084 31.3132 36.9021C31.4071 36.9957 31.4599 37.1229 31.46 37.2555C31.4602 37.3881 31.4076 37.5153 31.3139 37.6092C31.2203 37.703 31.0931 37.7558 30.9605 37.756H30.897L30.8745 37.7555C29.325 37.7345 27.9665 37.054 26.311 35.9615C24.863 35.9895 23.756 36.4385 23.018 37.296C21.54 39.014 21.949 41.856 21.9535 41.885C21.9642 41.9562 21.9595 42.0288 21.9395 42.098C21.9196 42.1672 21.8849 42.2313 21.8379 42.2858C21.7909 42.3404 21.7327 42.3841 21.6672 42.4141C21.6017 42.4441 21.5305 42.4595 21.4585 42.4595Z" fill="#4B0082"/>
<path d="M29.998 40.6415C29.923 40.6415 29.849 40.6247 29.7814 40.5922C29.7138 40.5598 29.6544 40.5125 29.6075 40.454L25.975 35.9185C25.8922 35.815 25.8538 35.6829 25.8684 35.5512C25.8829 35.4195 25.9491 35.2989 26.0525 35.216C26.1037 35.1747 26.1625 35.144 26.2256 35.1255C26.2887 35.1071 26.3548 35.1013 26.4201 35.1085C26.4855 35.1157 26.5487 35.1357 26.6063 35.1675C26.6639 35.1992 26.7146 35.2421 26.7555 35.2935L30.3875 39.829C30.4466 39.9024 30.4836 39.991 30.4944 40.0846C30.5053 40.1782 30.4894 40.273 30.4487 40.3579C30.4079 40.4429 30.344 40.5146 30.2643 40.5647C30.1845 40.6149 30.0922 40.6415 29.998 40.6415Z" fill="#4B0082"/>
<path d="M29.5035 41.6779C29.4655 41.6779 29.4275 41.6736 29.3905 41.6649L26.942 41.1014C26.8755 41.0862 26.8129 41.0575 26.758 41.0172C26.703 40.9769 26.6569 40.9257 26.6224 40.8669C26.5879 40.8081 26.5659 40.7428 26.5575 40.6752C26.5492 40.6075 26.5548 40.5389 26.574 40.4734L26.803 39.6934H25.185C25.06 39.6934 24.939 39.6459 24.8465 39.5614C24.1445 38.9154 24.0365 38.2389 24.07 37.7839C24.1765 36.3209 25.7995 35.1729 25.984 35.0469C26.0935 34.9755 26.2267 34.9498 26.3549 34.9753C26.4831 35.0009 26.5963 35.0757 26.67 35.1836C26.7438 35.2916 26.7723 35.4242 26.7495 35.5529C26.7267 35.6817 26.6544 35.7964 26.548 35.8724C26.1565 36.1414 25.1265 37.0224 25.067 37.8584C25.046 38.1544 25.152 38.4284 25.392 38.6934H27.472C27.5496 38.6936 27.6261 38.7118 27.6955 38.7466C27.7648 38.7814 27.8252 38.8319 27.8717 38.894C27.9183 38.9561 27.9497 39.0282 27.9637 39.1045C27.9776 39.1809 27.9736 39.2594 27.952 39.3339L27.684 40.2459L29.6155 40.6904C29.7349 40.7182 29.8399 40.7889 29.9106 40.889C29.9814 40.9891 30.0128 41.1118 29.9991 41.2336C29.9853 41.3554 29.9273 41.4679 29.836 41.5497C29.7447 41.6316 29.6266 41.677 29.504 41.6774" fill="#4B0082"/>
<path d="M30.5735 42.8866H43.0685L46.5435 34.7111H34.0485L30.5735 42.8866ZM30.5735 42.8866H25.0885" stroke="#4B0082" stroke-width="2" stroke-miterlimit="10" stroke-linecap="round" stroke-linejoin="round"/>
<path d="M33.9765 26.5236C33.9765 26.7888 33.8711 27.0431 33.6836 27.2307C33.4961 27.4182 33.2417 27.5236 32.9765 27.5236C32.7113 27.5236 32.4569 27.4182 32.2694 27.2307C32.0819 27.0431 31.9765 26.7888 31.9765 26.5236C31.9765 26.2583 32.0819 26.004 32.2694 25.8165C32.4569 25.6289 32.7113 25.5236 32.9765 25.5236C33.2417 25.5236 33.4961 25.6289 33.6836 25.8165C33.8711 26.004 33.9765 26.2583 33.9765 26.5236ZM29.9765 26.5236C29.9765 26.7888 29.8711 27.0431 29.6836 27.2307C29.4961 27.4182 29.2417 27.5236 28.9765 27.5236C28.7113 27.5236 28.4569 27.4182 28.2694 27.2307C28.0819 27.0431 27.9765 26.7888 27.9765 26.5236C27.9765 26.2583 28.0819 26.004 28.2694 25.8165C28.4569 25.6289 28.7113 25.5236 28.9765 25.5236C29.2417 25.5236 29.4961 25.6289 29.6836 25.8165C29.8711 26.004 29.9765 26.2583 29.9765 26.5236ZM30.9765 31.5251C30.3761 31.5192 29.7855 31.3721 29.2525 31.0956C29.1339 31.0362 29.0437 30.9322 29.0018 30.8063C28.9599 30.6805 28.9697 30.5432 29.029 30.4246C29.0883 30.3059 29.1924 30.2158 29.3182 30.1738C29.4441 30.1319 29.5814 30.1417 29.7 30.2011C30.4965 30.6311 31.456 30.6311 32.253 30.2011C32.3717 30.1418 32.5091 30.1321 32.6349 30.1741C32.6972 30.1949 32.7548 30.2278 32.8044 30.2708C32.854 30.3139 32.8947 30.3663 32.924 30.4251C32.9534 30.4838 32.9708 30.5478 32.9755 30.6133C32.9801 30.6788 32.9718 30.7446 32.951 30.807C32.9302 30.8693 32.8973 30.9269 32.8542 30.9765C32.8112 31.0261 32.7588 31.0667 32.7 31.0961C32.1671 31.3721 31.5767 31.5194 30.9765 31.5251Z" fill="#4B0082"/>
<path d="M26 31.29C24 31.29 24 28.29 24 24.79C24 21.29 26 17.79 31 17.79C36 17.79 38 21.29 38 24.79C38 28.29 38 31.29 36 31.29" stroke="#4B0082" stroke-width="2" stroke-linecap="round" stroke-linejoin="round"/>
<path d="M25.4685 27.29C25.4685 31.79 27.9365 34.29 30.9685 34.29C33.9365 34.29 36.5 31.79 36.5 27.29C36.5128 26.4307 36.3424 25.5784 36 24.79C34.5 23.29 32.5 20.79 32.5 20.79C30.5 22.29 29 23.79 26 24.2905C26 24.2905 25.468 24.79 25.468 27.2905L25.4685 27.29Z" stroke="#4B0082" stroke-width="2" stroke-linejoin="round"/>
<path d="M33.735 29.334H32.7315C32.3636 29.3338 32.0037 29.2274 31.6948 29.0276C31.386 28.8278 31.1414 28.543 30.9905 28.2075C30.8397 28.5428 30.5953 28.8275 30.2866 29.0273C29.978 29.2272 29.6182 29.3336 29.2505 29.334H28.2465C27.7406 29.3335 27.2556 29.1323 26.8979 28.7746C26.5402 28.4169 26.339 27.9319 26.3385 27.426V26.807H25.992C25.8594 26.807 25.7322 26.7543 25.6385 26.6606C25.5447 26.5668 25.492 26.4396 25.492 26.307C25.492 26.1744 25.5447 26.0472 25.6385 25.9535C25.7322 25.8597 25.8594 25.807 25.992 25.807H26.8385C26.9711 25.807 27.0983 25.8597 27.1921 25.9535C27.2858 26.0472 27.3385 26.1744 27.3385 26.307V27.426C27.3385 27.9265 27.7455 28.334 28.2465 28.334H29.2505C29.4911 28.3333 29.7216 28.2375 29.8917 28.0673C30.0617 27.8971 30.1575 27.6666 30.158 27.426V26.874C30.158 26.7414 30.2107 26.6142 30.3045 26.5205C30.3982 26.4267 30.5254 26.374 30.658 26.374H31.323C31.4556 26.374 31.5828 26.4267 31.6766 26.5205C31.7703 26.6142 31.823 26.7414 31.823 26.874V27.426C31.823 27.9265 32.2305 28.334 32.7315 28.334H33.7355C33.9761 28.3333 34.2066 28.2375 34.3767 28.0673C34.5467 27.8971 34.6425 27.6666 34.643 27.426V26.307C34.643 26.1744 34.6957 26.0472 34.7895 25.9535C34.8832 25.8597 35.0104 25.807 35.143 25.807H35.7215C35.8541 25.807 35.9813 25.8597 36.0751 25.9535C36.1688 26.0472 36.2215 26.1744 36.2215 26.307C36.2215 26.4396 36.1688 26.5668 36.0751 26.6606C35.9813 26.7543 35.8541 26.807 35.7215 26.807H35.643V27.426C35.6425 27.9318 35.4414 28.4167 35.0838 28.7744C34.7262 29.1321 34.2408 29.3333 33.735 29.334Z" fill="#4B0082"/>
</svg>
